<svg width="1409" height="465" viewBox="0 0 1409 465" fill="none" xmlns="http://www.w3.org/2000/svg">
<rect width="1409" height="465" fill="black"/>
<path d="M766.06 190V146.6H773.81C778.811 146.6 782.697 147.675 785.466 149.824C788.235 151.932 789.62 154.887 789.62 158.69C789.62 162.493 788.235 165.469 785.466 167.618C782.697 169.726 778.811 170.78 773.81 170.78H770.276V190H766.06ZM773.81 148.088H770.276V169.292H773.81C781.374 169.292 785.156 165.758 785.156 158.69C785.156 151.622 781.374 148.088 773.81 148.088ZM801.419 190V146.6H820.329V149.638L809.479 148.212C807.578 147.964 806.297 147.84 805.635 147.84V166.75C806.173 166.75 807.454 166.688 809.479 166.564L819.647 165.944V168.796L809.479 168.176C807.454 168.052 806.173 167.99 805.635 167.99V188.76C806.379 188.76 807.681 188.636 809.541 188.388L820.515 186.962V190H801.419ZM833.509 146.6H841.817C846.199 146.6 849.588 147.53 851.985 149.39C854.424 151.209 855.643 153.771 855.643 157.078C855.643 159.641 854.879 161.769 853.349 163.464C851.861 165.159 849.691 166.295 846.839 166.874V167.246C849.567 167.783 851.799 169.065 853.535 171.09C855.271 173.115 856.573 175.616 857.441 178.592C858.227 181.32 858.991 183.449 859.735 184.978C860.521 186.466 861.368 187.541 862.277 188.202C863.228 188.863 864.344 189.339 865.625 189.628V190H863.083C861.265 190 859.756 189.669 858.557 189.008C857.4 188.347 856.408 187.231 855.581 185.66C854.755 184.089 853.969 181.919 853.225 179.15C852.027 174.893 850.435 171.875 848.451 170.098C846.467 168.321 844.049 167.432 841.197 167.432H840.825V166.316H841.197C847.852 166.316 851.179 163.257 851.179 157.14C851.179 151.105 848.059 148.088 841.817 148.088H837.725V190H833.509V146.6ZM869.507 188.636L869.879 184.916H870.251C871.863 186.321 873.681 187.417 875.707 188.202C877.732 188.987 879.737 189.38 881.721 189.38C884.531 189.38 886.805 188.615 888.541 187.086C890.277 185.515 891.145 183.428 891.145 180.824C891.145 179.377 890.814 178.034 890.153 176.794C889.533 175.554 888.479 174.293 886.991 173.012C885.544 171.731 883.539 170.346 880.977 168.858C879.199 167.825 877.505 166.75 875.893 165.634C874.281 164.477 872.958 163.154 871.925 161.666C870.891 160.137 870.375 158.318 870.375 156.21C870.375 153.069 871.511 150.547 873.785 148.646C876.058 146.703 879.055 145.732 882.775 145.732C884.428 145.732 886.205 145.918 888.107 146.29C890.008 146.621 891.475 147.055 892.509 147.592L892.199 151.064H891.827C889.471 148.501 886.453 147.22 882.775 147.22C880.129 147.22 878.001 147.902 876.389 149.266C874.777 150.589 873.971 152.387 873.971 154.66C873.971 156.355 874.405 157.822 875.273 159.062C876.182 160.261 877.339 161.356 878.745 162.348C880.15 163.299 881.659 164.229 883.271 165.138C885.131 166.213 886.929 167.349 888.665 168.548C890.442 169.747 891.889 171.193 893.005 172.888C894.162 174.541 894.741 176.629 894.741 179.15C894.741 181.465 894.203 183.511 893.129 185.288C892.054 187.024 890.525 188.388 888.541 189.38C886.598 190.372 884.325 190.868 881.721 190.868C880.067 190.868 878.125 190.661 875.893 190.248C873.661 189.835 871.532 189.297 869.507 188.636ZM903.853 168.3C903.853 165.117 904.411 162.162 905.527 159.434C906.684 156.665 908.275 154.267 910.301 152.242C912.367 150.175 914.765 148.584 917.493 147.468C920.262 146.311 923.238 145.732 926.421 145.732C929.603 145.732 932.559 146.311 935.287 147.468C938.056 148.584 940.453 150.175 942.479 152.242C944.545 154.267 946.137 156.665 947.253 159.434C948.41 162.162 948.989 165.117 948.989 168.3C948.989 171.483 948.41 174.459 947.253 177.228C946.137 179.956 944.545 182.353 942.479 184.42C940.453 186.445 938.056 188.037 935.287 189.194C932.559 190.31 929.603 190.868 926.421 190.868C923.238 190.868 920.262 190.31 917.493 189.194C914.765 188.037 912.367 186.445 910.301 184.42C908.275 182.353 906.684 179.956 905.527 177.228C904.411 174.459 903.853 171.483 903.853 168.3ZM908.565 168.3C908.565 172.516 909.309 176.215 910.797 179.398C912.285 182.539 914.372 184.999 917.059 186.776C919.745 188.512 922.866 189.38 926.421 189.38C929.975 189.38 933.096 188.512 935.783 186.776C938.469 184.999 940.557 182.519 942.045 179.336C943.533 176.153 944.277 172.475 944.277 168.3C944.277 164.125 943.533 160.467 942.045 157.326C940.557 154.143 938.469 151.663 935.783 149.886C933.096 148.109 929.975 147.22 926.421 147.22C922.866 147.22 919.745 148.109 917.059 149.886C914.413 151.622 912.326 154.081 910.797 157.264C909.309 160.405 908.565 164.084 908.565 168.3ZM961.06 190L962.61 145.732H963.354L994.54 183.428H994.912L993.548 146.6H997.764L996.214 190.868H995.47L964.284 153.172H963.912L965.276 190H961.06ZM1006.52 190L1023.2 146.6H1027.04L1043.72 190H1039.2L1031.51 169.664H1017.43L1011.05 190H1006.52ZM1023.63 149.824L1017.87 168.176H1030.95L1024.01 149.824H1023.63ZM1053.78 146.6H1057.99V188.76C1058.78 188.76 1060.02 188.636 1061.71 188.388L1072.01 186.838V190H1053.78V146.6ZM782.771 255V211.6H790.521C795.522 211.6 799.408 212.675 802.177 214.824C804.946 216.932 806.331 219.887 806.331 223.69C806.331 227.493 804.946 230.469 802.177 232.618C799.408 234.726 795.522 235.78 790.521 235.78H786.987V255H782.771ZM790.521 213.088H786.987V234.292H790.521C798.085 234.292 801.867 230.758 801.867 223.69C801.867 216.622 798.085 213.088 790.521 213.088ZM818.13 211.6H826.438C830.82 211.6 834.209 212.53 836.606 214.39C839.045 216.209 840.264 218.771 840.264 222.078C840.264 224.641 839.5 226.769 837.97 228.464C836.482 230.159 834.312 231.295 831.46 231.874V232.246C834.188 232.783 836.42 234.065 838.156 236.09C839.892 238.115 841.194 240.616 842.062 243.592C842.848 246.32 843.612 248.449 844.356 249.978C845.142 251.466 845.989 252.541 846.898 253.202C847.849 253.863 848.965 254.339 850.246 254.628V255H847.704C845.886 255 844.377 254.669 843.178 254.008C842.021 253.347 841.029 252.231 840.202 250.66C839.376 249.089 838.59 246.919 837.846 244.15C836.648 239.893 835.056 236.875 833.072 235.098C831.088 233.321 828.67 232.432 825.818 232.432H825.446V231.316H825.818C832.473 231.316 835.8 228.257 835.8 222.14C835.8 216.105 832.68 213.088 826.438 213.088H822.346V255H818.13V211.6ZM853.599 233.3C853.599 230.117 854.157 227.162 855.273 224.434C856.43 221.665 858.021 219.267 860.047 217.242C862.113 215.175 864.511 213.584 867.239 212.468C870.008 211.311 872.984 210.732 876.167 210.732C879.349 210.732 882.305 211.311 885.033 212.468C887.802 213.584 890.199 215.175 892.225 217.242C894.291 219.267 895.883 221.665 896.999 224.434C898.156 227.162 898.735 230.117 898.735 233.3C898.735 236.483 898.156 239.459 896.999 242.228C895.883 244.956 894.291 247.353 892.225 249.42C890.199 251.445 887.802 253.037 885.033 254.194C882.305 255.31 879.349 255.868 876.167 255.868C872.984 255.868 870.008 255.31 867.239 254.194C864.511 253.037 862.113 251.445 860.047 249.42C858.021 247.353 856.43 244.956 855.273 242.228C854.157 239.459 853.599 236.483 853.599 233.3ZM858.311 233.3C858.311 237.516 859.055 241.215 860.543 244.398C862.031 247.539 864.118 249.999 866.805 251.776C869.491 253.512 872.612 254.38 876.167 254.38C879.721 254.38 882.842 253.512 885.529 251.776C888.215 249.999 890.303 247.519 891.791 244.336C893.279 241.153 894.023 237.475 894.023 233.3C894.023 229.125 893.279 225.467 891.791 222.326C890.303 219.143 888.215 216.663 885.529 214.886C882.842 213.109 879.721 212.22 876.167 212.22C872.612 212.22 869.491 213.109 866.805 214.886C864.159 216.622 862.072 219.081 860.543 222.264C859.055 225.405 858.311 229.084 858.311 233.3ZM911.736 251.156V211.6H915.952V250.784C915.952 255.992 915.228 260.043 913.782 262.936C912.335 265.829 910.124 267.937 907.148 269.26L906.962 268.95C908.615 267.793 909.814 265.829 910.558 263.06C911.343 260.332 911.736 256.364 911.736 251.156ZM932.08 255V211.6H950.99V214.638L940.14 213.212C938.238 212.964 936.957 212.84 936.296 212.84V231.75C936.833 231.75 938.114 231.688 940.14 231.564L950.308 230.944V233.796L940.14 233.176C938.114 233.052 936.833 232.99 936.296 232.99V253.76C937.04 253.76 938.342 253.636 940.202 253.388L951.176 251.962V255H932.08ZM998.765 249.668L998.393 253.45C997.236 253.946 995.831 254.38 994.177 254.752C992.524 255.124 990.85 255.393 989.155 255.558C987.461 255.765 985.952 255.868 984.629 255.868C981.281 255.868 978.181 255.31 975.329 254.194C972.477 253.037 969.977 251.445 967.827 249.42C965.719 247.395 964.066 245.018 962.867 242.29C961.669 239.521 961.069 236.524 961.069 233.3C961.069 230.076 961.669 227.1 962.867 224.372C964.066 221.603 965.719 219.205 967.827 217.18C969.977 215.155 972.477 213.584 975.329 212.468C978.181 211.311 981.281 210.732 984.629 210.732C985.993 210.732 987.523 210.835 989.217 211.042C990.912 211.249 992.565 211.538 994.177 211.91C995.789 212.241 997.153 212.633 998.269 213.088L997.959 216.56H997.587C996.058 215.155 994.136 214.08 991.821 213.336C989.507 212.592 987.109 212.22 984.629 212.22C980.909 212.22 977.623 213.109 974.771 214.886C971.961 216.622 969.749 219.081 968.137 222.264C966.567 225.405 965.781 229.084 965.781 233.3C965.781 237.557 966.567 241.257 968.137 244.398C969.749 247.539 971.961 249.999 974.771 251.776C977.582 253.512 980.868 254.38 984.629 254.38C987.44 254.38 990.044 253.925 992.441 253.016C994.88 252.107 996.864 250.991 998.393 249.668H998.765ZM1021.07 255V212.84C1020.45 212.84 1019.17 212.964 1017.23 213.212L1005.08 214.762V211.6H1041.29V214.762L1029.13 213.212C1027.19 212.964 1025.91 212.84 1025.29 212.84V255H1021.07ZM1046.97 253.636L1047.34 249.916H1047.71C1049.33 251.321 1051.14 252.417 1053.17 253.202C1055.19 253.987 1057.2 254.38 1059.18 254.38C1061.99 254.38 1064.27 253.615 1066 252.086C1067.74 250.515 1068.61 248.428 1068.61 245.824C1068.61 244.377 1068.28 243.034 1067.62 241.794C1067 240.554 1065.94 239.293 1064.45 238.012C1063.01 236.731 1061 235.346 1058.44 233.858C1056.66 232.825 1054.97 231.75 1053.36 230.634C1051.74 229.477 1050.42 228.154 1049.39 226.666C1048.35 225.137 1047.84 223.318 1047.84 221.21C1047.84 218.069 1048.97 215.547 1051.25 213.646C1053.52 211.703 1056.52 210.732 1060.24 210.732C1061.89 210.732 1063.67 210.918 1065.57 211.29C1067.47 211.621 1068.94 212.055 1069.97 212.592L1069.66 216.064H1069.29C1066.93 213.501 1063.92 212.22 1060.24 212.22C1057.59 212.22 1055.46 212.902 1053.85 214.266C1052.24 215.589 1051.43 217.387 1051.43 219.66C1051.43 221.355 1051.87 222.822 1052.74 224.062C1053.64 225.261 1054.8 226.356 1056.21 227.348C1057.61 228.299 1059.12 229.229 1060.73 230.138C1062.59 231.213 1064.39 232.349 1066.13 233.548C1067.9 234.747 1069.35 236.193 1070.47 237.888C1071.62 239.541 1072.2 241.629 1072.2 244.15C1072.2 246.465 1071.67 248.511 1070.59 250.288C1069.52 252.024 1067.99 253.388 1066 254.38C1064.06 255.372 1061.79 255.868 1059.18 255.868C1057.53 255.868 1055.59 255.661 1053.36 255.248C1051.12 254.835 1048.99 254.297 1046.97 253.636ZM810.795 320L804.967 313.676C803.272 316.197 801.433 318.037 799.449 319.194C797.506 320.31 795.192 320.868 792.505 320.868C789.818 320.868 787.462 320.393 785.437 319.442C783.412 318.45 781.841 317.086 780.725 315.35C779.609 313.573 779.051 311.527 779.051 309.212C779.051 306.36 779.898 303.839 781.593 301.648C783.329 299.416 785.809 297.659 789.033 296.378L788.537 295.82C786.636 293.753 785.272 291.893 784.445 290.24C783.618 288.545 783.205 286.809 783.205 285.032C783.205 282.221 784.094 279.969 785.871 278.274C787.648 276.579 789.984 275.732 792.877 275.732C795.688 275.732 797.94 276.517 799.635 278.088C801.371 279.617 802.239 281.663 802.239 284.226C802.239 286.541 801.474 288.69 799.945 290.674C798.457 292.658 796.432 294.311 793.869 295.634L806.021 308.84L810.361 297.308H814.577L807.013 309.894L816.313 320H810.795ZM791.327 292.906L793.001 294.704C796.556 292.348 798.333 289 798.333 284.66C798.333 282.304 797.837 280.485 796.845 279.204C795.894 277.881 794.572 277.22 792.877 277.22C791.182 277.22 789.756 277.861 788.599 279.142C787.483 280.382 786.925 282.035 786.925 284.102C786.925 285.507 787.276 286.913 787.979 288.318C788.682 289.682 789.798 291.211 791.327 292.906ZM783.081 308.716C783.081 311.899 784.011 314.482 785.871 316.466C787.772 318.409 790.232 319.38 793.249 319.38C797.382 319.38 800.958 317.107 803.975 312.56L789.963 297.308C785.375 299.747 783.081 303.549 783.081 308.716ZM842.712 320V276.6H856.352C861.147 276.6 865.322 277.509 868.876 279.328C872.431 281.147 875.2 283.689 877.184 286.954C879.168 290.178 880.16 293.96 880.16 298.3C880.16 302.64 879.168 306.443 877.184 309.708C875.2 312.932 872.431 315.453 868.876 317.272C865.322 319.091 861.147 320 856.352 320H842.712ZM856.352 278.088H846.928V318.512H856.352C862.346 318.512 867.016 316.735 870.364 313.18C873.754 309.625 875.448 304.665 875.448 298.3C875.448 291.935 873.754 286.975 870.364 283.42C867.016 279.865 862.346 278.088 856.352 278.088ZM893.208 320V276.6H912.118V279.638L901.268 278.212C899.367 277.964 898.086 277.84 897.424 277.84V296.75C897.962 296.75 899.243 296.688 901.268 296.564L911.436 295.944V298.796L901.268 298.176C899.243 298.052 897.962 297.99 897.424 297.99V318.76C898.168 318.76 899.47 318.636 901.33 318.388L912.304 316.962V320H893.208ZM921.516 318.636L921.888 314.916H922.26C923.872 316.321 925.691 317.417 927.716 318.202C929.742 318.987 931.746 319.38 933.73 319.38C936.541 319.38 938.814 318.615 940.55 317.086C942.286 315.515 943.154 313.428 943.154 310.824C943.154 309.377 942.824 308.034 942.162 306.794C941.542 305.554 940.488 304.293 939 303.012C937.554 301.731 935.549 300.346 932.986 298.858C931.209 297.825 929.514 296.75 927.902 295.634C926.29 294.477 924.968 293.154 923.934 291.666C922.901 290.137 922.384 288.318 922.384 286.21C922.384 283.069 923.521 280.547 925.794 278.646C928.068 276.703 931.064 275.732 934.784 275.732C936.438 275.732 938.215 275.918 940.116 276.29C942.018 276.621 943.485 277.055 944.518 277.592L944.208 281.064H943.836C941.48 278.501 938.463 277.22 934.784 277.22C932.139 277.22 930.01 277.902 928.398 279.266C926.786 280.589 925.98 282.387 925.98 284.66C925.98 286.355 926.414 287.822 927.282 289.062C928.192 290.261 929.349 291.356 930.754 292.348C932.16 293.299 933.668 294.229 935.28 295.138C937.14 296.213 938.938 297.349 940.674 298.548C942.452 299.747 943.898 301.193 945.014 302.888C946.172 304.541 946.75 306.629 946.75 309.15C946.75 311.465 946.213 313.511 945.138 315.288C944.064 317.024 942.534 318.388 940.55 319.38C938.608 320.372 936.334 320.868 933.73 320.868C932.077 320.868 930.134 320.661 927.902 320.248C925.67 319.835 923.542 319.297 921.516 318.636ZM958.962 320V276.6H963.178V320H958.962ZM1000.94 299.416V297.928H1016.63V314.792C1014.73 316.693 1012.39 318.181 1009.62 319.256C1006.9 320.331 1003.84 320.868 1000.45 320.868C996.976 320.868 993.773 320.31 990.838 319.194C987.903 318.037 985.341 316.445 983.15 314.42C980.959 312.353 979.244 309.956 978.004 307.228C976.805 304.5 976.206 301.524 976.206 298.3C976.206 295.076 976.805 292.1 978.004 289.372C979.244 286.644 980.959 284.267 983.15 282.242C985.341 280.175 987.903 278.584 990.838 277.468C993.773 276.311 996.976 275.732 1000.45 275.732C1001.94 275.732 1003.55 275.835 1005.28 276.042C1007.06 276.249 1008.76 276.538 1010.37 276.91C1011.98 277.241 1013.34 277.654 1014.46 278.15L1014.15 281.622H1013.78C1012.12 280.175 1010.14 279.08 1007.83 278.336C1005.51 277.592 1003.05 277.22 1000.45 277.22C996.563 277.22 993.153 278.109 990.218 279.886C987.283 281.622 984.989 284.081 983.336 287.264C981.724 290.405 980.918 294.084 980.918 298.3C980.918 302.516 981.724 306.215 983.336 309.398C984.989 312.539 987.283 314.999 990.218 316.776C993.153 318.512 996.563 319.38 1000.45 319.38C1002.85 319.38 1005.06 319.049 1007.08 318.388C1009.15 317.727 1010.93 316.776 1012.41 315.536V299.416H1000.94ZM1029.96 320L1031.51 275.732H1032.26L1063.44 313.428H1063.81L1062.45 276.6H1066.67L1065.12 320.868H1064.37L1033.19 283.172H1032.81L1034.18 320H1029.96Z" fill="white"/>
<rect x="1328" width="81" height="465" fill="#D9D9D9" fill-opacity="0.33"/>
</svg>
