<svg width="371" height="511" viewBox="0 0 371 511" fill="none" xmlns="http://www.w3.org/2000/svg">
<rect width="371" height="511" fill="#C4C4C4"/>
<g filter="url(#filter0_d_145_7)">
<path d="M19.1697 209.8H38.5737C45.2177 209.8 50.1677 210.768 53.4237 212.704C56.6797 214.596 58.3077 218.006 58.3077 222.934C58.3077 228.39 56.3277 232.152 52.3677 234.22C48.6717 236.112 43.5017 237.058 36.8577 237.058H36.3297V254.746H44.5797V256H19.1697V254.746H23.4597V211.054H19.1697V209.8ZM36.3297 211.054V235.804H37.7157C40.3557 235.804 42.1817 234.902 43.1937 233.098C44.2057 231.294 44.7117 228.368 44.7117 224.32V221.152C44.7117 217.412 44.2277 214.794 43.2597 213.298C42.3357 211.802 40.6197 211.054 38.1117 211.054H36.3297ZM81.6578 232.636H78.1598V254.746H82.4498V256H60.9998V254.746H65.2898V211.054H60.9998V209.8H80.9318C86.6518 209.8 90.6998 210.108 93.0758 210.724C95.4958 211.296 97.1898 212 98.1578 212.836C100.27 214.552 101.326 217.28 101.326 221.02C101.326 224.76 100.402 227.444 98.5538 229.072C96.7058 230.656 93.8898 231.602 90.1058 231.91V232.108C93.6698 232.592 96.1558 233.648 97.5638 235.276C98.9718 236.904 99.6758 239.632 99.6758 243.46V246.958C99.6758 249.246 99.7858 250.786 100.006 251.578C100.27 252.37 100.798 252.766 101.59 252.766C102.382 252.766 102.998 252.414 103.438 251.71C103.922 250.962 104.362 249.422 104.758 247.09L105.88 247.222C105.396 250.962 104.538 253.47 103.306 254.746C102.118 256.022 99.7198 256.66 96.1118 256.66C92.5038 256.66 89.9298 255.824 88.3898 254.152C86.8938 252.436 86.1458 249.246 86.1458 244.582V239.764C86.1458 237.3 85.8158 235.496 85.1558 234.352C84.5398 233.208 83.3738 232.636 81.6578 232.636ZM78.1598 211.054V231.382H80.2718C82.7798 231.382 84.6278 230.612 85.8158 229.072C87.0478 227.532 87.6638 225.024 87.6638 221.548V219.634C87.6638 216.158 87.0698 213.87 85.8818 212.77C84.7378 211.626 82.8898 211.054 80.3378 211.054H78.1598ZM139.031 235.606V230.722C139.031 222.67 138.635 217.588 137.843 215.476C136.963 213.056 135.709 211.56 134.081 210.988C133.157 210.636 132.035 210.46 130.715 210.46C129.395 210.46 128.251 210.636 127.283 210.988C126.359 211.34 125.589 211.956 124.973 212.836C124.357 213.716 123.851 214.64 123.455 215.608C123.103 216.576 122.817 217.94 122.597 219.7C122.333 222.252 122.201 226.014 122.201 230.986V235.738C122.201 241.106 122.399 244.934 122.795 247.222C123.235 249.466 123.763 251.072 124.379 252.04C125.743 254.196 127.855 255.274 130.715 255.274C134.191 255.274 136.435 253.822 137.447 250.918C138.503 247.97 139.031 242.866 139.031 235.606ZM130.583 256.66C123.235 256.66 117.735 254.68 114.083 250.72C110.475 246.716 108.671 240.952 108.671 233.428C108.671 225.86 110.607 219.92 114.479 215.608C118.395 211.252 123.917 209.074 131.045 209.074C138.173 209.074 143.541 211.142 147.149 215.278C150.801 219.37 152.627 225.2 152.627 232.768C152.627 240.336 150.779 246.21 147.083 250.39C143.431 254.57 137.931 256.66 130.583 256.66ZM164.632 209.8H186.082V211.054H182.452V239.566C182.452 245.506 181.11 249.84 178.426 252.568C175.742 255.252 171.716 256.594 166.348 256.594C162.784 256.594 159.946 255.912 157.834 254.548C155.766 253.184 154.732 251.27 154.732 248.806C154.732 246.914 155.26 245.44 156.316 244.384C157.372 243.284 158.802 242.734 160.606 242.734C162.454 242.734 163.818 243.196 164.698 244.12C165.622 245.044 166.084 246.166 166.084 247.486C166.084 248.762 165.842 250.06 165.358 251.38H162.784C162.388 252.04 162.19 252.678 162.19 253.294C162.19 253.866 162.476 254.372 163.048 254.812C163.664 255.208 164.456 255.406 165.424 255.406C167.184 255.406 168.306 254.724 168.79 253.36C169.318 251.952 169.582 248.938 169.582 244.318V211.054H164.632V209.8ZM188.497 209.8H222.817L223.477 222.868H222.289C220.441 218.424 218.505 215.388 216.481 213.76C214.457 212.088 211.487 211.252 207.571 211.252H205.261V231.646H207.505C209.573 231.646 211.311 230.876 212.719 229.336C214.127 227.752 215.117 225.64 215.689 223H216.679V242.536H215.557C214.765 239.236 213.687 236.882 212.323 235.474C211.003 234.066 209.177 233.362 206.845 233.362H205.261V254.548H207.769C211.817 254.548 215.249 253.338 218.065 250.918C220.925 248.498 222.883 245.396 223.939 241.612H225.259L224.731 256H188.497V254.548H192.391V211.252H188.497V209.8ZM253.021 210.394C246.201 210.394 242.791 216.972 242.791 230.128V235.342C242.791 241.59 243.693 246.496 245.497 250.06C247.301 253.58 249.963 255.34 253.483 255.34C258.323 255.34 262.767 250.632 266.815 241.216H268.003L267.541 255.934H266.815C266.551 255.45 266.309 255.12 266.089 254.944C265.869 254.724 265.539 254.614 265.099 254.614C264.703 254.614 263.119 254.966 260.347 255.67C257.575 256.33 254.759 256.66 251.899 256.66C244.727 256.66 239.161 254.724 235.201 250.852C231.285 246.98 229.327 241.172 229.327 233.428C229.327 225.64 231.373 219.634 235.465 215.41C239.601 211.186 245.145 209.074 252.097 209.074C254.781 209.074 257.399 209.426 259.951 210.13C262.547 210.79 264.065 211.12 264.505 211.12C264.945 211.12 265.275 211.032 265.495 210.856C265.715 210.636 265.957 210.284 266.221 209.8H266.947L267.475 224.122H266.287C264.307 219.678 262.261 216.29 260.149 213.958C258.081 211.582 255.705 210.394 253.021 210.394ZM312.167 209.8L312.827 226.366H311.573C309.637 220.514 307.921 216.532 306.425 214.42C304.929 212.264 302.773 211.186 299.957 211.186H299.165V254.614H304.775V256H280.685V254.614H286.295V211.186H285.437C282.621 211.186 280.443 212.308 278.903 214.552C277.363 216.752 275.669 220.69 273.821 226.366H272.567L273.227 209.8H312.167ZM334.696 255.274C336.896 255.274 338.832 254.68 340.504 253.492C342.22 252.304 343.078 250.522 343.078 248.146C343.078 245.726 342.154 243.878 340.306 242.602C338.502 241.326 335.906 240.226 332.518 239.302C329.174 238.334 326.732 237.498 325.192 236.794C323.696 236.09 322.266 235.166 320.902 234.022C318.174 231.734 316.81 228.192 316.81 223.396C316.81 219.48 318.196 216.114 320.968 213.298C323.784 210.482 327.612 209.074 332.452 209.074C334.784 209.074 337.204 209.426 339.712 210.13C342.264 210.79 343.848 211.12 344.464 211.12C345.08 211.12 345.63 210.68 346.114 209.8H346.84L347.302 223.132H346.246C344.134 219.304 341.912 216.246 339.58 213.958C337.292 211.626 334.784 210.46 332.056 210.46C329.372 210.46 327.282 211.098 325.786 212.374C324.29 213.606 323.542 215.278 323.542 217.39C323.542 219.458 324.422 221.064 326.182 222.208C327.986 223.308 330.186 224.21 332.782 224.914C335.378 225.618 337.072 226.102 337.864 226.366C338.7 226.63 339.712 227.004 340.9 227.488C342.132 227.928 343.122 228.412 343.87 228.94C344.662 229.424 345.476 230.062 346.312 230.854C347.192 231.602 347.874 232.438 348.358 233.362C349.546 235.474 350.14 237.982 350.14 240.886C350.14 245.638 348.644 249.466 345.652 252.37C342.704 255.23 338.81 256.66 333.97 256.66C331.462 256.66 328.58 256.33 325.324 255.67C322.112 255.01 320.33 254.68 319.978 254.68C319.362 254.68 318.768 255.34 318.196 256.66H317.272L316.612 240.952H317.734C319.67 244.78 322.134 248.124 325.126 250.984C328.162 253.844 331.352 255.274 334.696 255.274Z" fill="#3A3A3A"/>
</g>
<defs>
<filter id="filter0_d_145_7" x="6.16968" y="206.074" width="356.97" height="73.586" filterUnits="userSpaceOnUse" color-interpolation-filters="sRGB">
<feFlood flood-opacity="0" result="BackgroundImageFix"/>
<feColorMatrix in="SourceAlpha" type="matrix" values="0 0 0 0 0 0 0 0 0 0 0 0 0 0 0 0 0 0 127 0" result="hardAlpha"/>
<feOffset dy="10"/>
<feGaussianBlur stdDeviation="6.5"/>
<feComposite in2="hardAlpha" operator="out"/>
<feColorMatrix type="matrix" values="0 0 0 0 0 0 0 0 0 0 0 0 0 0 0 0 0 0 0.25 0"/>
<feBlend mode="normal" in2="BackgroundImageFix" result="effect1_dropShadow_145_7"/>
<feBlend mode="normal" in="SourceGraphic" in2="effect1_dropShadow_145_7" result="shape"/>
</filter>
</defs>
</svg>
