<svg width="371" height="321" viewBox="0 0 371 321" fill="none" xmlns="http://www.w3.org/2000/svg">
<rect width="371" height="321" fill="black"/>
<path d="M64.4375 99.4688H81.25V120.75H87.3438V99.4688H104.156V141.938H87.3438V125.469H81.25V141.938H64.4375V99.4688ZM134.781 99.4688H137.219C144.948 99.4688 150.052 102.917 152.531 109.812C153.531 112.646 154.031 115.906 154.031 119.594C154.031 125.802 152.833 130.917 150.438 134.938C147.604 139.646 143.198 142 137.219 142H134.781V99.4688ZM127.25 142C119.562 142 114.469 138.104 111.969 130.312C110.948 127.146 110.438 123.573 110.438 119.594C110.438 111.49 112.688 105.771 117.188 102.438C119.833 100.458 123.188 99.4688 127.25 99.4688H129.688V142H127.25ZM197.344 99.4688H211.344V117.125H207.844C205.552 117.125 203.865 116.885 202.781 116.406C201.698 115.906 200.844 115.354 200.219 114.75C199.615 114.125 199.094 113.312 198.656 112.312C197.781 110.271 197.344 107.438 197.344 103.812V99.4688ZM177.125 99.4688H193.938V142H177.125V99.4688ZM159.625 99.4688H173.625V103.812C173.625 109.167 172.656 112.812 170.719 114.75C169.135 116.333 166.604 117.125 163.125 117.125H159.625V99.4688ZM241.188 99.4688H258.531V111.281H255.281C249.635 111.281 245.781 110.396 243.719 108.625C242.031 107.167 241.188 104.812 241.188 101.562V99.4688ZM218.969 99.4688H235.781V116.594H248.312V124.75H235.781V141.938H218.969V99.4688ZM241.156 138.969C241.156 134.656 243.656 131.729 248.656 130.188C250.573 129.604 253.042 129.312 256.062 129.312H258.531V142H241.156V138.969ZM266.906 99.4688H283.719V141.938H266.906V99.4688ZM289.094 138.969C289.094 134.656 291.594 131.729 296.594 130.188C298.51 129.604 300.979 129.312 304 129.312H306.469V142H289.094V138.969Z" fill="white"/>
<path d="M73.0844 176H75.7644C77.1777 176 78.271 176.3 79.0444 176.9C79.831 177.487 80.2244 178.313 80.2244 179.38C80.2244 180.207 79.9777 180.893 79.4844 181.44C79.0044 181.987 78.3044 182.353 77.3844 182.54V182.66C78.2644 182.833 78.9844 183.247 79.5444 183.9C80.1044 184.553 80.5244 185.36 80.8044 186.32C81.0577 187.2 81.3044 187.887 81.5444 188.38C81.7977 188.86 82.071 189.207 82.3644 189.42C82.671 189.633 83.031 189.787 83.4444 189.88V190H82.6244C82.0377 190 81.551 189.893 81.1644 189.68C80.791 189.467 80.471 189.107 80.2044 188.6C79.9377 188.093 79.6844 187.393 79.4444 186.5C79.0577 185.127 78.5444 184.153 77.9044 183.58C77.2644 183.007 76.4844 182.72 75.5644 182.72H75.4444V182.36H75.5644C77.711 182.36 78.7844 181.373 78.7844 179.4C78.7844 177.453 77.7777 176.48 75.7644 176.48H74.4444V190H73.0844V176ZM84.5258 183C84.5258 181.973 84.7058 181.02 85.0658 180.14C85.4391 179.247 85.9524 178.473 86.6058 177.82C87.2724 177.153 88.0458 176.64 88.9258 176.28C89.8191 175.907 90.7791 175.72 91.8058 175.72C92.8324 175.72 93.7858 175.907 94.6658 176.28C95.5591 176.64 96.3324 177.153 96.9858 177.82C97.6524 178.473 98.1658 179.247 98.5258 180.14C98.8991 181.02 99.0858 181.973 99.0858 183C99.0858 184.027 98.8991 184.987 98.5258 185.88C98.1658 186.76 97.6524 187.533 96.9858 188.2C96.3324 188.853 95.5591 189.367 94.6658 189.74C93.7858 190.1 92.8324 190.28 91.8058 190.28C90.7791 190.28 89.8191 190.1 88.9258 189.74C88.0458 189.367 87.2724 188.853 86.6058 188.2C85.9524 187.533 85.4391 186.76 85.0658 185.88C84.7058 184.987 84.5258 184.027 84.5258 183ZM86.0458 183C86.0458 184.36 86.2858 185.553 86.7658 186.58C87.2458 187.593 87.9191 188.387 88.7858 188.96C89.6524 189.52 90.6591 189.8 91.8058 189.8C92.9524 189.8 93.9591 189.52 94.8258 188.96C95.6924 188.387 96.3658 187.587 96.8458 186.56C97.3258 185.533 97.5658 184.347 97.5658 183C97.5658 181.653 97.3258 180.473 96.8458 179.46C96.3658 178.433 95.6924 177.633 94.8258 177.06C93.9591 176.487 92.9524 176.2 91.8058 176.2C90.6591 176.2 89.6524 176.487 88.7858 177.06C87.9324 177.62 87.2591 178.413 86.7658 179.44C86.2858 180.453 86.0458 181.64 86.0458 183ZM102.28 183C102.28 181.973 102.46 181.02 102.82 180.14C103.193 179.247 103.706 178.473 104.36 177.82C105.026 177.153 105.8 176.64 106.68 176.28C107.573 175.907 108.533 175.72 109.56 175.72C110.586 175.72 111.54 175.907 112.42 176.28C113.313 176.64 114.086 177.153 114.74 177.82C115.406 178.473 115.92 179.247 116.28 180.14C116.653 181.02 116.84 181.973 116.84 183C116.84 184.027 116.653 184.987 116.28 185.88C115.92 186.76 115.406 187.533 114.74 188.2C114.086 188.853 113.313 189.367 112.42 189.74C111.54 190.1 110.586 190.28 109.56 190.28C108.533 190.28 107.573 190.1 106.68 189.74C105.8 189.367 105.026 188.853 104.36 188.2C103.706 187.533 103.193 186.76 102.82 185.88C102.46 184.987 102.28 184.027 102.28 183ZM103.8 183C103.8 184.36 104.04 185.553 104.52 186.58C105 187.593 105.673 188.387 106.54 188.96C107.406 189.52 108.413 189.8 109.56 189.8C110.706 189.8 111.713 189.52 112.58 188.96C113.446 188.387 114.12 187.587 114.6 186.56C115.08 185.533 115.32 184.347 115.32 183C115.32 181.653 115.08 180.473 114.6 179.46C114.12 178.433 113.446 177.633 112.58 177.06C111.713 176.487 110.706 176.2 109.56 176.2C108.413 176.2 107.406 176.487 106.54 177.06C105.686 177.62 105.013 178.413 104.52 179.44C104.04 180.453 103.8 181.64 103.8 183ZM134.214 176V190H132.854V177.16H132.734L127.894 186.44H127.274L121.774 178.26H121.654L122.094 190H120.734L121.234 175.72H121.634L127.934 185.08H128.054L132.774 176H134.214ZM144.803 176H147.483C148.896 176 149.99 176.3 150.763 176.9C151.55 177.487 151.943 178.313 151.943 179.38C151.943 180.207 151.696 180.893 151.203 181.44C150.723 181.987 150.023 182.353 149.103 182.54V182.66C149.983 182.833 150.703 183.247 151.263 183.9C151.823 184.553 152.243 185.36 152.523 186.32C152.776 187.2 153.023 187.887 153.263 188.38C153.516 188.86 153.79 189.207 154.083 189.42C154.39 189.633 154.75 189.787 155.163 189.88V190H154.343C153.756 190 153.27 189.893 152.883 189.68C152.51 189.467 152.19 189.107 151.923 188.6C151.656 188.093 151.403 187.393 151.163 186.5C150.776 185.127 150.263 184.153 149.623 183.58C148.983 183.007 148.203 182.72 147.283 182.72H147.163V182.36H147.283C149.43 182.36 150.503 181.373 150.503 179.4C150.503 177.453 149.496 176.48 147.483 176.48H146.163V190H144.803V176ZM157.635 190V176H163.735V176.98L160.235 176.52C159.622 176.44 159.208 176.4 158.995 176.4V182.5C159.168 182.5 159.582 182.48 160.235 182.44L163.515 182.24V183.16L160.235 182.96C159.582 182.92 159.168 182.9 158.995 182.9V189.6C159.235 189.6 159.655 189.56 160.255 189.48L163.795 189.02V190H157.635ZM166.767 189.56L166.887 188.36H167.007C167.527 188.813 168.113 189.167 168.767 189.42C169.42 189.673 170.067 189.8 170.707 189.8C171.613 189.8 172.347 189.553 172.907 189.06C173.467 188.553 173.747 187.88 173.747 187.04C173.747 186.573 173.64 186.14 173.427 185.74C173.227 185.34 172.887 184.933 172.407 184.52C171.94 184.107 171.293 183.66 170.467 183.18C169.893 182.847 169.347 182.5 168.827 182.14C168.307 181.767 167.88 181.34 167.547 180.86C167.213 180.367 167.047 179.78 167.047 179.1C167.047 178.087 167.413 177.273 168.147 176.66C168.88 176.033 169.847 175.72 171.047 175.72C171.58 175.72 172.153 175.78 172.767 175.9C173.38 176.007 173.853 176.147 174.187 176.32L174.087 177.44H173.967C173.207 176.613 172.233 176.2 171.047 176.2C170.193 176.2 169.507 176.42 168.987 176.86C168.467 177.287 168.207 177.867 168.207 178.6C168.207 179.147 168.347 179.62 168.627 180.02C168.92 180.407 169.293 180.76 169.747 181.08C170.2 181.387 170.687 181.687 171.207 181.98C171.807 182.327 172.387 182.693 172.947 183.08C173.52 183.467 173.987 183.933 174.347 184.48C174.72 185.013 174.907 185.687 174.907 186.5C174.907 187.247 174.733 187.907 174.387 188.48C174.04 189.04 173.547 189.48 172.907 189.8C172.28 190.12 171.547 190.28 170.707 190.28C170.173 190.28 169.547 190.213 168.827 190.08C168.107 189.947 167.42 189.773 166.767 189.56ZM178.846 190V176H184.946V176.98L181.446 176.52C180.833 176.44 180.419 176.4 180.206 176.4V182.5C180.379 182.5 180.793 182.48 181.446 182.44L184.726 182.24V183.16L181.446 182.96C180.793 182.92 180.379 182.9 180.206 182.9V189.6C180.446 189.6 180.866 189.56 181.466 189.48L185.006 189.02V190H178.846ZM189.198 176H191.878C193.291 176 194.384 176.3 195.158 176.9C195.944 177.487 196.338 178.313 196.338 179.38C196.338 180.207 196.091 180.893 195.598 181.44C195.118 181.987 194.418 182.353 193.498 182.54V182.66C194.378 182.833 195.098 183.247 195.658 183.9C196.218 184.553 196.638 185.36 196.918 186.32C197.171 187.2 197.418 187.887 197.658 188.38C197.911 188.86 198.184 189.207 198.478 189.42C198.784 189.633 199.144 189.787 199.558 189.88V190H198.738C198.151 190 197.664 189.893 197.278 189.68C196.904 189.467 196.584 189.107 196.318 188.6C196.051 188.093 195.798 187.393 195.558 186.5C195.171 185.127 194.658 184.153 194.018 183.58C193.378 183.007 192.598 182.72 191.678 182.72H191.558V182.36H191.678C193.824 182.36 194.898 181.373 194.898 179.4C194.898 177.453 193.891 176.48 191.878 176.48H190.558V190H189.198V176ZM199.503 176H201.003L206.463 188.44H206.583L211.163 176H212.663L206.303 190.28H205.863L199.503 176ZM212.606 190L217.986 176H219.226L224.606 190H223.146L220.666 183.44H216.126L214.066 190H212.606ZM218.126 177.04L216.266 182.96H220.486L218.246 177.04H218.126ZM229.859 190V176.4C229.659 176.4 229.245 176.44 228.619 176.52L224.699 177.02V176H236.379V177.02L232.459 176.52C231.832 176.44 231.419 176.4 231.219 176.4V190H229.859ZM239.627 190V176H240.987V190H239.627ZM245.19 183C245.19 181.973 245.37 181.02 245.73 180.14C246.103 179.247 246.617 178.473 247.27 177.82C247.937 177.153 248.71 176.64 249.59 176.28C250.483 175.907 251.443 175.72 252.47 175.72C253.497 175.72 254.45 175.907 255.33 176.28C256.223 176.64 256.997 177.153 257.65 177.82C258.317 178.473 258.83 179.247 259.19 180.14C259.563 181.02 259.75 181.973 259.75 183C259.75 184.027 259.563 184.987 259.19 185.88C258.83 186.76 258.317 187.533 257.65 188.2C256.997 188.853 256.223 189.367 255.33 189.74C254.45 190.1 253.497 190.28 252.47 190.28C251.443 190.28 250.483 190.1 249.59 189.74C248.71 189.367 247.937 188.853 247.27 188.2C246.617 187.533 246.103 186.76 245.73 185.88C245.37 184.987 245.19 184.027 245.19 183ZM246.71 183C246.71 184.36 246.95 185.553 247.43 186.58C247.91 187.593 248.583 188.387 249.45 188.96C250.317 189.52 251.323 189.8 252.47 189.8C253.617 189.8 254.623 189.52 255.49 188.96C256.357 188.387 257.03 187.587 257.51 186.56C257.99 185.533 258.23 184.347 258.23 183C258.23 181.653 257.99 180.473 257.51 179.46C257.03 178.433 256.357 177.633 255.49 177.06C254.623 176.487 253.617 176.2 252.47 176.2C251.323 176.2 250.317 176.487 249.45 177.06C248.597 177.62 247.923 178.413 247.43 179.44C246.95 180.453 246.71 181.64 246.71 183ZM263.644 190L264.144 175.72H264.384L274.444 187.88H274.564L274.124 176H275.484L274.984 190.28H274.744L264.684 178.12H264.564L265.004 190H263.644ZM294.82 190L292.94 187.96C292.393 188.773 291.8 189.367 291.16 189.74C290.533 190.1 289.786 190.28 288.92 190.28C288.053 190.28 287.293 190.127 286.64 189.82C285.986 189.5 285.48 189.06 285.12 188.5C284.76 187.927 284.58 187.267 284.58 186.52C284.58 185.6 284.853 184.787 285.4 184.08C285.96 183.36 286.76 182.793 287.8 182.38L287.64 182.2C287.026 181.533 286.586 180.933 286.32 180.4C286.053 179.853 285.92 179.293 285.92 178.72C285.92 177.813 286.206 177.087 286.78 176.54C287.353 175.993 288.106 175.72 289.04 175.72C289.946 175.72 290.673 175.973 291.22 176.48C291.78 176.973 292.06 177.633 292.06 178.46C292.06 179.207 291.813 179.9 291.32 180.54C290.84 181.18 290.186 181.713 289.36 182.14L293.28 186.4L294.68 182.68H296.04L293.6 186.74L296.6 190H294.82ZM288.54 181.26L289.08 181.84C290.226 181.08 290.8 180 290.8 178.6C290.8 177.84 290.64 177.253 290.32 176.84C290.013 176.413 289.586 176.2 289.04 176.2C288.493 176.2 288.033 176.407 287.66 176.82C287.3 177.22 287.12 177.753 287.12 178.42C287.12 178.873 287.233 179.327 287.46 179.78C287.686 180.22 288.046 180.713 288.54 181.26ZM285.88 186.36C285.88 187.387 286.18 188.22 286.78 188.86C287.393 189.487 288.186 189.8 289.16 189.8C290.493 189.8 291.646 189.067 292.62 187.6L288.1 182.68C286.62 183.467 285.88 184.693 285.88 186.36ZM105.916 209V195H108.416C110.03 195 111.283 195.347 112.176 196.04C113.07 196.72 113.516 197.673 113.516 198.9C113.516 200.127 113.07 201.087 112.176 201.78C111.283 202.46 110.03 202.8 108.416 202.8H107.276V209H105.916ZM108.416 195.48H107.276V202.32H108.416C110.856 202.32 112.076 201.18 112.076 198.9C112.076 196.62 110.856 195.48 108.416 195.48ZM117.323 195H120.003C121.416 195 122.509 195.3 123.283 195.9C124.069 196.487 124.463 197.313 124.463 198.38C124.463 199.207 124.216 199.893 123.723 200.44C123.243 200.987 122.543 201.353 121.623 201.54V201.66C122.503 201.833 123.223 202.247 123.783 202.9C124.343 203.553 124.763 204.36 125.043 205.32C125.296 206.2 125.543 206.887 125.783 207.38C126.036 207.86 126.309 208.207 126.603 208.42C126.909 208.633 127.269 208.787 127.683 208.88V209H126.863C126.276 209 125.789 208.893 125.403 208.68C125.029 208.467 124.709 208.107 124.443 207.6C124.176 207.093 123.923 206.393 123.683 205.5C123.296 204.127 122.783 203.153 122.143 202.58C121.503 202.007 120.723 201.72 119.803 201.72H119.683V201.36H119.803C121.949 201.36 123.023 200.373 123.023 198.4C123.023 196.453 122.016 195.48 120.003 195.48H118.683V209H117.323V195ZM130.155 209V195H131.515V209H130.155ZM147.877 207.28L147.757 208.5C147.384 208.66 146.931 208.8 146.397 208.92C145.864 209.04 145.324 209.127 144.777 209.18C144.231 209.247 143.744 209.28 143.317 209.28C142.237 209.28 141.237 209.1 140.317 208.74C139.397 208.367 138.591 207.853 137.897 207.2C137.217 206.547 136.684 205.78 136.297 204.9C135.911 204.007 135.717 203.04 135.717 202C135.717 200.96 135.911 200 136.297 199.12C136.684 198.227 137.217 197.453 137.897 196.8C138.591 196.147 139.397 195.64 140.317 195.28C141.237 194.907 142.237 194.72 143.317 194.72C143.757 194.72 144.251 194.753 144.797 194.82C145.344 194.887 145.877 194.98 146.397 195.1C146.917 195.207 147.357 195.333 147.717 195.48L147.617 196.6H147.497C147.004 196.147 146.384 195.8 145.637 195.56C144.891 195.32 144.117 195.2 143.317 195.2C142.117 195.2 141.057 195.487 140.137 196.06C139.231 196.62 138.517 197.413 137.997 198.44C137.491 199.453 137.237 200.64 137.237 202C137.237 203.373 137.491 204.567 137.997 205.58C138.517 206.593 139.231 207.387 140.137 207.96C141.044 208.52 142.104 208.8 143.317 208.8C144.224 208.8 145.064 208.653 145.837 208.36C146.624 208.067 147.264 207.707 147.757 207.28H147.877ZM151.873 209V195H153.233V209H151.873ZM158.136 209L158.636 194.72H158.876L168.936 206.88H169.056L168.616 195H169.976L169.476 209.28H169.236L159.176 197.12H159.056L159.496 209H158.136ZM181.861 202.36V201.88H186.921V207.32C186.308 207.933 185.555 208.413 184.661 208.76C183.781 209.107 182.795 209.28 181.701 209.28C180.581 209.28 179.548 209.1 178.601 208.74C177.655 208.367 176.828 207.853 176.121 207.2C175.415 206.533 174.861 205.76 174.461 204.88C174.075 204 173.881 203.04 173.881 202C173.881 200.96 174.075 200 174.461 199.12C174.861 198.24 175.415 197.473 176.121 196.82C176.828 196.153 177.655 195.64 178.601 195.28C179.548 194.907 180.581 194.72 181.701 194.72C182.181 194.72 182.701 194.753 183.261 194.82C183.835 194.887 184.381 194.98 184.901 195.1C185.421 195.207 185.861 195.34 186.221 195.5L186.121 196.62H186.001C185.468 196.153 184.828 195.8 184.081 195.56C183.335 195.32 182.541 195.2 181.701 195.2C180.448 195.2 179.348 195.487 178.401 196.06C177.455 196.62 176.715 197.413 176.181 198.44C175.661 199.453 175.401 200.64 175.401 202C175.401 203.36 175.661 204.553 176.181 205.58C176.715 206.593 177.455 207.387 178.401 207.96C179.348 208.52 180.448 208.8 181.701 208.8C182.475 208.8 183.188 208.693 183.841 208.48C184.508 208.267 185.081 207.96 185.561 207.56V202.36H181.861ZM195.693 208.56L195.813 207.36H195.933C196.453 207.813 197.039 208.167 197.693 208.42C198.346 208.673 198.993 208.8 199.633 208.8C200.539 208.8 201.273 208.553 201.833 208.06C202.393 207.553 202.673 206.88 202.673 206.04C202.673 205.573 202.566 205.14 202.353 204.74C202.153 204.34 201.813 203.933 201.333 203.52C200.866 203.107 200.219 202.66 199.393 202.18C198.819 201.847 198.273 201.5 197.753 201.14C197.233 200.767 196.806 200.34 196.473 199.86C196.139 199.367 195.973 198.78 195.973 198.1C195.973 197.087 196.339 196.273 197.073 195.66C197.806 195.033 198.773 194.72 199.973 194.72C200.506 194.72 201.079 194.78 201.693 194.9C202.306 195.007 202.779 195.147 203.113 195.32L203.013 196.44H202.893C202.133 195.613 201.159 195.2 199.973 195.2C199.119 195.2 198.433 195.42 197.913 195.86C197.393 196.287 197.133 196.867 197.133 197.6C197.133 198.147 197.273 198.62 197.553 199.02C197.846 199.407 198.219 199.76 198.673 200.08C199.126 200.387 199.613 200.687 200.133 200.98C200.733 201.327 201.313 201.693 201.873 202.08C202.446 202.467 202.913 202.933 203.273 203.48C203.646 204.013 203.833 204.687 203.833 205.5C203.833 206.247 203.659 206.907 203.313 207.48C202.966 208.04 202.473 208.48 201.833 208.8C201.206 209.12 200.473 209.28 199.633 209.28C199.099 209.28 198.473 209.213 197.753 209.08C197.033 208.947 196.346 208.773 195.693 208.56ZM210.772 209V203.08L205.812 195H207.332L211.792 202.32H211.912L215.472 195H216.992L212.212 202.8V209H210.772ZM218.896 208.56L219.016 207.36H219.136C219.656 207.813 220.242 208.167 220.896 208.42C221.549 208.673 222.196 208.8 222.836 208.8C223.742 208.8 224.476 208.553 225.036 208.06C225.596 207.553 225.876 206.88 225.876 206.04C225.876 205.573 225.769 205.14 225.556 204.74C225.356 204.34 225.016 203.933 224.536 203.52C224.069 203.107 223.422 202.66 222.596 202.18C222.022 201.847 221.476 201.5 220.956 201.14C220.436 200.767 220.009 200.34 219.676 199.86C219.342 199.367 219.176 198.78 219.176 198.1C219.176 197.087 219.542 196.273 220.276 195.66C221.009 195.033 221.976 194.72 223.176 194.72C223.709 194.72 224.282 194.78 224.896 194.9C225.509 195.007 225.982 195.147 226.316 195.32L226.216 196.44H226.096C225.336 195.613 224.362 195.2 223.176 195.2C222.322 195.2 221.636 195.42 221.116 195.86C220.596 196.287 220.336 196.867 220.336 197.6C220.336 198.147 220.476 198.62 220.756 199.02C221.049 199.407 221.422 199.76 221.876 200.08C222.329 200.387 222.816 200.687 223.336 200.98C223.936 201.327 224.516 201.693 225.076 202.08C225.649 202.467 226.116 202.933 226.476 203.48C226.849 204.013 227.036 204.687 227.036 205.5C227.036 206.247 226.862 206.907 226.516 207.48C226.169 208.04 225.676 208.48 225.036 208.8C224.409 209.12 223.676 209.28 222.836 209.28C222.302 209.28 221.676 209.213 220.956 209.08C220.236 208.947 219.549 208.773 218.896 208.56ZM233.784 209V195.4C233.584 195.4 233.171 195.44 232.544 195.52L228.624 196.02V195H240.304V196.02L236.384 195.52C235.758 195.44 235.344 195.4 235.144 195.4V209H233.784ZM243.553 209V195H249.653V195.98L246.153 195.52C245.54 195.44 245.126 195.4 244.913 195.4V201.5C245.086 201.5 245.5 201.48 246.153 201.44L249.433 201.24V202.16L246.153 201.96C245.5 201.92 245.086 201.9 244.913 201.9V208.6C245.153 208.6 245.573 208.56 246.173 208.48L249.713 208.02V209H243.553ZM267.085 195V209H265.725V196.16H265.605L260.765 205.44H260.145L254.645 197.26H254.525L254.965 209H253.605L254.105 194.72H254.505L260.805 204.08H260.925L265.645 195H267.085Z" fill="white"/>
<path d="M87.6584 285.796L87.5744 286.65C87.313 286.762 86.9957 286.86 86.6224 286.944C86.249 287.028 85.871 287.089 85.4884 287.126C85.1057 287.173 84.765 287.196 84.4664 287.196C83.7104 287.196 83.0104 287.07 82.3664 286.818C81.7224 286.557 81.1577 286.197 80.6724 285.74C80.1964 285.283 79.823 284.746 79.5524 284.13C79.2817 283.505 79.1464 282.828 79.1464 282.1C79.1464 281.372 79.2817 280.7 79.5524 280.084C79.823 279.459 80.1964 278.917 80.6724 278.46C81.1577 278.003 81.7224 277.648 82.3664 277.396C83.0104 277.135 83.7104 277.004 84.4664 277.004C84.7744 277.004 85.1197 277.027 85.5024 277.074C85.885 277.121 86.2584 277.186 86.6224 277.27C86.9864 277.345 87.2944 277.433 87.5464 277.536L87.4764 278.32H87.3924C87.047 278.003 86.613 277.76 86.0904 277.592C85.5677 277.424 85.0264 277.34 84.4664 277.34C83.6264 277.34 82.8844 277.541 82.2404 277.942C81.6057 278.334 81.1064 278.889 80.7424 279.608C80.3877 280.317 80.2104 281.148 80.2104 282.1C80.2104 283.061 80.3877 283.897 80.7424 284.606C81.1064 285.315 81.6057 285.871 82.2404 286.272C82.875 286.664 83.617 286.86 84.4664 286.86C85.101 286.86 85.689 286.757 86.2304 286.552C86.781 286.347 87.229 286.095 87.5744 285.796H87.6584ZM89.4823 282.1C89.4823 281.381 89.6083 280.714 89.8603 280.098C90.1216 279.473 90.481 278.931 90.9383 278.474C91.405 278.007 91.9463 277.648 92.5623 277.396C93.1876 277.135 93.8596 277.004 94.5783 277.004C95.297 277.004 95.9643 277.135 96.5803 277.396C97.2056 277.648 97.747 278.007 98.2043 278.474C98.671 278.931 99.0303 279.473 99.2823 280.098C99.5436 280.714 99.6743 281.381 99.6743 282.1C99.6743 282.819 99.5436 283.491 99.2823 284.116C99.0303 284.732 98.671 285.273 98.2043 285.74C97.747 286.197 97.2056 286.557 96.5803 286.818C95.9643 287.07 95.297 287.196 94.5783 287.196C93.8596 287.196 93.1876 287.07 92.5623 286.818C91.9463 286.557 91.405 286.197 90.9383 285.74C90.481 285.273 90.1216 284.732 89.8603 284.116C89.6083 283.491 89.4823 282.819 89.4823 282.1ZM90.5463 282.1C90.5463 283.052 90.7143 283.887 91.0503 284.606C91.3863 285.315 91.8576 285.871 92.4643 286.272C93.071 286.664 93.7756 286.86 94.5783 286.86C95.381 286.86 96.0856 286.664 96.6923 286.272C97.299 285.871 97.7703 285.311 98.1063 284.592C98.4423 283.873 98.6103 283.043 98.6103 282.1C98.6103 281.157 98.4423 280.331 98.1063 279.622C97.7703 278.903 97.299 278.343 96.6923 277.942C96.0856 277.541 95.381 277.34 94.5783 277.34C93.7756 277.34 93.071 277.541 92.4643 277.942C91.867 278.334 91.3956 278.889 91.0503 279.608C90.7143 280.317 90.5463 281.148 90.5463 282.1ZM102.4 287L102.75 277.004H102.918L109.96 285.516H110.044L109.736 277.2H110.688L110.338 287.196H110.17L103.128 278.684H103.044L103.352 287H102.4ZM121.934 285.796L121.85 286.65C121.588 286.762 121.271 286.86 120.898 286.944C120.524 287.028 120.146 287.089 119.764 287.126C119.381 287.173 119.04 287.196 118.742 287.196C117.986 287.196 117.286 287.07 116.642 286.818C115.998 286.557 115.433 286.197 114.948 285.74C114.472 285.283 114.098 284.746 113.828 284.13C113.557 283.505 113.422 282.828 113.422 282.1C113.422 281.372 113.557 280.7 113.828 280.084C114.098 279.459 114.472 278.917 114.948 278.46C115.433 278.003 115.998 277.648 116.642 277.396C117.286 277.135 117.986 277.004 118.742 277.004C119.05 277.004 119.395 277.027 119.778 277.074C120.16 277.121 120.534 277.186 120.898 277.27C121.262 277.345 121.57 277.433 121.822 277.536L121.752 278.32H121.668C121.322 278.003 120.888 277.76 120.366 277.592C119.843 277.424 119.302 277.34 118.742 277.34C117.902 277.34 117.16 277.541 116.516 277.942C115.881 278.334 115.382 278.889 115.018 279.608C114.663 280.317 114.486 281.148 114.486 282.1C114.486 283.061 114.663 283.897 115.018 284.606C115.382 285.315 115.881 285.871 116.516 286.272C117.15 286.664 117.892 286.86 118.742 286.86C119.376 286.86 119.964 286.757 120.506 286.552C121.056 286.347 121.504 286.095 121.85 285.796H121.934ZM124.731 287V277.2H129.001V277.886L126.551 277.564C126.122 277.508 125.832 277.48 125.683 277.48V281.75C125.804 281.75 126.094 281.736 126.551 281.708L128.847 281.568V282.212L126.551 282.072C126.094 282.044 125.804 282.03 125.683 282.03V286.72C125.851 286.72 126.145 286.692 126.565 286.636L129.043 286.314V287H124.731ZM131.977 287V277.2H133.727C134.857 277.2 135.734 277.443 136.359 277.928C136.985 278.404 137.297 279.071 137.297 279.93C137.297 280.789 136.985 281.461 136.359 281.946C135.734 282.422 134.857 282.66 133.727 282.66H132.929V287H131.977ZM133.727 277.536H132.929V282.324H133.727C135.435 282.324 136.289 281.526 136.289 279.93C136.289 278.334 135.435 277.536 133.727 277.536ZM142.202 287V277.48C142.062 277.48 141.772 277.508 141.334 277.564L138.59 277.914V277.2H146.766V277.914L144.022 277.564C143.583 277.508 143.294 277.48 143.154 277.48V287H142.202ZM152.813 287V277.2H154.563C155.692 277.2 156.57 277.443 157.195 277.928C157.82 278.404 158.133 279.071 158.133 279.93C158.133 280.789 157.82 281.461 157.195 281.946C156.57 282.422 155.692 282.66 154.563 282.66H153.765V287H152.813ZM154.563 277.536H153.765V282.324H154.563C156.271 282.324 157.125 281.526 157.125 279.93C157.125 278.334 156.271 277.536 154.563 277.536ZM160.798 277.2H162.674C163.663 277.2 164.428 277.41 164.97 277.83C165.52 278.241 165.796 278.819 165.796 279.566C165.796 280.145 165.623 280.625 165.278 281.008C164.942 281.391 164.452 281.647 163.808 281.778V281.862C164.424 281.983 164.928 282.273 165.32 282.73C165.712 283.187 166.006 283.752 166.202 284.424C166.379 285.04 166.552 285.521 166.72 285.866C166.897 286.202 167.088 286.445 167.294 286.594C167.508 286.743 167.76 286.851 168.05 286.916V287H167.476C167.065 287 166.724 286.925 166.454 286.776C166.192 286.627 165.968 286.375 165.782 286.02C165.595 285.665 165.418 285.175 165.25 284.55C164.979 283.589 164.62 282.907 164.172 282.506C163.724 282.105 163.178 281.904 162.534 281.904H162.45V281.652H162.534C164.036 281.652 164.788 280.961 164.788 279.58C164.788 278.217 164.083 277.536 162.674 277.536H161.75V287H160.798V277.2ZM168.807 282.1C168.807 281.381 168.933 280.714 169.185 280.098C169.446 279.473 169.805 278.931 170.263 278.474C170.729 278.007 171.271 277.648 171.887 277.396C172.512 277.135 173.184 277.004 173.903 277.004C174.621 277.004 175.289 277.135 175.905 277.396C176.53 277.648 177.071 278.007 177.529 278.474C177.995 278.931 178.355 279.473 178.607 280.098C178.868 280.714 178.999 281.381 178.999 282.1C178.999 282.819 178.868 283.491 178.607 284.116C178.355 284.732 177.995 285.273 177.529 285.74C177.071 286.197 176.53 286.557 175.905 286.818C175.289 287.07 174.621 287.196 173.903 287.196C173.184 287.196 172.512 287.07 171.887 286.818C171.271 286.557 170.729 286.197 170.263 285.74C169.805 285.273 169.446 284.732 169.185 284.116C168.933 283.491 168.807 282.819 168.807 282.1ZM169.871 282.1C169.871 283.052 170.039 283.887 170.375 284.606C170.711 285.315 171.182 285.871 171.789 286.272C172.395 286.664 173.1 286.86 173.903 286.86C174.705 286.86 175.41 286.664 176.017 286.272C176.623 285.871 177.095 285.311 177.431 284.592C177.767 283.873 177.935 283.043 177.935 282.1C177.935 281.157 177.767 280.331 177.431 279.622C177.095 278.903 176.623 278.343 176.017 277.942C175.41 277.541 174.705 277.34 173.903 277.34C173.1 277.34 172.395 277.541 171.789 277.942C171.191 278.334 170.72 278.889 170.375 279.608C170.039 280.317 169.871 281.148 169.871 282.1ZM181.934 286.132V277.2H182.886V286.048C182.886 287.224 182.723 288.139 182.396 288.792C182.07 289.445 181.57 289.921 180.898 290.22L180.856 290.15C181.23 289.889 181.5 289.445 181.668 288.82C181.846 288.204 181.934 287.308 181.934 286.132ZM186.528 287V277.2H190.798V277.886L188.348 277.564C187.919 277.508 187.629 277.48 187.48 277.48V281.75C187.601 281.75 187.891 281.736 188.348 281.708L190.644 281.568V282.212L188.348 282.072C187.891 282.044 187.601 282.03 187.48 282.03V286.72C187.648 286.72 187.942 286.692 188.362 286.636L190.84 286.314V287H186.528ZM201.586 285.796L201.502 286.65C201.241 286.762 200.923 286.86 200.55 286.944C200.177 287.028 199.799 287.089 199.416 287.126C199.033 287.173 198.693 287.196 198.394 287.196C197.638 287.196 196.938 287.07 196.294 286.818C195.65 286.557 195.085 286.197 194.6 285.74C194.124 285.283 193.751 284.746 193.48 284.13C193.209 283.505 193.074 282.828 193.074 282.1C193.074 281.372 193.209 280.7 193.48 280.084C193.751 279.459 194.124 278.917 194.6 278.46C195.085 278.003 195.65 277.648 196.294 277.396C196.938 277.135 197.638 277.004 198.394 277.004C198.702 277.004 199.047 277.027 199.43 277.074C199.813 277.121 200.186 277.186 200.55 277.27C200.914 277.345 201.222 277.433 201.474 277.536L201.404 278.32H201.32C200.975 278.003 200.541 277.76 200.018 277.592C199.495 277.424 198.954 277.34 198.394 277.34C197.554 277.34 196.812 277.541 196.168 277.942C195.533 278.334 195.034 278.889 194.67 279.608C194.315 280.317 194.138 281.148 194.138 282.1C194.138 283.061 194.315 283.897 194.67 284.606C195.034 285.315 195.533 285.871 196.168 286.272C196.803 286.664 197.545 286.86 198.394 286.86C199.029 286.86 199.617 286.757 200.158 286.552C200.709 286.347 201.157 286.095 201.502 285.796H201.586ZM206.623 287V277.48C206.483 277.48 206.194 277.508 205.755 277.564L203.011 277.914V277.2H211.187V277.914L208.443 277.564C208.005 277.508 207.715 277.48 207.575 277.48V287H206.623ZM217.235 287V277.2H219.181C220.189 277.2 220.973 277.41 221.533 277.83C222.093 278.25 222.373 278.833 222.373 279.58C222.373 280.131 222.21 280.602 221.883 280.994C221.556 281.377 221.099 281.638 220.511 281.778V281.862C221.314 281.965 221.939 282.245 222.387 282.702C222.844 283.15 223.073 283.719 223.073 284.41C223.073 285.222 222.76 285.857 222.135 286.314C221.51 286.771 220.632 287 219.503 287H217.235ZM219.195 277.536H218.187V281.736H219.181C220.656 281.736 221.393 281.036 221.393 279.636C221.393 278.236 220.66 277.536 219.195 277.536ZM219.503 282.072H218.187V286.664H219.503C221.211 286.664 222.065 285.899 222.065 284.368C222.065 282.837 221.211 282.072 219.503 282.072ZM227.442 287V282.856L223.97 277.2H225.034L228.156 282.324H228.24L230.732 277.2H231.796L228.45 282.66V287H227.442ZM237.757 287V277.2H238.709V281.736H244.589V277.2H245.541V287H244.589V282.072H238.709V287H237.757ZM249.186 287V277.2H253.456V277.886L251.006 277.564C250.577 277.508 250.288 277.48 250.138 277.48V281.75C250.26 281.75 250.549 281.736 251.006 281.708L253.302 281.568V282.212L251.006 282.072C250.549 282.044 250.26 282.03 250.138 282.03V286.72C250.306 286.72 250.6 286.692 251.02 286.636L253.498 286.314V287H249.186ZM261.318 282.352V282.016H264.86V285.824C264.431 286.253 263.904 286.589 263.278 286.832C262.662 287.075 261.972 287.196 261.206 287.196C260.422 287.196 259.699 287.07 259.036 286.818C258.374 286.557 257.795 286.197 257.3 285.74C256.806 285.273 256.418 284.732 256.138 284.116C255.868 283.5 255.732 282.828 255.732 282.1C255.732 281.372 255.868 280.7 256.138 280.084C256.418 279.468 256.806 278.931 257.3 278.474C257.795 278.007 258.374 277.648 259.036 277.396C259.699 277.135 260.422 277.004 261.206 277.004C261.542 277.004 261.906 277.027 262.298 277.074C262.7 277.121 263.082 277.186 263.446 277.27C263.81 277.345 264.118 277.438 264.37 277.55L264.3 278.334H264.216C263.843 278.007 263.395 277.76 262.872 277.592C262.35 277.424 261.794 277.34 261.206 277.34C260.329 277.34 259.559 277.541 258.896 277.942C258.234 278.334 257.716 278.889 257.342 279.608C256.978 280.317 256.796 281.148 256.796 282.1C256.796 283.052 256.978 283.887 257.342 284.606C257.716 285.315 258.234 285.871 258.896 286.272C259.559 286.664 260.329 286.86 261.206 286.86C261.748 286.86 262.247 286.785 262.704 286.636C263.171 286.487 263.572 286.272 263.908 285.992V282.352H261.318ZM267.381 282.1C267.381 281.381 267.507 280.714 267.759 280.098C268.02 279.473 268.379 278.931 268.837 278.474C269.303 278.007 269.845 277.648 270.461 277.396C271.086 277.135 271.758 277.004 272.477 277.004C273.195 277.004 273.863 277.135 274.479 277.396C275.104 277.648 275.645 278.007 276.103 278.474C276.569 278.931 276.929 279.473 277.181 280.098C277.442 280.714 277.573 281.381 277.573 282.1C277.573 282.819 277.442 283.491 277.181 284.116C276.929 284.732 276.569 285.273 276.103 285.74C275.645 286.197 275.104 286.557 274.479 286.818C273.863 287.07 273.195 287.196 272.477 287.196C271.758 287.196 271.086 287.07 270.461 286.818C269.845 286.557 269.303 286.197 268.837 285.74C268.379 285.273 268.02 284.732 267.759 284.116C267.507 283.491 267.381 282.819 267.381 282.1ZM268.445 282.1C268.445 283.052 268.613 283.887 268.949 284.606C269.285 285.315 269.756 285.871 270.363 286.272C270.969 286.664 271.674 286.86 272.477 286.86C273.279 286.86 273.984 286.664 274.591 286.272C275.197 285.871 275.669 285.311 276.005 284.592C276.341 283.873 276.509 283.043 276.509 282.1C276.509 281.157 276.341 280.331 276.005 279.622C275.669 278.903 275.197 278.343 274.591 277.942C273.984 277.541 273.279 277.34 272.477 277.34C271.674 277.34 270.969 277.541 270.363 277.942C269.765 278.334 269.294 278.889 268.949 279.608C268.613 280.317 268.445 281.148 268.445 282.1ZM280.508 277.2H281.46V286.72C281.638 286.72 281.918 286.692 282.3 286.636L284.624 286.286V287H280.508V277.2ZM293.192 287H285.772V286.72L292.016 277.48C291.866 277.48 291.526 277.499 290.994 277.536L286.136 277.886V277.2H293.136V277.48L286.892 286.72C287.05 286.72 287.391 286.701 287.914 286.664L293.192 286.286V287Z" fill="#FFFEFE"/>
</svg>
