<svg width="371" height="321" viewBox="0 0 371 321" fill="none" xmlns="http://www.w3.org/2000/svg">
<rect width="371" height="321" fill="black"/>
<path d="M84.9688 99.4688H104.25V120.875L84.9688 99.4688ZM64.5625 112.031H64.375C64.375 107.74 65.5417 104.573 67.875 102.531C70.2083 100.49 73.8021 99.4688 78.6562 99.4688L104.25 130.531C104.25 134.656 103.135 137.604 100.906 139.375C98.7396 141.104 95.1979 141.969 90.2812 141.969L64.5625 112.031ZM64.4688 120.469L83.0312 142H64.4688V120.469ZM149.406 99.4688H163.406V117.125H159.906C157.615 117.125 155.927 116.885 154.844 116.406C153.76 115.906 152.906 115.354 152.281 114.75C151.677 114.125 151.156 113.312 150.719 112.312C149.844 110.271 149.406 107.438 149.406 103.812V99.4688ZM129.188 99.4688H146V142H129.188V99.4688ZM111.688 99.4688H125.688V103.812C125.688 109.167 124.719 112.812 122.781 114.75C121.198 116.333 118.667 117.125 115.188 117.125H111.688V99.4688ZM193.344 99.4688H195.781C203.51 99.4688 208.615 102.917 211.094 109.812C212.094 112.646 212.594 115.906 212.594 119.594C212.594 125.802 211.396 130.917 209 134.938C206.167 139.646 201.76 142 195.781 142H193.344V99.4688ZM185.812 142C178.125 142 173.031 138.104 170.531 130.312C169.51 127.146 169 123.573 169 119.594C169 111.49 171.25 105.771 175.75 102.438C178.396 100.458 181.75 99.4688 185.812 99.4688H188.25V142H185.812ZM258.312 112.688C258.312 118.979 255.562 123.115 250.062 125.094C253.146 126.24 255.469 128.104 257.031 130.688C258.385 132.979 259.062 135.646 259.062 138.688V142H240.438V99.4062H242.062C247.562 99.4062 251.615 100.448 254.219 102.531C256.948 104.719 258.312 108.104 258.312 112.688ZM218.438 99.4688H235.25V142H218.438V99.4688ZM289.125 99.4688H306.469V111.281H303.219C297.573 111.281 293.719 110.396 291.656 108.625C289.969 107.167 289.125 104.812 289.125 101.562V99.4688ZM266.906 99.4688H283.719V116.594H296.25V124.75H283.719V141.938H266.906V99.4688ZM289.094 138.969C289.094 134.656 291.594 131.729 296.594 130.188C298.51 129.604 300.979 129.312 304 129.312H306.469V142H289.094V138.969Z" fill="white"/>
<path d="M77.9477 190V176H80.4477C82.061 176 83.3143 176.347 84.2077 177.04C85.101 177.72 85.5477 178.673 85.5477 179.9C85.5477 181.127 85.101 182.087 84.2077 182.78C83.3143 183.46 82.061 183.8 80.4477 183.8H79.3077V190H77.9477ZM80.4477 176.48H79.3077V183.32H80.4477C82.8877 183.32 84.1077 182.18 84.1077 179.9C84.1077 177.62 82.8877 176.48 80.4477 176.48ZM89.3539 176H92.0339C93.4472 176 94.5406 176.3 95.3139 176.9C96.1006 177.487 96.4939 178.313 96.4939 179.38C96.4939 180.207 96.2472 180.893 95.7539 181.44C95.2739 181.987 94.5739 182.353 93.6539 182.54V182.66C94.5339 182.833 95.2539 183.247 95.8139 183.9C96.3739 184.553 96.7939 185.36 97.0739 186.32C97.3272 187.2 97.5739 187.887 97.8139 188.38C98.0672 188.86 98.3406 189.207 98.6339 189.42C98.9406 189.633 99.3006 189.787 99.7139 189.88V190H98.8939C98.3072 190 97.8206 189.893 97.4339 189.68C97.0606 189.467 96.7406 189.107 96.4739 188.6C96.2072 188.093 95.9539 187.393 95.7139 186.5C95.3272 185.127 94.8139 184.153 94.1739 183.58C93.5339 183.007 92.7539 182.72 91.8339 182.72H91.7139V182.36H91.8339C93.9806 182.36 95.0539 181.373 95.0539 179.4C95.0539 177.453 94.0472 176.48 92.0339 176.48H90.7139V190H89.3539V176ZM100.795 183C100.795 181.973 100.975 181.02 101.335 180.14C101.709 179.247 102.222 178.473 102.875 177.82C103.542 177.153 104.315 176.64 105.195 176.28C106.089 175.907 107.049 175.72 108.075 175.72C109.102 175.72 110.055 175.907 110.935 176.28C111.829 176.64 112.602 177.153 113.255 177.82C113.922 178.473 114.435 179.247 114.795 180.14C115.169 181.02 115.355 181.973 115.355 183C115.355 184.027 115.169 184.987 114.795 185.88C114.435 186.76 113.922 187.533 113.255 188.2C112.602 188.853 111.829 189.367 110.935 189.74C110.055 190.1 109.102 190.28 108.075 190.28C107.049 190.28 106.089 190.1 105.195 189.74C104.315 189.367 103.542 188.853 102.875 188.2C102.222 187.533 101.709 186.76 101.335 185.88C100.975 184.987 100.795 184.027 100.795 183ZM102.315 183C102.315 184.36 102.555 185.553 103.035 186.58C103.515 187.593 104.189 188.387 105.055 188.96C105.922 189.52 106.929 189.8 108.075 189.8C109.222 189.8 110.229 189.52 111.095 188.96C111.962 188.387 112.635 187.587 113.115 186.56C113.595 185.533 113.835 184.347 113.835 183C113.835 181.653 113.595 180.473 113.115 179.46C112.635 178.433 111.962 177.633 111.095 177.06C110.229 176.487 109.222 176.2 108.075 176.2C106.929 176.2 105.922 176.487 105.055 177.06C104.202 177.62 103.529 178.413 103.035 179.44C102.555 180.453 102.315 181.64 102.315 183ZM119.549 190V176H123.949C125.496 176 126.843 176.293 127.989 176.88C129.136 177.467 130.029 178.287 130.669 179.34C131.309 180.38 131.629 181.6 131.629 183C131.629 184.4 131.309 185.627 130.669 186.68C130.029 187.72 129.136 188.533 127.989 189.12C126.843 189.707 125.496 190 123.949 190H119.549ZM123.949 176.48H120.909V189.52H123.949C125.883 189.52 127.389 188.947 128.469 187.8C129.563 186.653 130.109 185.053 130.109 183C130.109 180.947 129.563 179.347 128.469 178.2C127.389 177.053 125.883 176.48 123.949 176.48ZM135.638 176H136.998V184.44C136.998 186.053 137.392 187.313 138.178 188.22C138.978 189.113 140.098 189.56 141.538 189.56C142.445 189.56 143.232 189.387 143.898 189.04C144.578 188.68 145.098 188.187 145.458 187.56C145.832 186.933 146.005 186.213 145.978 185.4L145.638 176H146.998L146.658 185.4C146.605 187 146.125 188.213 145.218 189.04C144.325 189.867 143.045 190.28 141.378 190.28C139.578 190.28 138.172 189.76 137.158 188.72C136.145 187.667 135.638 186.227 135.638 184.4V176ZM162.955 188.28L162.835 189.5C162.462 189.66 162.009 189.8 161.475 189.92C160.942 190.04 160.402 190.127 159.855 190.18C159.309 190.247 158.822 190.28 158.395 190.28C157.315 190.28 156.315 190.1 155.395 189.74C154.475 189.367 153.669 188.853 152.975 188.2C152.295 187.547 151.762 186.78 151.375 185.9C150.989 185.007 150.795 184.04 150.795 183C150.795 181.96 150.989 181 151.375 180.12C151.762 179.227 152.295 178.453 152.975 177.8C153.669 177.147 154.475 176.64 155.395 176.28C156.315 175.907 157.315 175.72 158.395 175.72C158.835 175.72 159.329 175.753 159.875 175.82C160.422 175.887 160.955 175.98 161.475 176.1C161.995 176.207 162.435 176.333 162.795 176.48L162.695 177.6H162.575C162.082 177.147 161.462 176.8 160.715 176.56C159.969 176.32 159.195 176.2 158.395 176.2C157.195 176.2 156.135 176.487 155.215 177.06C154.309 177.62 153.595 178.413 153.075 179.44C152.569 180.453 152.315 181.64 152.315 183C152.315 184.373 152.569 185.567 153.075 186.58C153.595 187.593 154.309 188.387 155.215 188.96C156.122 189.52 157.182 189.8 158.395 189.8C159.302 189.8 160.142 189.653 160.915 189.36C161.702 189.067 162.342 188.707 162.835 188.28H162.955ZM170.152 190V176.4C169.952 176.4 169.538 176.44 168.912 176.52L164.992 177.02V176H176.672V177.02L172.752 176.52C172.125 176.44 171.712 176.4 171.512 176.4V190H170.152ZM184.091 189.56L184.211 188.36H184.331C184.851 188.813 185.438 189.167 186.091 189.42C186.744 189.673 187.391 189.8 188.031 189.8C188.938 189.8 189.671 189.553 190.231 189.06C190.791 188.553 191.071 187.88 191.071 187.04C191.071 186.573 190.964 186.14 190.751 185.74C190.551 185.34 190.211 184.933 189.731 184.52C189.264 184.107 188.618 183.66 187.791 183.18C187.218 182.847 186.671 182.5 186.151 182.14C185.631 181.767 185.204 181.34 184.871 180.86C184.538 180.367 184.371 179.78 184.371 179.1C184.371 178.087 184.738 177.273 185.471 176.66C186.204 176.033 187.171 175.72 188.371 175.72C188.904 175.72 189.478 175.78 190.091 175.9C190.704 176.007 191.178 176.147 191.511 176.32L191.411 177.44H191.291C190.531 176.613 189.558 176.2 188.371 176.2C187.518 176.2 186.831 176.42 186.311 176.86C185.791 177.287 185.531 177.867 185.531 178.6C185.531 179.147 185.671 179.62 185.951 180.02C186.244 180.407 186.618 180.76 187.071 181.08C187.524 181.387 188.011 181.687 188.531 181.98C189.131 182.327 189.711 182.693 190.271 183.08C190.844 183.467 191.311 183.933 191.671 184.48C192.044 185.013 192.231 185.687 192.231 186.5C192.231 187.247 192.058 187.907 191.711 188.48C191.364 189.04 190.871 189.48 190.231 189.8C189.604 190.12 188.871 190.28 188.031 190.28C187.498 190.28 186.871 190.213 186.151 190.08C185.431 189.947 184.744 189.773 184.091 189.56ZM196.17 190V176H202.27V176.98L198.77 176.52C198.157 176.44 197.744 176.4 197.53 176.4V182.5C197.704 182.5 198.117 182.48 198.77 182.44L202.05 182.24V183.16L198.77 182.96C198.117 182.92 197.704 182.9 197.53 182.9V189.6C197.77 189.6 198.19 189.56 198.79 189.48L202.33 189.02V190H196.17ZM206.522 176H207.882V189.6C208.135 189.6 208.535 189.56 209.082 189.48L212.402 188.98V190H206.522V176ZM215.741 190V176H221.841V176.98L218.341 176.52C217.727 176.44 217.314 176.4 217.101 176.4V182.5C217.274 182.5 217.687 182.48 218.341 182.44L221.621 182.24V183.16L218.341 182.96C217.687 182.92 217.274 182.9 217.101 182.9V189.6C217.341 189.6 217.761 189.56 218.361 189.48L221.901 189.02V190H215.741ZM237.252 188.28L237.132 189.5C236.759 189.66 236.306 189.8 235.772 189.92C235.239 190.04 234.699 190.127 234.152 190.18C233.606 190.247 233.119 190.28 232.692 190.28C231.612 190.28 230.612 190.1 229.692 189.74C228.772 189.367 227.966 188.853 227.272 188.2C226.592 187.547 226.059 186.78 225.672 185.9C225.286 185.007 225.092 184.04 225.092 183C225.092 181.96 225.286 181 225.672 180.12C226.059 179.227 226.592 178.453 227.272 177.8C227.966 177.147 228.772 176.64 229.692 176.28C230.612 175.907 231.612 175.72 232.692 175.72C233.132 175.72 233.626 175.753 234.172 175.82C234.719 175.887 235.252 175.98 235.772 176.1C236.292 176.207 236.732 176.333 237.092 176.48L236.992 177.6H236.872C236.379 177.147 235.759 176.8 235.012 176.56C234.266 176.32 233.492 176.2 232.692 176.2C231.492 176.2 230.432 176.487 229.512 177.06C228.606 177.62 227.892 178.413 227.372 179.44C226.866 180.453 226.612 181.64 226.612 183C226.612 184.373 226.866 185.567 227.372 186.58C227.892 187.593 228.606 188.387 229.512 188.96C230.419 189.52 231.479 189.8 232.692 189.8C233.599 189.8 234.439 189.653 235.212 189.36C235.999 189.067 236.639 188.707 237.132 188.28H237.252ZM244.448 190V176.4C244.248 176.4 243.835 176.44 243.208 176.52L239.288 177.02V176H250.968V177.02L247.048 176.52C246.422 176.44 246.008 176.4 245.808 176.4V190H244.448ZM254.217 190V176H255.577V190H254.217ZM259.78 183C259.78 181.973 259.96 181.02 260.32 180.14C260.693 179.247 261.206 178.473 261.86 177.82C262.526 177.153 263.3 176.64 264.18 176.28C265.073 175.907 266.033 175.72 267.06 175.72C268.086 175.72 269.04 175.907 269.92 176.28C270.813 176.64 271.586 177.153 272.24 177.82C272.906 178.473 273.42 179.247 273.78 180.14C274.153 181.02 274.34 181.973 274.34 183C274.34 184.027 274.153 184.987 273.78 185.88C273.42 186.76 272.906 187.533 272.24 188.2C271.586 188.853 270.813 189.367 269.92 189.74C269.04 190.1 268.086 190.28 267.06 190.28C266.033 190.28 265.073 190.1 264.18 189.74C263.3 189.367 262.526 188.853 261.86 188.2C261.206 187.533 260.693 186.76 260.32 185.88C259.96 184.987 259.78 184.027 259.78 183ZM261.3 183C261.3 184.36 261.54 185.553 262.02 186.58C262.5 187.593 263.173 188.387 264.04 188.96C264.906 189.52 265.913 189.8 267.06 189.8C268.206 189.8 269.213 189.52 270.08 188.96C270.946 188.387 271.62 187.587 272.1 186.56C272.58 185.533 272.82 184.347 272.82 183C272.82 181.653 272.58 180.473 272.1 179.46C271.62 178.433 270.946 177.633 270.08 177.06C269.213 176.487 268.206 176.2 267.06 176.2C265.913 176.2 264.906 176.487 264.04 177.06C263.186 177.62 262.513 178.413 262.02 179.44C261.54 180.453 261.3 181.64 261.3 183ZM278.234 190L278.734 175.72H278.974L289.034 187.88H289.154L288.714 176H290.074L289.574 190.28H289.334L279.274 178.12H279.154L279.594 190H278.234ZM293.879 189.16C293.879 188.853 293.979 188.607 294.179 188.42C294.379 188.22 294.639 188.12 294.959 188.12C295.332 188.12 295.612 188.26 295.799 188.54C295.999 188.807 296.099 189.193 296.099 189.7C296.099 190.353 295.932 190.96 295.599 191.52C295.279 192.093 294.826 192.58 294.239 192.98L294.039 192.68C294.959 191.987 295.446 191.013 295.499 189.76C295.339 190.013 295.106 190.14 294.799 190.14C294.519 190.14 294.292 190.047 294.119 189.86C293.959 189.673 293.879 189.44 293.879 189.16ZM71.9299 207.28L71.8099 208.5C71.4366 208.66 70.9833 208.8 70.4499 208.92C69.9166 209.04 69.3766 209.127 68.8299 209.18C68.2833 209.247 67.7966 209.28 67.3699 209.28C66.2899 209.28 65.2899 209.1 64.3699 208.74C63.4499 208.367 62.6433 207.853 61.9499 207.2C61.2699 206.547 60.7366 205.78 60.3499 204.9C59.9633 204.007 59.7699 203.04 59.7699 202C59.7699 200.96 59.9633 200 60.3499 199.12C60.7366 198.227 61.2699 197.453 61.9499 196.8C62.6433 196.147 63.4499 195.64 64.3699 195.28C65.2899 194.907 66.2899 194.72 67.3699 194.72C67.8099 194.72 68.3033 194.753 68.8499 194.82C69.3966 194.887 69.9299 194.98 70.4499 195.1C70.9699 195.207 71.4099 195.333 71.7699 195.48L71.6699 196.6H71.5499C71.0566 196.147 70.4366 195.8 69.6899 195.56C68.9433 195.32 68.1699 195.2 67.3699 195.2C66.1699 195.2 65.1099 195.487 64.1899 196.06C63.2833 196.62 62.5699 197.413 62.0499 198.44C61.5433 199.453 61.2899 200.64 61.2899 202C61.2899 203.373 61.5433 204.567 62.0499 205.58C62.5699 206.593 63.2833 207.387 64.1899 207.96C65.0966 208.52 66.1566 208.8 67.3699 208.8C68.2766 208.8 69.1166 208.653 69.8899 208.36C70.6766 208.067 71.3166 207.707 71.8099 207.28H71.9299ZM73.8462 209L79.2262 195H80.4662L85.8462 209H84.3862L81.9062 202.44H77.3662L75.3062 209H73.8462ZM79.3662 196.04L77.5062 201.96H81.7262L79.4862 196.04H79.3662ZM89.0902 195H91.7702C93.1836 195 94.2769 195.3 95.0502 195.9C95.8369 196.487 96.2302 197.313 96.2302 198.38C96.2302 199.207 95.9836 199.893 95.4902 200.44C95.0102 200.987 94.3102 201.353 93.3902 201.54V201.66C94.2702 201.833 94.9902 202.247 95.5502 202.9C96.1102 203.553 96.5302 204.36 96.8102 205.32C97.0636 206.2 97.3102 206.887 97.5502 207.38C97.8036 207.86 98.0769 208.207 98.3702 208.42C98.6769 208.633 99.0369 208.787 99.4502 208.88V209H98.6302C98.0436 209 97.5569 208.893 97.1702 208.68C96.7969 208.467 96.4769 208.107 96.2102 207.6C95.9436 207.093 95.6902 206.393 95.4502 205.5C95.0636 204.127 94.5502 203.153 93.9102 202.58C93.2702 202.007 92.4902 201.72 91.5702 201.72H91.4502V201.36H91.5702C93.7169 201.36 94.7902 200.373 94.7902 198.4C94.7902 196.453 93.7836 195.48 91.7702 195.48H90.4502V209H89.0902V195ZM104.224 209V195.4C104.024 195.4 103.61 195.44 102.984 195.52L99.0638 196.02V195H110.744V196.02L106.824 195.52C106.197 195.44 105.784 195.4 105.584 195.4V209H104.224ZM128.423 209L126.543 206.96C125.997 207.773 125.403 208.367 124.763 208.74C124.137 209.1 123.39 209.28 122.523 209.28C121.657 209.28 120.897 209.127 120.243 208.82C119.59 208.5 119.083 208.06 118.723 207.5C118.363 206.927 118.183 206.267 118.183 205.52C118.183 204.6 118.457 203.787 119.003 203.08C119.563 202.36 120.363 201.793 121.403 201.38L121.243 201.2C120.63 200.533 120.19 199.933 119.923 199.4C119.657 198.853 119.523 198.293 119.523 197.72C119.523 196.813 119.81 196.087 120.383 195.54C120.957 194.993 121.71 194.72 122.643 194.72C123.55 194.72 124.277 194.973 124.823 195.48C125.383 195.973 125.663 196.633 125.663 197.46C125.663 198.207 125.417 198.9 124.923 199.54C124.443 200.18 123.79 200.713 122.963 201.14L126.883 205.4L128.283 201.68H129.643L127.203 205.74L130.203 209H128.423ZM122.143 200.26L122.683 200.84C123.83 200.08 124.403 199 124.403 197.6C124.403 196.84 124.243 196.253 123.923 195.84C123.617 195.413 123.19 195.2 122.643 195.2C122.097 195.2 121.637 195.407 121.263 195.82C120.903 196.22 120.723 196.753 120.723 197.42C120.723 197.873 120.837 198.327 121.063 198.78C121.29 199.22 121.65 199.713 122.143 200.26ZM119.483 205.36C119.483 206.387 119.783 207.22 120.383 207.86C120.997 208.487 121.79 208.8 122.763 208.8C124.097 208.8 125.25 208.067 126.223 206.6L121.703 201.68C120.223 202.467 119.483 203.693 119.483 205.36ZM149.879 207.28L149.759 208.5C149.386 208.66 148.932 208.8 148.399 208.92C147.866 209.04 147.326 209.127 146.779 209.18C146.232 209.247 145.746 209.28 145.319 209.28C144.239 209.28 143.239 209.1 142.319 208.74C141.399 208.367 140.592 207.853 139.899 207.2C139.219 206.547 138.686 205.78 138.299 204.9C137.912 204.007 137.719 203.04 137.719 202C137.719 200.96 137.912 200 138.299 199.12C138.686 198.227 139.219 197.453 139.899 196.8C140.592 196.147 141.399 195.64 142.319 195.28C143.239 194.907 144.239 194.72 145.319 194.72C145.759 194.72 146.252 194.753 146.799 194.82C147.346 194.887 147.879 194.98 148.399 195.1C148.919 195.207 149.359 195.333 149.719 195.48L149.619 196.6H149.499C149.006 196.147 148.386 195.8 147.639 195.56C146.892 195.32 146.119 195.2 145.319 195.2C144.119 195.2 143.059 195.487 142.139 196.06C141.232 196.62 140.519 197.413 139.999 198.44C139.492 199.453 139.239 200.64 139.239 202C139.239 203.373 139.492 204.567 139.999 205.58C140.519 206.593 141.232 207.387 142.139 207.96C143.046 208.52 144.106 208.8 145.319 208.8C146.226 208.8 147.066 208.653 147.839 208.36C148.626 208.067 149.266 207.707 149.759 207.28H149.879ZM153.875 209V195H155.235V201.48H163.635V195H164.995V209H163.635V201.96H155.235V209H153.875ZM170.204 209V195H176.304V195.98L172.804 195.52C172.19 195.44 171.777 195.4 171.564 195.4V201.5C171.737 201.5 172.15 201.48 172.804 201.44L176.084 201.24V202.16L172.804 201.96C172.15 201.92 171.737 201.9 171.564 201.9V208.6C171.804 208.6 172.224 208.56 172.824 208.48L176.364 208.02V209H170.204ZM191.715 207.28L191.595 208.5C191.222 208.66 190.768 208.8 190.235 208.92C189.702 209.04 189.162 209.127 188.615 209.18C188.068 209.247 187.582 209.28 187.155 209.28C186.075 209.28 185.075 209.1 184.155 208.74C183.235 208.367 182.428 207.853 181.735 207.2C181.055 206.547 180.522 205.78 180.135 204.9C179.748 204.007 179.555 203.04 179.555 202C179.555 200.96 179.748 200 180.135 199.12C180.522 198.227 181.055 197.453 181.735 196.8C182.428 196.147 183.235 195.64 184.155 195.28C185.075 194.907 186.075 194.72 187.155 194.72C187.595 194.72 188.088 194.753 188.635 194.82C189.182 194.887 189.715 194.98 190.235 195.1C190.755 195.207 191.195 195.333 191.555 195.48L191.455 196.6H191.335C190.842 196.147 190.222 195.8 189.475 195.56C188.728 195.32 187.955 195.2 187.155 195.2C185.955 195.2 184.895 195.487 183.975 196.06C183.068 196.62 182.355 197.413 181.835 198.44C181.328 199.453 181.075 200.64 181.075 202C181.075 203.373 181.328 204.567 181.835 205.58C182.355 206.593 183.068 207.387 183.975 207.96C184.882 208.52 185.942 208.8 187.155 208.8C188.062 208.8 188.902 208.653 189.675 208.36C190.462 208.067 191.102 207.707 191.595 207.28H191.715ZM204.351 209L197.791 201.82L203.871 195H205.591L199.011 201.26L206.151 209H204.351ZM195.711 209V195H197.071V209H195.711ZM207.348 202C207.348 200.973 207.528 200.02 207.888 199.14C208.261 198.247 208.775 197.473 209.428 196.82C210.095 196.153 210.868 195.64 211.748 195.28C212.641 194.907 213.601 194.72 214.628 194.72C215.655 194.72 216.608 194.907 217.488 195.28C218.381 195.64 219.155 196.153 219.808 196.82C220.475 197.473 220.988 198.247 221.348 199.14C221.721 200.02 221.908 200.973 221.908 202C221.908 203.027 221.721 203.987 221.348 204.88C220.988 205.76 220.475 206.533 219.808 207.2C219.155 207.853 218.381 208.367 217.488 208.74C216.608 209.1 215.655 209.28 214.628 209.28C213.601 209.28 212.641 209.1 211.748 208.74C210.868 208.367 210.095 207.853 209.428 207.2C208.775 206.533 208.261 205.76 207.888 204.88C207.528 203.987 207.348 203.027 207.348 202ZM208.868 202C208.868 203.36 209.108 204.553 209.588 205.58C210.068 206.593 210.741 207.387 211.608 207.96C212.475 208.52 213.481 208.8 214.628 208.8C215.775 208.8 216.781 208.52 217.648 207.96C218.515 207.387 219.188 206.587 219.668 205.56C220.148 204.533 220.388 203.347 220.388 202C220.388 200.653 220.148 199.473 219.668 198.46C219.188 197.433 218.515 196.633 217.648 196.06C216.781 195.487 215.775 195.2 214.628 195.2C213.481 195.2 212.475 195.487 211.608 196.06C210.755 196.62 210.081 197.413 209.588 198.44C209.108 199.453 208.868 200.64 208.868 202ZM225.902 195H227.262V203.44C227.262 205.053 227.655 206.313 228.442 207.22C229.242 208.113 230.362 208.56 231.802 208.56C232.709 208.56 233.495 208.387 234.162 208.04C234.842 207.68 235.362 207.187 235.722 206.56C236.095 205.933 236.269 205.213 236.242 204.4L235.902 195H237.262L236.922 204.4C236.869 206 236.389 207.213 235.482 208.04C234.589 208.867 233.309 209.28 231.642 209.28C229.842 209.28 228.435 208.76 227.422 207.72C226.409 206.667 225.902 205.227 225.902 203.4V195ZM245.259 209V195.4C245.059 195.4 244.646 195.44 244.019 195.52L240.099 196.02V195H251.779V196.02L247.859 195.52C247.232 195.44 246.819 195.4 246.619 195.4V209H245.259ZM260.418 209V195H266.298V195.98L262.978 195.52C262.378 195.44 261.978 195.4 261.778 195.4V201.66C261.992 201.66 262.405 201.64 263.018 201.6L266.078 201.4V202.32L263.018 202.12C262.405 202.08 261.992 202.06 261.778 202.06V209H260.418ZM270.204 195H271.564V208.6C271.817 208.6 272.217 208.56 272.764 208.48L276.084 207.98V209H270.204V195ZM277.817 202C277.817 200.973 277.997 200.02 278.357 199.14C278.73 198.247 279.243 197.473 279.897 196.82C280.563 196.153 281.337 195.64 282.217 195.28C283.11 194.907 284.07 194.72 285.097 194.72C286.123 194.72 287.077 194.907 287.957 195.28C288.85 195.64 289.623 196.153 290.277 196.82C290.943 197.473 291.457 198.247 291.817 199.14C292.19 200.02 292.377 200.973 292.377 202C292.377 203.027 292.19 203.987 291.817 204.88C291.457 205.76 290.943 206.533 290.277 207.2C289.623 207.853 288.85 208.367 287.957 208.74C287.077 209.1 286.123 209.28 285.097 209.28C284.07 209.28 283.11 209.1 282.217 208.74C281.337 208.367 280.563 207.853 279.897 207.2C279.243 206.533 278.73 205.76 278.357 204.88C277.997 203.987 277.817 203.027 277.817 202ZM279.337 202C279.337 203.36 279.577 204.553 280.057 205.58C280.537 206.593 281.21 207.387 282.077 207.96C282.943 208.52 283.95 208.8 285.097 208.8C286.243 208.8 287.25 208.52 288.117 207.96C288.983 207.387 289.657 206.587 290.137 205.56C290.617 204.533 290.857 203.347 290.857 202C290.857 200.653 290.617 199.473 290.137 198.46C289.657 197.433 288.983 196.633 288.117 196.06C287.25 195.487 286.243 195.2 285.097 195.2C283.95 195.2 282.943 195.487 282.077 196.06C281.223 196.62 280.55 197.413 280.057 198.44C279.577 199.453 279.337 200.64 279.337 202ZM294.415 195H295.875L300.775 207.24H300.895L304.095 199.32L302.355 195H303.815L308.695 207.2H308.815L312.855 195H314.315L308.555 209.28H308.115L304.375 199.98L300.615 209.28H300.175L294.415 195Z" fill="white"/>
<path d="M87.6584 285.796L87.5744 286.65C87.313 286.762 86.9957 286.86 86.6224 286.944C86.249 287.028 85.871 287.089 85.4884 287.126C85.1057 287.173 84.765 287.196 84.4664 287.196C83.7104 287.196 83.0104 287.07 82.3664 286.818C81.7224 286.557 81.1577 286.197 80.6724 285.74C80.1964 285.283 79.823 284.746 79.5524 284.13C79.2817 283.505 79.1464 282.828 79.1464 282.1C79.1464 281.372 79.2817 280.7 79.5524 280.084C79.823 279.459 80.1964 278.917 80.6724 278.46C81.1577 278.003 81.7224 277.648 82.3664 277.396C83.0104 277.135 83.7104 277.004 84.4664 277.004C84.7744 277.004 85.1197 277.027 85.5024 277.074C85.885 277.121 86.2584 277.186 86.6224 277.27C86.9864 277.345 87.2944 277.433 87.5464 277.536L87.4764 278.32H87.3924C87.047 278.003 86.613 277.76 86.0904 277.592C85.5677 277.424 85.0264 277.34 84.4664 277.34C83.6264 277.34 82.8844 277.541 82.2404 277.942C81.6057 278.334 81.1064 278.889 80.7424 279.608C80.3877 280.317 80.2104 281.148 80.2104 282.1C80.2104 283.061 80.3877 283.897 80.7424 284.606C81.1064 285.315 81.6057 285.871 82.2404 286.272C82.875 286.664 83.617 286.86 84.4664 286.86C85.101 286.86 85.689 286.757 86.2304 286.552C86.781 286.347 87.229 286.095 87.5744 285.796H87.6584ZM89.4823 282.1C89.4823 281.381 89.6083 280.714 89.8603 280.098C90.1216 279.473 90.481 278.931 90.9383 278.474C91.405 278.007 91.9463 277.648 92.5623 277.396C93.1876 277.135 93.8596 277.004 94.5783 277.004C95.297 277.004 95.9643 277.135 96.5803 277.396C97.2056 277.648 97.747 278.007 98.2043 278.474C98.671 278.931 99.0303 279.473 99.2823 280.098C99.5436 280.714 99.6743 281.381 99.6743 282.1C99.6743 282.819 99.5436 283.491 99.2823 284.116C99.0303 284.732 98.671 285.273 98.2043 285.74C97.747 286.197 97.2056 286.557 96.5803 286.818C95.9643 287.07 95.297 287.196 94.5783 287.196C93.8596 287.196 93.1876 287.07 92.5623 286.818C91.9463 286.557 91.405 286.197 90.9383 285.74C90.481 285.273 90.1216 284.732 89.8603 284.116C89.6083 283.491 89.4823 282.819 89.4823 282.1ZM90.5463 282.1C90.5463 283.052 90.7143 283.887 91.0503 284.606C91.3863 285.315 91.8576 285.871 92.4643 286.272C93.071 286.664 93.7756 286.86 94.5783 286.86C95.381 286.86 96.0856 286.664 96.6923 286.272C97.299 285.871 97.7703 285.311 98.1063 284.592C98.4423 283.873 98.6103 283.043 98.6103 282.1C98.6103 281.157 98.4423 280.331 98.1063 279.622C97.7703 278.903 97.299 278.343 96.6923 277.942C96.0856 277.541 95.381 277.34 94.5783 277.34C93.7756 277.34 93.071 277.541 92.4643 277.942C91.867 278.334 91.3956 278.889 91.0503 279.608C90.7143 280.317 90.5463 281.148 90.5463 282.1ZM102.4 287L102.75 277.004H102.918L109.96 285.516H110.044L109.736 277.2H110.688L110.338 287.196H110.17L103.128 278.684H103.044L103.352 287H102.4ZM121.934 285.796L121.85 286.65C121.588 286.762 121.271 286.86 120.898 286.944C120.524 287.028 120.146 287.089 119.764 287.126C119.381 287.173 119.04 287.196 118.742 287.196C117.986 287.196 117.286 287.07 116.642 286.818C115.998 286.557 115.433 286.197 114.948 285.74C114.472 285.283 114.098 284.746 113.828 284.13C113.557 283.505 113.422 282.828 113.422 282.1C113.422 281.372 113.557 280.7 113.828 280.084C114.098 279.459 114.472 278.917 114.948 278.46C115.433 278.003 115.998 277.648 116.642 277.396C117.286 277.135 117.986 277.004 118.742 277.004C119.05 277.004 119.395 277.027 119.778 277.074C120.16 277.121 120.534 277.186 120.898 277.27C121.262 277.345 121.57 277.433 121.822 277.536L121.752 278.32H121.668C121.322 278.003 120.888 277.76 120.366 277.592C119.843 277.424 119.302 277.34 118.742 277.34C117.902 277.34 117.16 277.541 116.516 277.942C115.881 278.334 115.382 278.889 115.018 279.608C114.663 280.317 114.486 281.148 114.486 282.1C114.486 283.061 114.663 283.897 115.018 284.606C115.382 285.315 115.881 285.871 116.516 286.272C117.15 286.664 117.892 286.86 118.742 286.86C119.376 286.86 119.964 286.757 120.506 286.552C121.056 286.347 121.504 286.095 121.85 285.796H121.934ZM124.731 287V277.2H129.001V277.886L126.551 277.564C126.122 277.508 125.832 277.48 125.683 277.48V281.75C125.804 281.75 126.094 281.736 126.551 281.708L128.847 281.568V282.212L126.551 282.072C126.094 282.044 125.804 282.03 125.683 282.03V286.72C125.851 286.72 126.145 286.692 126.565 286.636L129.043 286.314V287H124.731ZM131.977 287V277.2H133.727C134.857 277.2 135.734 277.443 136.359 277.928C136.985 278.404 137.297 279.071 137.297 279.93C137.297 280.789 136.985 281.461 136.359 281.946C135.734 282.422 134.857 282.66 133.727 282.66H132.929V287H131.977ZM133.727 277.536H132.929V282.324H133.727C135.435 282.324 136.289 281.526 136.289 279.93C136.289 278.334 135.435 277.536 133.727 277.536ZM142.202 287V277.48C142.062 277.48 141.772 277.508 141.334 277.564L138.59 277.914V277.2H146.766V277.914L144.022 277.564C143.583 277.508 143.294 277.48 143.154 277.48V287H142.202ZM152.813 287V277.2H154.563C155.692 277.2 156.57 277.443 157.195 277.928C157.82 278.404 158.133 279.071 158.133 279.93C158.133 280.789 157.82 281.461 157.195 281.946C156.57 282.422 155.692 282.66 154.563 282.66H153.765V287H152.813ZM154.563 277.536H153.765V282.324H154.563C156.271 282.324 157.125 281.526 157.125 279.93C157.125 278.334 156.271 277.536 154.563 277.536ZM160.798 277.2H162.674C163.663 277.2 164.428 277.41 164.97 277.83C165.52 278.241 165.796 278.819 165.796 279.566C165.796 280.145 165.623 280.625 165.278 281.008C164.942 281.391 164.452 281.647 163.808 281.778V281.862C164.424 281.983 164.928 282.273 165.32 282.73C165.712 283.187 166.006 283.752 166.202 284.424C166.379 285.04 166.552 285.521 166.72 285.866C166.897 286.202 167.088 286.445 167.294 286.594C167.508 286.743 167.76 286.851 168.05 286.916V287H167.476C167.065 287 166.724 286.925 166.454 286.776C166.192 286.627 165.968 286.375 165.782 286.02C165.595 285.665 165.418 285.175 165.25 284.55C164.979 283.589 164.62 282.907 164.172 282.506C163.724 282.105 163.178 281.904 162.534 281.904H162.45V281.652H162.534C164.036 281.652 164.788 280.961 164.788 279.58C164.788 278.217 164.083 277.536 162.674 277.536H161.75V287H160.798V277.2ZM168.807 282.1C168.807 281.381 168.933 280.714 169.185 280.098C169.446 279.473 169.805 278.931 170.263 278.474C170.729 278.007 171.271 277.648 171.887 277.396C172.512 277.135 173.184 277.004 173.903 277.004C174.621 277.004 175.289 277.135 175.905 277.396C176.53 277.648 177.071 278.007 177.529 278.474C177.995 278.931 178.355 279.473 178.607 280.098C178.868 280.714 178.999 281.381 178.999 282.1C178.999 282.819 178.868 283.491 178.607 284.116C178.355 284.732 177.995 285.273 177.529 285.74C177.071 286.197 176.53 286.557 175.905 286.818C175.289 287.07 174.621 287.196 173.903 287.196C173.184 287.196 172.512 287.07 171.887 286.818C171.271 286.557 170.729 286.197 170.263 285.74C169.805 285.273 169.446 284.732 169.185 284.116C168.933 283.491 168.807 282.819 168.807 282.1ZM169.871 282.1C169.871 283.052 170.039 283.887 170.375 284.606C170.711 285.315 171.182 285.871 171.789 286.272C172.395 286.664 173.1 286.86 173.903 286.86C174.705 286.86 175.41 286.664 176.017 286.272C176.623 285.871 177.095 285.311 177.431 284.592C177.767 283.873 177.935 283.043 177.935 282.1C177.935 281.157 177.767 280.331 177.431 279.622C177.095 278.903 176.623 278.343 176.017 277.942C175.41 277.541 174.705 277.34 173.903 277.34C173.1 277.34 172.395 277.541 171.789 277.942C171.191 278.334 170.72 278.889 170.375 279.608C170.039 280.317 169.871 281.148 169.871 282.1ZM181.934 286.132V277.2H182.886V286.048C182.886 287.224 182.723 288.139 182.396 288.792C182.07 289.445 181.57 289.921 180.898 290.22L180.856 290.15C181.23 289.889 181.5 289.445 181.668 288.82C181.846 288.204 181.934 287.308 181.934 286.132ZM186.528 287V277.2H190.798V277.886L188.348 277.564C187.919 277.508 187.629 277.48 187.48 277.48V281.75C187.601 281.75 187.891 281.736 188.348 281.708L190.644 281.568V282.212L188.348 282.072C187.891 282.044 187.601 282.03 187.48 282.03V286.72C187.648 286.72 187.942 286.692 188.362 286.636L190.84 286.314V287H186.528ZM201.586 285.796L201.502 286.65C201.241 286.762 200.923 286.86 200.55 286.944C200.177 287.028 199.799 287.089 199.416 287.126C199.033 287.173 198.693 287.196 198.394 287.196C197.638 287.196 196.938 287.07 196.294 286.818C195.65 286.557 195.085 286.197 194.6 285.74C194.124 285.283 193.751 284.746 193.48 284.13C193.209 283.505 193.074 282.828 193.074 282.1C193.074 281.372 193.209 280.7 193.48 280.084C193.751 279.459 194.124 278.917 194.6 278.46C195.085 278.003 195.65 277.648 196.294 277.396C196.938 277.135 197.638 277.004 198.394 277.004C198.702 277.004 199.047 277.027 199.43 277.074C199.813 277.121 200.186 277.186 200.55 277.27C200.914 277.345 201.222 277.433 201.474 277.536L201.404 278.32H201.32C200.975 278.003 200.541 277.76 200.018 277.592C199.495 277.424 198.954 277.34 198.394 277.34C197.554 277.34 196.812 277.541 196.168 277.942C195.533 278.334 195.034 278.889 194.67 279.608C194.315 280.317 194.138 281.148 194.138 282.1C194.138 283.061 194.315 283.897 194.67 284.606C195.034 285.315 195.533 285.871 196.168 286.272C196.803 286.664 197.545 286.86 198.394 286.86C199.029 286.86 199.617 286.757 200.158 286.552C200.709 286.347 201.157 286.095 201.502 285.796H201.586ZM206.623 287V277.48C206.483 277.48 206.194 277.508 205.755 277.564L203.011 277.914V277.2H211.187V277.914L208.443 277.564C208.005 277.508 207.715 277.48 207.575 277.48V287H206.623ZM217.235 287V277.2H219.181C220.189 277.2 220.973 277.41 221.533 277.83C222.093 278.25 222.373 278.833 222.373 279.58C222.373 280.131 222.21 280.602 221.883 280.994C221.556 281.377 221.099 281.638 220.511 281.778V281.862C221.314 281.965 221.939 282.245 222.387 282.702C222.844 283.15 223.073 283.719 223.073 284.41C223.073 285.222 222.76 285.857 222.135 286.314C221.51 286.771 220.632 287 219.503 287H217.235ZM219.195 277.536H218.187V281.736H219.181C220.656 281.736 221.393 281.036 221.393 279.636C221.393 278.236 220.66 277.536 219.195 277.536ZM219.503 282.072H218.187V286.664H219.503C221.211 286.664 222.065 285.899 222.065 284.368C222.065 282.837 221.211 282.072 219.503 282.072ZM227.442 287V282.856L223.97 277.2H225.034L228.156 282.324H228.24L230.732 277.2H231.796L228.45 282.66V287H227.442ZM237.757 287V277.2H238.709V281.736H244.589V277.2H245.541V287H244.589V282.072H238.709V287H237.757ZM249.186 287V277.2H253.456V277.886L251.006 277.564C250.577 277.508 250.288 277.48 250.138 277.48V281.75C250.26 281.75 250.549 281.736 251.006 281.708L253.302 281.568V282.212L251.006 282.072C250.549 282.044 250.26 282.03 250.138 282.03V286.72C250.306 286.72 250.6 286.692 251.02 286.636L253.498 286.314V287H249.186ZM261.318 282.352V282.016H264.86V285.824C264.431 286.253 263.904 286.589 263.278 286.832C262.662 287.075 261.972 287.196 261.206 287.196C260.422 287.196 259.699 287.07 259.036 286.818C258.374 286.557 257.795 286.197 257.3 285.74C256.806 285.273 256.418 284.732 256.138 284.116C255.868 283.5 255.732 282.828 255.732 282.1C255.732 281.372 255.868 280.7 256.138 280.084C256.418 279.468 256.806 278.931 257.3 278.474C257.795 278.007 258.374 277.648 259.036 277.396C259.699 277.135 260.422 277.004 261.206 277.004C261.542 277.004 261.906 277.027 262.298 277.074C262.7 277.121 263.082 277.186 263.446 277.27C263.81 277.345 264.118 277.438 264.37 277.55L264.3 278.334H264.216C263.843 278.007 263.395 277.76 262.872 277.592C262.35 277.424 261.794 277.34 261.206 277.34C260.329 277.34 259.559 277.541 258.896 277.942C258.234 278.334 257.716 278.889 257.342 279.608C256.978 280.317 256.796 281.148 256.796 282.1C256.796 283.052 256.978 283.887 257.342 284.606C257.716 285.315 258.234 285.871 258.896 286.272C259.559 286.664 260.329 286.86 261.206 286.86C261.748 286.86 262.247 286.785 262.704 286.636C263.171 286.487 263.572 286.272 263.908 285.992V282.352H261.318ZM267.381 282.1C267.381 281.381 267.507 280.714 267.759 280.098C268.02 279.473 268.379 278.931 268.837 278.474C269.303 278.007 269.845 277.648 270.461 277.396C271.086 277.135 271.758 277.004 272.477 277.004C273.195 277.004 273.863 277.135 274.479 277.396C275.104 277.648 275.645 278.007 276.103 278.474C276.569 278.931 276.929 279.473 277.181 280.098C277.442 280.714 277.573 281.381 277.573 282.1C277.573 282.819 277.442 283.491 277.181 284.116C276.929 284.732 276.569 285.273 276.103 285.74C275.645 286.197 275.104 286.557 274.479 286.818C273.863 287.07 273.195 287.196 272.477 287.196C271.758 287.196 271.086 287.07 270.461 286.818C269.845 286.557 269.303 286.197 268.837 285.74C268.379 285.273 268.02 284.732 267.759 284.116C267.507 283.491 267.381 282.819 267.381 282.1ZM268.445 282.1C268.445 283.052 268.613 283.887 268.949 284.606C269.285 285.315 269.756 285.871 270.363 286.272C270.969 286.664 271.674 286.86 272.477 286.86C273.279 286.86 273.984 286.664 274.591 286.272C275.197 285.871 275.669 285.311 276.005 284.592C276.341 283.873 276.509 283.043 276.509 282.1C276.509 281.157 276.341 280.331 276.005 279.622C275.669 278.903 275.197 278.343 274.591 277.942C273.984 277.541 273.279 277.34 272.477 277.34C271.674 277.34 270.969 277.541 270.363 277.942C269.765 278.334 269.294 278.889 268.949 279.608C268.613 280.317 268.445 281.148 268.445 282.1ZM280.508 277.2H281.46V286.72C281.638 286.72 281.918 286.692 282.3 286.636L284.624 286.286V287H280.508V277.2ZM293.192 287H285.772V286.72L292.016 277.48C291.866 277.48 291.526 277.499 290.994 277.536L286.136 277.886V277.2H293.136V277.48L286.892 286.72C287.05 286.72 287.391 286.701 287.914 286.664L293.192 286.286V287Z" fill="#FFFEFE"/>
</svg>
