<svg width="371" height="321" viewBox="0 0 371 321" fill="none" xmlns="http://www.w3.org/2000/svg">
<rect width="371" height="321" fill="black"/>
<path d="M116.219 99.4688H133.469V121.344H131.25C125.875 121.344 122.021 120.417 119.688 118.562C117.375 116.708 116.219 113.552 116.219 109.094V99.4688ZM109.969 142C106.594 142 103.594 140.75 100.969 138.25C98.6562 136.042 96.8438 133.104 95.5312 129.438C94.3229 126.062 93.7188 122.719 93.7188 119.406C93.7188 114.427 94.9479 110 97.4062 106.125C99.1562 103.375 101.458 101.438 104.312 100.312C105.771 99.75 107.396 99.4688 109.188 99.4688H111.594V142H109.969ZM116.219 133.844H131.844V134.719C131.844 136.656 131.146 138.292 129.75 139.625C128.042 141.208 125.615 142 122.469 142H116.219V133.844ZM141.75 99.4688H158.562V141.938H141.75V99.4688ZM163.938 138.969C163.938 134.656 166.438 131.729 171.438 130.188C173.354 129.604 175.823 129.312 178.844 129.312H181.312V142H163.938V138.969ZM212 99.4375H229.375V142H212V99.4375ZM189.562 99.4375H206.844V142H204.031C196.365 142 191.792 139.396 190.312 134.188C189.812 132.5 189.562 130.552 189.562 128.344V99.4375ZM272 120.469C275.979 122.115 277.969 125.062 277.969 129.312C277.969 133.208 276.604 136.271 273.875 138.5C271.021 140.833 266.969 142 261.719 142H258.844V99.4688H261.25C266.375 99.4688 270.292 100.75 273 103.312C275.479 105.646 276.719 108.677 276.719 112.406C276.719 116.115 275.177 118.802 272.094 120.469H272ZM236.844 99.4688H253.656V141.938H236.844V99.4688Z" fill="white"/>
<path d="M67.1433 176V190H65.7833V177.16H65.6633L60.8233 186.44H60.2033L54.7033 178.26H54.5833L55.0233 190H53.6633L54.1633 175.72H54.5633L60.8633 185.08H60.9833L65.7033 176H67.1433ZM72.3422 190V176H78.4422V176.98L74.9422 176.52C74.3289 176.44 73.9155 176.4 73.7022 176.4V182.5C73.8755 182.5 74.2889 182.48 74.9422 182.44L78.2222 182.24V183.16L74.9422 182.96C74.2889 182.92 73.8755 182.9 73.7022 182.9V189.6C73.9422 189.6 74.3622 189.56 74.9622 189.48L78.5022 189.02V190H72.3422ZM95.8738 176V190H94.5138V177.16H94.3938L89.5538 186.44H88.9338L83.4338 178.26H83.3138L83.7538 190H82.3938L82.8938 175.72H83.2938L89.5938 185.08H89.7138L94.4338 176H95.8738ZM101.073 190V176H103.853C105.293 176 106.413 176.3 107.213 176.9C108.013 177.5 108.413 178.333 108.413 179.4C108.413 180.187 108.179 180.86 107.713 181.42C107.246 181.967 106.593 182.34 105.753 182.54V182.66C106.899 182.807 107.793 183.207 108.433 183.86C109.086 184.5 109.413 185.313 109.413 186.3C109.413 187.46 108.966 188.367 108.073 189.02C107.179 189.673 105.926 190 104.313 190H101.073ZM103.873 176.48H102.433V182.48H103.853C105.959 182.48 107.013 181.48 107.013 179.48C107.013 177.48 105.966 176.48 103.873 176.48ZM104.313 182.96H102.433V189.52H104.313C106.753 189.52 107.973 188.427 107.973 186.24C107.973 184.053 106.753 182.96 104.313 182.96ZM113.416 190V176H119.516V176.98L116.016 176.52C115.403 176.44 114.99 176.4 114.776 176.4V182.5C114.95 182.5 115.363 182.48 116.016 182.44L119.296 182.24V183.16L116.016 182.96C115.363 182.92 114.95 182.9 114.776 182.9V189.6C115.016 189.6 115.436 189.56 116.036 189.48L119.576 189.02V190H113.416ZM123.768 176H126.448C127.861 176 128.955 176.3 129.728 176.9C130.515 177.487 130.908 178.313 130.908 179.38C130.908 180.207 130.661 180.893 130.168 181.44C129.688 181.987 128.988 182.353 128.068 182.54V182.66C128.948 182.833 129.668 183.247 130.228 183.9C130.788 184.553 131.208 185.36 131.488 186.32C131.741 187.2 131.988 187.887 132.228 188.38C132.481 188.86 132.755 189.207 133.048 189.42C133.355 189.633 133.715 189.787 134.128 189.88V190H133.308C132.721 190 132.235 189.893 131.848 189.68C131.475 189.467 131.155 189.107 130.888 188.6C130.621 188.093 130.368 187.393 130.128 186.5C129.741 185.127 129.228 184.153 128.588 183.58C127.948 183.007 127.168 182.72 126.248 182.72H126.128V182.36H126.248C128.395 182.36 129.468 181.373 129.468 179.4C129.468 177.453 128.461 176.48 126.448 176.48H125.128V190H123.768V176ZM135.38 189.56L135.5 188.36H135.62C136.14 188.813 136.727 189.167 137.38 189.42C138.033 189.673 138.68 189.8 139.32 189.8C140.227 189.8 140.96 189.553 141.52 189.06C142.08 188.553 142.36 187.88 142.36 187.04C142.36 186.573 142.253 186.14 142.04 185.74C141.84 185.34 141.5 184.933 141.02 184.52C140.553 184.107 139.907 183.66 139.08 183.18C138.507 182.847 137.96 182.5 137.44 182.14C136.92 181.767 136.493 181.34 136.16 180.86C135.827 180.367 135.66 179.78 135.66 179.1C135.66 178.087 136.027 177.273 136.76 176.66C137.493 176.033 138.46 175.72 139.66 175.72C140.193 175.72 140.767 175.78 141.38 175.9C141.993 176.007 142.467 176.147 142.8 176.32L142.7 177.44H142.58C141.82 176.613 140.847 176.2 139.66 176.2C138.807 176.2 138.12 176.42 137.6 176.86C137.08 177.287 136.82 177.867 136.82 178.6C136.82 179.147 136.96 179.62 137.24 180.02C137.533 180.407 137.907 180.76 138.36 181.08C138.813 181.387 139.3 181.687 139.82 181.98C140.42 182.327 141 182.693 141.56 183.08C142.133 183.467 142.6 183.933 142.96 184.48C143.333 185.013 143.52 185.687 143.52 186.5C143.52 187.247 143.347 187.907 143 188.48C142.653 189.04 142.16 189.48 141.52 189.8C140.893 190.12 140.16 190.28 139.32 190.28C138.787 190.28 138.16 190.213 137.44 190.08C136.72 189.947 136.033 189.773 135.38 189.56ZM147.459 190V176H148.819V182.48H157.219V176H158.579V190H157.219V182.96H148.819V190H147.459ZM163.788 190V176H165.148V190H163.788ZM170.35 190V176H172.85C174.463 176 175.717 176.347 176.61 177.04C177.503 177.72 177.95 178.673 177.95 179.9C177.95 181.127 177.503 182.087 176.61 182.78C175.717 183.46 174.463 183.8 172.85 183.8H171.71V190H170.35ZM172.85 176.48H171.71V183.32H172.85C175.29 183.32 176.51 182.18 176.51 179.9C176.51 177.62 175.29 176.48 172.85 176.48ZM178.664 189.16C178.664 188.853 178.764 188.607 178.964 188.42C179.164 188.22 179.424 188.12 179.744 188.12C180.117 188.12 180.397 188.26 180.584 188.54C180.784 188.807 180.884 189.193 180.884 189.7C180.884 190.353 180.717 190.96 180.384 191.52C180.064 192.093 179.611 192.58 179.024 192.98L178.824 192.68C179.744 191.987 180.231 191.013 180.284 189.76C180.124 190.013 179.891 190.14 179.584 190.14C179.304 190.14 179.077 190.047 178.904 189.86C178.744 189.673 178.664 189.44 178.664 189.16ZM189.208 189.56L189.328 188.36H189.448C189.968 188.813 190.555 189.167 191.208 189.42C191.861 189.673 192.508 189.8 193.148 189.8C194.055 189.8 194.788 189.553 195.348 189.06C195.908 188.553 196.188 187.88 196.188 187.04C196.188 186.573 196.081 186.14 195.868 185.74C195.668 185.34 195.328 184.933 194.848 184.52C194.381 184.107 193.735 183.66 192.908 183.18C192.335 182.847 191.788 182.5 191.268 182.14C190.748 181.767 190.321 181.34 189.988 180.86C189.655 180.367 189.488 179.78 189.488 179.1C189.488 178.087 189.855 177.273 190.588 176.66C191.321 176.033 192.288 175.72 193.488 175.72C194.021 175.72 194.595 175.78 195.208 175.9C195.821 176.007 196.295 176.147 196.628 176.32L196.528 177.44H196.408C195.648 176.613 194.675 176.2 193.488 176.2C192.635 176.2 191.948 176.42 191.428 176.86C190.908 177.287 190.648 177.867 190.648 178.6C190.648 179.147 190.788 179.62 191.068 180.02C191.361 180.407 191.735 180.76 192.188 181.08C192.641 181.387 193.128 181.687 193.648 181.98C194.248 182.327 194.828 182.693 195.388 183.08C195.961 183.467 196.428 183.933 196.788 184.48C197.161 185.013 197.348 185.687 197.348 186.5C197.348 187.247 197.175 187.907 196.828 188.48C196.481 189.04 195.988 189.48 195.348 189.8C194.721 190.12 193.988 190.28 193.148 190.28C192.615 190.28 191.988 190.213 191.268 190.08C190.548 189.947 189.861 189.773 189.208 189.56ZM212.448 188.28L212.328 189.5C211.954 189.66 211.501 189.8 210.968 189.92C210.434 190.04 209.894 190.127 209.348 190.18C208.801 190.247 208.314 190.28 207.888 190.28C206.808 190.28 205.808 190.1 204.888 189.74C203.968 189.367 203.161 188.853 202.468 188.2C201.788 187.547 201.254 186.78 200.868 185.9C200.481 185.007 200.288 184.04 200.288 183C200.288 181.96 200.481 181 200.868 180.12C201.254 179.227 201.788 178.453 202.468 177.8C203.161 177.147 203.968 176.64 204.888 176.28C205.808 175.907 206.808 175.72 207.888 175.72C208.328 175.72 208.821 175.753 209.368 175.82C209.914 175.887 210.448 175.98 210.968 176.1C211.488 176.207 211.928 176.333 212.288 176.48L212.188 177.6H212.068C211.574 177.147 210.954 176.8 210.208 176.56C209.461 176.32 208.688 176.2 207.888 176.2C206.688 176.2 205.628 176.487 204.708 177.06C203.801 177.62 203.088 178.413 202.568 179.44C202.061 180.453 201.808 181.64 201.808 183C201.808 184.373 202.061 185.567 202.568 186.58C203.088 187.593 203.801 188.387 204.708 188.96C205.614 189.52 206.674 189.8 207.888 189.8C208.794 189.8 209.634 189.653 210.408 189.36C211.194 189.067 211.834 188.707 212.328 188.28H212.448ZM216.444 190V176H217.804V182.48H226.204V176H227.564V190H226.204V182.96H217.804V190H216.444ZM232.772 190V176H238.872V176.98L235.372 176.52C234.759 176.44 234.345 176.4 234.132 176.4V182.5C234.305 182.5 234.719 182.48 235.372 182.44L238.652 182.24V183.16L235.372 182.96C234.719 182.92 234.305 182.9 234.132 182.9V189.6C234.372 189.6 234.792 189.56 235.392 189.48L238.932 189.02V190H232.772ZM243.123 190V176H247.523C249.07 176 250.417 176.293 251.563 176.88C252.71 177.467 253.603 178.287 254.243 179.34C254.883 180.38 255.203 181.6 255.203 183C255.203 184.4 254.883 185.627 254.243 186.68C253.603 187.72 252.71 188.533 251.563 189.12C250.417 189.707 249.07 190 247.523 190H243.123ZM247.523 176.48H244.483V189.52H247.523C249.457 189.52 250.963 188.947 252.043 187.8C253.137 186.653 253.683 185.053 253.683 183C253.683 180.947 253.137 179.347 252.043 178.2C250.963 177.053 249.457 176.48 247.523 176.48ZM259.213 176H260.573V184.44C260.573 186.053 260.966 187.313 261.753 188.22C262.553 189.113 263.673 189.56 265.113 189.56C266.019 189.56 266.806 189.387 267.473 189.04C268.153 188.68 268.673 188.187 269.033 187.56C269.406 186.933 269.579 186.213 269.553 185.4L269.213 176H270.573L270.233 185.4C270.179 187 269.699 188.213 268.793 189.04C267.899 189.867 266.619 190.28 264.953 190.28C263.153 190.28 261.746 189.76 260.733 188.72C259.719 187.667 259.213 186.227 259.213 184.4V176ZM275.37 176H276.73V189.6C276.983 189.6 277.383 189.56 277.93 189.48L281.25 188.98V190H275.37V176ZM284.588 190V176H285.948V190H284.588ZM290.851 190L291.351 175.72H291.591L301.651 187.88H301.771L301.331 176H302.691L302.191 190.28H301.951L291.891 178.12H291.771L292.211 190H290.851ZM314.576 183.36V182.88H319.636V188.32C319.023 188.933 318.269 189.413 317.376 189.76C316.496 190.107 315.509 190.28 314.416 190.28C313.296 190.28 312.263 190.1 311.316 189.74C310.369 189.367 309.543 188.853 308.836 188.2C308.129 187.533 307.576 186.76 307.176 185.88C306.789 185 306.596 184.04 306.596 183C306.596 181.96 306.789 181 307.176 180.12C307.576 179.24 308.129 178.473 308.836 177.82C309.543 177.153 310.369 176.64 311.316 176.28C312.263 175.907 313.296 175.72 314.416 175.72C314.896 175.72 315.416 175.753 315.976 175.82C316.549 175.887 317.096 175.98 317.616 176.1C318.136 176.207 318.576 176.34 318.936 176.5L318.836 177.62H318.716C318.183 177.153 317.543 176.8 316.796 176.56C316.049 176.32 315.256 176.2 314.416 176.2C313.163 176.2 312.063 176.487 311.116 177.06C310.169 177.62 309.429 178.413 308.896 179.44C308.376 180.453 308.116 181.64 308.116 183C308.116 184.36 308.376 185.553 308.896 186.58C309.429 187.593 310.169 188.387 311.116 188.96C312.063 189.52 313.163 189.8 314.416 189.8C315.189 189.8 315.903 189.693 316.556 189.48C317.223 189.267 317.796 188.96 318.276 188.56V183.36H314.576ZM97.6224 209L95.7424 206.96C95.1958 207.773 94.6024 208.367 93.9624 208.74C93.3358 209.1 92.5891 209.28 91.7224 209.28C90.8558 209.28 90.0958 209.127 89.4424 208.82C88.7891 208.5 88.2824 208.06 87.9224 207.5C87.5624 206.927 87.3824 206.267 87.3824 205.52C87.3824 204.6 87.6558 203.787 88.2024 203.08C88.7624 202.36 89.5624 201.793 90.6024 201.38L90.4424 201.2C89.8291 200.533 89.3891 199.933 89.1224 199.4C88.8558 198.853 88.7224 198.293 88.7224 197.72C88.7224 196.813 89.0091 196.087 89.5824 195.54C90.1558 194.993 90.9091 194.72 91.8424 194.72C92.7491 194.72 93.4758 194.973 94.0224 195.48C94.5824 195.973 94.8624 196.633 94.8624 197.46C94.8624 198.207 94.6158 198.9 94.1224 199.54C93.6424 200.18 92.9891 200.713 92.1624 201.14L96.0824 205.4L97.4824 201.68H98.8424L96.4024 205.74L99.4024 209H97.6224ZM91.3424 200.26L91.8824 200.84C93.0291 200.08 93.6024 199 93.6024 197.6C93.6024 196.84 93.4424 196.253 93.1224 195.84C92.8158 195.413 92.3891 195.2 91.8424 195.2C91.2958 195.2 90.8358 195.407 90.4624 195.82C90.1024 196.22 89.9224 196.753 89.9224 197.42C89.9224 197.873 90.0358 198.327 90.2624 198.78C90.4891 199.22 90.8491 199.713 91.3424 200.26ZM88.6824 205.36C88.6824 206.387 88.9824 207.22 89.5824 207.86C90.1958 208.487 90.9891 208.8 91.9624 208.8C93.2958 208.8 94.4491 208.067 95.4224 206.6L90.9024 201.68C89.4224 202.467 88.6824 203.693 88.6824 205.36ZM107.918 209V195H110.698C112.138 195 113.258 195.3 114.058 195.9C114.858 196.5 115.258 197.333 115.258 198.4C115.258 199.187 115.025 199.86 114.558 200.42C114.092 200.967 113.438 201.34 112.598 201.54V201.66C113.745 201.807 114.638 202.207 115.278 202.86C115.932 203.5 116.258 204.313 116.258 205.3C116.258 206.46 115.812 207.367 114.918 208.02C114.025 208.673 112.772 209 111.158 209H107.918ZM110.718 195.48H109.278V201.48H110.698C112.805 201.48 113.858 200.48 113.858 198.48C113.858 196.48 112.812 195.48 110.718 195.48ZM111.158 201.96H109.278V208.52H111.158C113.598 208.52 114.818 207.427 114.818 205.24C114.818 203.053 113.598 201.96 111.158 201.96ZM119.262 202C119.262 200.973 119.442 200.02 119.802 199.14C120.175 198.247 120.689 197.473 121.342 196.82C122.009 196.153 122.782 195.64 123.662 195.28C124.555 194.907 125.515 194.72 126.542 194.72C127.569 194.72 128.522 194.907 129.402 195.28C130.295 195.64 131.069 196.153 131.722 196.82C132.389 197.473 132.902 198.247 133.262 199.14C133.635 200.02 133.822 200.973 133.822 202C133.822 203.027 133.635 203.987 133.262 204.88C132.902 205.76 132.389 206.533 131.722 207.2C131.069 207.853 130.295 208.367 129.402 208.74C128.522 209.1 127.569 209.28 126.542 209.28C125.515 209.28 124.555 209.1 123.662 208.74C122.782 208.367 122.009 207.853 121.342 207.2C120.689 206.533 120.175 205.76 119.802 204.88C119.442 203.987 119.262 203.027 119.262 202ZM120.782 202C120.782 203.36 121.022 204.553 121.502 205.58C121.982 206.593 122.655 207.387 123.522 207.96C124.389 208.52 125.395 208.8 126.542 208.8C127.689 208.8 128.695 208.52 129.562 207.96C130.429 207.387 131.102 206.587 131.582 205.56C132.062 204.533 132.302 203.347 132.302 202C132.302 200.653 132.062 199.473 131.582 198.46C131.102 197.433 130.429 196.633 129.562 196.06C128.695 195.487 127.689 195.2 126.542 195.2C125.395 195.2 124.389 195.487 123.522 196.06C122.669 196.62 121.995 197.413 121.502 198.44C121.022 199.453 120.782 200.64 120.782 202ZM137.016 202C137.016 200.973 137.196 200.02 137.556 199.14C137.929 198.247 138.443 197.473 139.096 196.82C139.763 196.153 140.536 195.64 141.416 195.28C142.309 194.907 143.269 194.72 144.296 194.72C145.323 194.72 146.276 194.907 147.156 195.28C148.049 195.64 148.823 196.153 149.476 196.82C150.143 197.473 150.656 198.247 151.016 199.14C151.389 200.02 151.576 200.973 151.576 202C151.576 203.027 151.389 203.987 151.016 204.88C150.656 205.76 150.143 206.533 149.476 207.2C148.823 207.853 148.049 208.367 147.156 208.74C146.276 209.1 145.323 209.28 144.296 209.28C143.269 209.28 142.309 209.1 141.416 208.74C140.536 208.367 139.763 207.853 139.096 207.2C138.443 206.533 137.929 205.76 137.556 204.88C137.196 203.987 137.016 203.027 137.016 202ZM138.536 202C138.536 203.36 138.776 204.553 139.256 205.58C139.736 206.593 140.409 207.387 141.276 207.96C142.143 208.52 143.149 208.8 144.296 208.8C145.443 208.8 146.449 208.52 147.316 207.96C148.183 207.387 148.856 206.587 149.336 205.56C149.816 204.533 150.056 203.347 150.056 202C150.056 200.653 149.816 199.473 149.336 198.46C148.856 197.433 148.183 196.633 147.316 196.06C146.449 195.487 145.443 195.2 144.296 195.2C143.149 195.2 142.143 195.487 141.276 196.06C140.423 196.62 139.749 197.413 139.256 198.44C138.776 199.453 138.536 200.64 138.536 202ZM164.41 209L157.85 201.82L163.93 195H165.65L159.07 201.26L166.21 209H164.41ZM155.77 209V195H157.13V209H155.77ZM169.207 209V195H170.567V209H169.207ZM175.47 209L175.97 194.72H176.21L186.27 206.88H186.39L185.95 195H187.31L186.81 209.28H186.57L176.51 197.12H176.39L176.83 209H175.47ZM199.195 202.36V201.88H204.255V207.32C203.642 207.933 202.889 208.413 201.995 208.76C201.115 209.107 200.129 209.28 199.035 209.28C197.915 209.28 196.882 209.1 195.935 208.74C194.989 208.367 194.162 207.853 193.455 207.2C192.749 206.533 192.195 205.76 191.795 204.88C191.409 204 191.215 203.04 191.215 202C191.215 200.96 191.409 200 191.795 199.12C192.195 198.24 192.749 197.473 193.455 196.82C194.162 196.153 194.989 195.64 195.935 195.28C196.882 194.907 197.915 194.72 199.035 194.72C199.515 194.72 200.035 194.753 200.595 194.82C201.169 194.887 201.715 194.98 202.235 195.1C202.755 195.207 203.195 195.34 203.555 195.5L203.455 196.62H203.335C202.802 196.153 202.162 195.8 201.415 195.56C200.669 195.32 199.875 195.2 199.035 195.2C197.782 195.2 196.682 195.487 195.735 196.06C194.789 196.62 194.049 197.413 193.515 198.44C192.995 199.453 192.735 200.64 192.735 202C192.735 203.36 192.995 204.553 193.515 205.58C194.049 206.593 194.789 207.387 195.735 207.96C196.682 208.52 197.782 208.8 199.035 208.8C199.809 208.8 200.522 208.693 201.175 208.48C201.842 208.267 202.415 207.96 202.895 207.56V202.36H199.195ZM213.026 208.56L213.146 207.36H213.266C213.786 207.813 214.373 208.167 215.026 208.42C215.68 208.673 216.326 208.8 216.966 208.8C217.873 208.8 218.606 208.553 219.166 208.06C219.726 207.553 220.006 206.88 220.006 206.04C220.006 205.573 219.9 205.14 219.686 204.74C219.486 204.34 219.146 203.933 218.666 203.52C218.2 203.107 217.553 202.66 216.726 202.18C216.153 201.847 215.606 201.5 215.086 201.14C214.566 200.767 214.14 200.34 213.806 199.86C213.473 199.367 213.306 198.78 213.306 198.1C213.306 197.087 213.673 196.273 214.406 195.66C215.14 195.033 216.106 194.72 217.306 194.72C217.84 194.72 218.413 194.78 219.026 194.9C219.64 195.007 220.113 195.147 220.446 195.32L220.346 196.44H220.226C219.466 195.613 218.493 195.2 217.306 195.2C216.453 195.2 215.766 195.42 215.246 195.86C214.726 196.287 214.466 196.867 214.466 197.6C214.466 198.147 214.606 198.62 214.886 199.02C215.18 199.407 215.553 199.76 216.006 200.08C216.46 200.387 216.946 200.687 217.466 200.98C218.066 201.327 218.646 201.693 219.206 202.08C219.78 202.467 220.246 202.933 220.606 203.48C220.98 204.013 221.166 204.687 221.166 205.5C221.166 206.247 220.993 206.907 220.646 207.48C220.3 208.04 219.806 208.48 219.166 208.8C218.54 209.12 217.806 209.28 216.966 209.28C216.433 209.28 215.806 209.213 215.086 209.08C214.366 208.947 213.68 208.773 213.026 208.56ZM228.106 209V203.08L223.146 195H224.666L229.126 202.32H229.246L232.806 195H234.326L229.546 202.8V209H228.106ZM236.23 208.56L236.35 207.36H236.47C236.99 207.813 237.576 208.167 238.23 208.42C238.883 208.673 239.53 208.8 240.17 208.8C241.076 208.8 241.81 208.553 242.37 208.06C242.93 207.553 243.21 206.88 243.21 206.04C243.21 205.573 243.103 205.14 242.89 204.74C242.69 204.34 242.35 203.933 241.87 203.52C241.403 203.107 240.756 202.66 239.93 202.18C239.356 201.847 238.81 201.5 238.29 201.14C237.77 200.767 237.343 200.34 237.01 199.86C236.676 199.367 236.51 198.78 236.51 198.1C236.51 197.087 236.876 196.273 237.61 195.66C238.343 195.033 239.31 194.72 240.51 194.72C241.043 194.72 241.616 194.78 242.23 194.9C242.843 195.007 243.316 195.147 243.65 195.32L243.55 196.44H243.43C242.67 195.613 241.696 195.2 240.51 195.2C239.656 195.2 238.97 195.42 238.45 195.86C237.93 196.287 237.67 196.867 237.67 197.6C237.67 198.147 237.81 198.62 238.09 199.02C238.383 199.407 238.756 199.76 239.21 200.08C239.663 200.387 240.15 200.687 240.67 200.98C241.27 201.327 241.85 201.693 242.41 202.08C242.983 202.467 243.45 202.933 243.81 203.48C244.183 204.013 244.37 204.687 244.37 205.5C244.37 206.247 244.196 206.907 243.85 207.48C243.503 208.04 243.01 208.48 242.37 208.8C241.743 209.12 241.01 209.28 240.17 209.28C239.636 209.28 239.01 209.213 238.29 209.08C237.57 208.947 236.883 208.773 236.23 208.56ZM251.118 209V195.4C250.918 195.4 250.505 195.44 249.878 195.52L245.958 196.02V195H257.638V196.02L253.718 195.52C253.092 195.44 252.678 195.4 252.478 195.4V209H251.118ZM260.887 209V195H266.987V195.98L263.487 195.52C262.874 195.44 262.46 195.4 262.247 195.4V201.5C262.42 201.5 262.834 201.48 263.487 201.44L266.767 201.24V202.16L263.487 201.96C262.834 201.92 262.42 201.9 262.247 201.9V208.6C262.487 208.6 262.907 208.56 263.507 208.48L267.047 208.02V209H260.887ZM284.419 195V209H283.059V196.16H282.939L278.099 205.44H277.479L271.979 197.26H271.859L272.299 209H270.939L271.439 194.72H271.839L278.139 204.08H278.259L282.979 195H284.419Z" fill="white"/>
<path d="M87.6584 285.796L87.5744 286.65C87.313 286.762 86.9957 286.86 86.6224 286.944C86.249 287.028 85.871 287.089 85.4884 287.126C85.1057 287.173 84.765 287.196 84.4664 287.196C83.7104 287.196 83.0104 287.07 82.3664 286.818C81.7224 286.557 81.1577 286.197 80.6724 285.74C80.1964 285.283 79.823 284.746 79.5524 284.13C79.2817 283.505 79.1464 282.828 79.1464 282.1C79.1464 281.372 79.2817 280.7 79.5524 280.084C79.823 279.459 80.1964 278.917 80.6724 278.46C81.1577 278.003 81.7224 277.648 82.3664 277.396C83.0104 277.135 83.7104 277.004 84.4664 277.004C84.7744 277.004 85.1197 277.027 85.5024 277.074C85.885 277.121 86.2584 277.186 86.6224 277.27C86.9864 277.345 87.2944 277.433 87.5464 277.536L87.4764 278.32H87.3924C87.047 278.003 86.613 277.76 86.0904 277.592C85.5677 277.424 85.0264 277.34 84.4664 277.34C83.6264 277.34 82.8844 277.541 82.2404 277.942C81.6057 278.334 81.1064 278.889 80.7424 279.608C80.3877 280.317 80.2104 281.148 80.2104 282.1C80.2104 283.061 80.3877 283.897 80.7424 284.606C81.1064 285.315 81.6057 285.871 82.2404 286.272C82.875 286.664 83.617 286.86 84.4664 286.86C85.101 286.86 85.689 286.757 86.2304 286.552C86.781 286.347 87.229 286.095 87.5744 285.796H87.6584ZM89.4823 282.1C89.4823 281.381 89.6083 280.714 89.8603 280.098C90.1216 279.473 90.481 278.931 90.9383 278.474C91.405 278.007 91.9463 277.648 92.5623 277.396C93.1876 277.135 93.8596 277.004 94.5783 277.004C95.297 277.004 95.9643 277.135 96.5803 277.396C97.2056 277.648 97.747 278.007 98.2043 278.474C98.671 278.931 99.0303 279.473 99.2823 280.098C99.5436 280.714 99.6743 281.381 99.6743 282.1C99.6743 282.819 99.5436 283.491 99.2823 284.116C99.0303 284.732 98.671 285.273 98.2043 285.74C97.747 286.197 97.2056 286.557 96.5803 286.818C95.9643 287.07 95.297 287.196 94.5783 287.196C93.8596 287.196 93.1876 287.07 92.5623 286.818C91.9463 286.557 91.405 286.197 90.9383 285.74C90.481 285.273 90.1216 284.732 89.8603 284.116C89.6083 283.491 89.4823 282.819 89.4823 282.1ZM90.5463 282.1C90.5463 283.052 90.7143 283.887 91.0503 284.606C91.3863 285.315 91.8576 285.871 92.4643 286.272C93.071 286.664 93.7756 286.86 94.5783 286.86C95.381 286.86 96.0856 286.664 96.6923 286.272C97.299 285.871 97.7703 285.311 98.1063 284.592C98.4423 283.873 98.6103 283.043 98.6103 282.1C98.6103 281.157 98.4423 280.331 98.1063 279.622C97.7703 278.903 97.299 278.343 96.6923 277.942C96.0856 277.541 95.381 277.34 94.5783 277.34C93.7756 277.34 93.071 277.541 92.4643 277.942C91.867 278.334 91.3956 278.889 91.0503 279.608C90.7143 280.317 90.5463 281.148 90.5463 282.1ZM102.4 287L102.75 277.004H102.918L109.96 285.516H110.044L109.736 277.2H110.688L110.338 287.196H110.17L103.128 278.684H103.044L103.352 287H102.4ZM121.934 285.796L121.85 286.65C121.588 286.762 121.271 286.86 120.898 286.944C120.524 287.028 120.146 287.089 119.764 287.126C119.381 287.173 119.04 287.196 118.742 287.196C117.986 287.196 117.286 287.07 116.642 286.818C115.998 286.557 115.433 286.197 114.948 285.74C114.472 285.283 114.098 284.746 113.828 284.13C113.557 283.505 113.422 282.828 113.422 282.1C113.422 281.372 113.557 280.7 113.828 280.084C114.098 279.459 114.472 278.917 114.948 278.46C115.433 278.003 115.998 277.648 116.642 277.396C117.286 277.135 117.986 277.004 118.742 277.004C119.05 277.004 119.395 277.027 119.778 277.074C120.16 277.121 120.534 277.186 120.898 277.27C121.262 277.345 121.57 277.433 121.822 277.536L121.752 278.32H121.668C121.322 278.003 120.888 277.76 120.366 277.592C119.843 277.424 119.302 277.34 118.742 277.34C117.902 277.34 117.16 277.541 116.516 277.942C115.881 278.334 115.382 278.889 115.018 279.608C114.663 280.317 114.486 281.148 114.486 282.1C114.486 283.061 114.663 283.897 115.018 284.606C115.382 285.315 115.881 285.871 116.516 286.272C117.15 286.664 117.892 286.86 118.742 286.86C119.376 286.86 119.964 286.757 120.506 286.552C121.056 286.347 121.504 286.095 121.85 285.796H121.934ZM124.731 287V277.2H129.001V277.886L126.551 277.564C126.122 277.508 125.832 277.48 125.683 277.48V281.75C125.804 281.75 126.094 281.736 126.551 281.708L128.847 281.568V282.212L126.551 282.072C126.094 282.044 125.804 282.03 125.683 282.03V286.72C125.851 286.72 126.145 286.692 126.565 286.636L129.043 286.314V287H124.731ZM131.977 287V277.2H133.727C134.857 277.2 135.734 277.443 136.359 277.928C136.985 278.404 137.297 279.071 137.297 279.93C137.297 280.789 136.985 281.461 136.359 281.946C135.734 282.422 134.857 282.66 133.727 282.66H132.929V287H131.977ZM133.727 277.536H132.929V282.324H133.727C135.435 282.324 136.289 281.526 136.289 279.93C136.289 278.334 135.435 277.536 133.727 277.536ZM142.202 287V277.48C142.062 277.48 141.772 277.508 141.334 277.564L138.59 277.914V277.2H146.766V277.914L144.022 277.564C143.583 277.508 143.294 277.48 143.154 277.48V287H142.202ZM152.813 287V277.2H154.563C155.692 277.2 156.57 277.443 157.195 277.928C157.82 278.404 158.133 279.071 158.133 279.93C158.133 280.789 157.82 281.461 157.195 281.946C156.57 282.422 155.692 282.66 154.563 282.66H153.765V287H152.813ZM154.563 277.536H153.765V282.324H154.563C156.271 282.324 157.125 281.526 157.125 279.93C157.125 278.334 156.271 277.536 154.563 277.536ZM160.798 277.2H162.674C163.663 277.2 164.428 277.41 164.97 277.83C165.52 278.241 165.796 278.819 165.796 279.566C165.796 280.145 165.623 280.625 165.278 281.008C164.942 281.391 164.452 281.647 163.808 281.778V281.862C164.424 281.983 164.928 282.273 165.32 282.73C165.712 283.187 166.006 283.752 166.202 284.424C166.379 285.04 166.552 285.521 166.72 285.866C166.897 286.202 167.088 286.445 167.294 286.594C167.508 286.743 167.76 286.851 168.05 286.916V287H167.476C167.065 287 166.724 286.925 166.454 286.776C166.192 286.627 165.968 286.375 165.782 286.02C165.595 285.665 165.418 285.175 165.25 284.55C164.979 283.589 164.62 282.907 164.172 282.506C163.724 282.105 163.178 281.904 162.534 281.904H162.45V281.652H162.534C164.036 281.652 164.788 280.961 164.788 279.58C164.788 278.217 164.083 277.536 162.674 277.536H161.75V287H160.798V277.2ZM168.807 282.1C168.807 281.381 168.933 280.714 169.185 280.098C169.446 279.473 169.805 278.931 170.263 278.474C170.729 278.007 171.271 277.648 171.887 277.396C172.512 277.135 173.184 277.004 173.903 277.004C174.621 277.004 175.289 277.135 175.905 277.396C176.53 277.648 177.071 278.007 177.529 278.474C177.995 278.931 178.355 279.473 178.607 280.098C178.868 280.714 178.999 281.381 178.999 282.1C178.999 282.819 178.868 283.491 178.607 284.116C178.355 284.732 177.995 285.273 177.529 285.74C177.071 286.197 176.53 286.557 175.905 286.818C175.289 287.07 174.621 287.196 173.903 287.196C173.184 287.196 172.512 287.07 171.887 286.818C171.271 286.557 170.729 286.197 170.263 285.74C169.805 285.273 169.446 284.732 169.185 284.116C168.933 283.491 168.807 282.819 168.807 282.1ZM169.871 282.1C169.871 283.052 170.039 283.887 170.375 284.606C170.711 285.315 171.182 285.871 171.789 286.272C172.395 286.664 173.1 286.86 173.903 286.86C174.705 286.86 175.41 286.664 176.017 286.272C176.623 285.871 177.095 285.311 177.431 284.592C177.767 283.873 177.935 283.043 177.935 282.1C177.935 281.157 177.767 280.331 177.431 279.622C177.095 278.903 176.623 278.343 176.017 277.942C175.41 277.541 174.705 277.34 173.903 277.34C173.1 277.34 172.395 277.541 171.789 277.942C171.191 278.334 170.72 278.889 170.375 279.608C170.039 280.317 169.871 281.148 169.871 282.1ZM181.934 286.132V277.2H182.886V286.048C182.886 287.224 182.723 288.139 182.396 288.792C182.07 289.445 181.57 289.921 180.898 290.22L180.856 290.15C181.23 289.889 181.5 289.445 181.668 288.82C181.846 288.204 181.934 287.308 181.934 286.132ZM186.528 287V277.2H190.798V277.886L188.348 277.564C187.919 277.508 187.629 277.48 187.48 277.48V281.75C187.601 281.75 187.891 281.736 188.348 281.708L190.644 281.568V282.212L188.348 282.072C187.891 282.044 187.601 282.03 187.48 282.03V286.72C187.648 286.72 187.942 286.692 188.362 286.636L190.84 286.314V287H186.528ZM201.586 285.796L201.502 286.65C201.241 286.762 200.923 286.86 200.55 286.944C200.177 287.028 199.799 287.089 199.416 287.126C199.033 287.173 198.693 287.196 198.394 287.196C197.638 287.196 196.938 287.07 196.294 286.818C195.65 286.557 195.085 286.197 194.6 285.74C194.124 285.283 193.751 284.746 193.48 284.13C193.209 283.505 193.074 282.828 193.074 282.1C193.074 281.372 193.209 280.7 193.48 280.084C193.751 279.459 194.124 278.917 194.6 278.46C195.085 278.003 195.65 277.648 196.294 277.396C196.938 277.135 197.638 277.004 198.394 277.004C198.702 277.004 199.047 277.027 199.43 277.074C199.813 277.121 200.186 277.186 200.55 277.27C200.914 277.345 201.222 277.433 201.474 277.536L201.404 278.32H201.32C200.975 278.003 200.541 277.76 200.018 277.592C199.495 277.424 198.954 277.34 198.394 277.34C197.554 277.34 196.812 277.541 196.168 277.942C195.533 278.334 195.034 278.889 194.67 279.608C194.315 280.317 194.138 281.148 194.138 282.1C194.138 283.061 194.315 283.897 194.67 284.606C195.034 285.315 195.533 285.871 196.168 286.272C196.803 286.664 197.545 286.86 198.394 286.86C199.029 286.86 199.617 286.757 200.158 286.552C200.709 286.347 201.157 286.095 201.502 285.796H201.586ZM206.623 287V277.48C206.483 277.48 206.194 277.508 205.755 277.564L203.011 277.914V277.2H211.187V277.914L208.443 277.564C208.005 277.508 207.715 277.48 207.575 277.48V287H206.623ZM217.235 287V277.2H219.181C220.189 277.2 220.973 277.41 221.533 277.83C222.093 278.25 222.373 278.833 222.373 279.58C222.373 280.131 222.21 280.602 221.883 280.994C221.556 281.377 221.099 281.638 220.511 281.778V281.862C221.314 281.965 221.939 282.245 222.387 282.702C222.844 283.15 223.073 283.719 223.073 284.41C223.073 285.222 222.76 285.857 222.135 286.314C221.51 286.771 220.632 287 219.503 287H217.235ZM219.195 277.536H218.187V281.736H219.181C220.656 281.736 221.393 281.036 221.393 279.636C221.393 278.236 220.66 277.536 219.195 277.536ZM219.503 282.072H218.187V286.664H219.503C221.211 286.664 222.065 285.899 222.065 284.368C222.065 282.837 221.211 282.072 219.503 282.072ZM227.442 287V282.856L223.97 277.2H225.034L228.156 282.324H228.24L230.732 277.2H231.796L228.45 282.66V287H227.442ZM237.757 287V277.2H238.709V281.736H244.589V277.2H245.541V287H244.589V282.072H238.709V287H237.757ZM249.186 287V277.2H253.456V277.886L251.006 277.564C250.577 277.508 250.288 277.48 250.138 277.48V281.75C250.26 281.75 250.549 281.736 251.006 281.708L253.302 281.568V282.212L251.006 282.072C250.549 282.044 250.26 282.03 250.138 282.03V286.72C250.306 286.72 250.6 286.692 251.02 286.636L253.498 286.314V287H249.186ZM261.318 282.352V282.016H264.86V285.824C264.431 286.253 263.904 286.589 263.278 286.832C262.662 287.075 261.972 287.196 261.206 287.196C260.422 287.196 259.699 287.07 259.036 286.818C258.374 286.557 257.795 286.197 257.3 285.74C256.806 285.273 256.418 284.732 256.138 284.116C255.868 283.5 255.732 282.828 255.732 282.1C255.732 281.372 255.868 280.7 256.138 280.084C256.418 279.468 256.806 278.931 257.3 278.474C257.795 278.007 258.374 277.648 259.036 277.396C259.699 277.135 260.422 277.004 261.206 277.004C261.542 277.004 261.906 277.027 262.298 277.074C262.7 277.121 263.082 277.186 263.446 277.27C263.81 277.345 264.118 277.438 264.37 277.55L264.3 278.334H264.216C263.843 278.007 263.395 277.76 262.872 277.592C262.35 277.424 261.794 277.34 261.206 277.34C260.329 277.34 259.559 277.541 258.896 277.942C258.234 278.334 257.716 278.889 257.342 279.608C256.978 280.317 256.796 281.148 256.796 282.1C256.796 283.052 256.978 283.887 257.342 284.606C257.716 285.315 258.234 285.871 258.896 286.272C259.559 286.664 260.329 286.86 261.206 286.86C261.748 286.86 262.247 286.785 262.704 286.636C263.171 286.487 263.572 286.272 263.908 285.992V282.352H261.318ZM267.381 282.1C267.381 281.381 267.507 280.714 267.759 280.098C268.02 279.473 268.379 278.931 268.837 278.474C269.303 278.007 269.845 277.648 270.461 277.396C271.086 277.135 271.758 277.004 272.477 277.004C273.195 277.004 273.863 277.135 274.479 277.396C275.104 277.648 275.645 278.007 276.103 278.474C276.569 278.931 276.929 279.473 277.181 280.098C277.442 280.714 277.573 281.381 277.573 282.1C277.573 282.819 277.442 283.491 277.181 284.116C276.929 284.732 276.569 285.273 276.103 285.74C275.645 286.197 275.104 286.557 274.479 286.818C273.863 287.07 273.195 287.196 272.477 287.196C271.758 287.196 271.086 287.07 270.461 286.818C269.845 286.557 269.303 286.197 268.837 285.74C268.379 285.273 268.02 284.732 267.759 284.116C267.507 283.491 267.381 282.819 267.381 282.1ZM268.445 282.1C268.445 283.052 268.613 283.887 268.949 284.606C269.285 285.315 269.756 285.871 270.363 286.272C270.969 286.664 271.674 286.86 272.477 286.86C273.279 286.86 273.984 286.664 274.591 286.272C275.197 285.871 275.669 285.311 276.005 284.592C276.341 283.873 276.509 283.043 276.509 282.1C276.509 281.157 276.341 280.331 276.005 279.622C275.669 278.903 275.197 278.343 274.591 277.942C273.984 277.541 273.279 277.34 272.477 277.34C271.674 277.34 270.969 277.541 270.363 277.942C269.765 278.334 269.294 278.889 268.949 279.608C268.613 280.317 268.445 281.148 268.445 282.1ZM280.508 277.2H281.46V286.72C281.638 286.72 281.918 286.692 282.3 286.636L284.624 286.286V287H280.508V277.2ZM293.192 287H285.772V286.72L292.016 277.48C291.866 277.48 291.526 277.499 290.994 277.536L286.136 277.886V277.2H293.136V277.48L286.892 286.72C287.05 286.72 287.391 286.701 287.914 286.664L293.192 286.286V287Z" fill="#FFFEFE"/>
</svg>
