<svg width="371" height="321" viewBox="0 0 371 321" fill="none" xmlns="http://www.w3.org/2000/svg">
<rect width="371" height="321" fill="black"/>
<path d="M116.031 99.4688H133.375V111.281H130.125C124.479 111.281 120.625 110.396 118.562 108.625C116.875 107.167 116.031 104.812 116.031 101.562V99.4688ZM93.8125 99.4688H110.625V116.594H123.156V124.75H110.625V141.938H93.8125V99.4688ZM164.062 99.4688H166.5C174.229 99.4688 179.333 102.917 181.812 109.812C182.812 112.646 183.312 115.906 183.312 119.594C183.312 125.802 182.115 130.917 179.719 134.938C176.885 139.646 172.479 142 166.5 142H164.062V99.4688ZM156.531 142C148.844 142 143.75 138.104 141.25 130.312C140.229 127.146 139.719 123.573 139.719 119.594C139.719 111.49 141.969 105.771 146.469 102.438C149.115 100.458 152.469 99.4688 156.531 99.4688H158.969V142H156.531ZM212 99.4688H214.438C222.167 99.4688 227.271 102.917 229.75 109.812C230.75 112.646 231.25 115.906 231.25 119.594C231.25 125.802 230.052 130.917 227.656 134.938C224.823 139.646 220.417 142 214.438 142H212V99.4688ZM204.469 142C196.781 142 191.688 138.104 189.188 130.312C188.167 127.146 187.656 123.573 187.656 119.594C187.656 111.49 189.906 105.771 194.406 102.438C197.052 100.458 200.406 99.4688 204.469 99.4688H206.906V142H204.469ZM258.812 99.4688H261.438C270.271 99.4688 275.521 103.354 277.188 111.125C277.708 113.479 277.969 116.229 277.969 119.375C277.969 122.521 277.635 125.521 276.969 128.375C276.323 131.229 275.323 133.667 273.969 135.688C271.156 139.896 266.979 142 261.438 142H258.812V99.4688ZM236.812 99.4688H253.625V141.938H236.812V99.4688Z" fill="white"/>
<path d="M82.4945 183C82.4945 181.973 82.6745 181.02 83.0345 180.14C83.4079 179.247 83.9212 178.473 84.5745 177.82C85.2412 177.153 86.0145 176.64 86.8945 176.28C87.7879 175.907 88.7479 175.72 89.7745 175.72C90.8012 175.72 91.7545 175.907 92.6345 176.28C93.5279 176.64 94.3012 177.153 94.9545 177.82C95.6212 178.473 96.1345 179.247 96.4945 180.14C96.8679 181.02 97.0545 181.973 97.0545 183C97.0545 184.027 96.8679 184.987 96.4945 185.88C96.1345 186.76 95.6212 187.533 94.9545 188.2C94.3012 188.853 93.5279 189.367 92.6345 189.74C91.7545 190.1 90.8012 190.28 89.7745 190.28C88.7479 190.28 87.7879 190.1 86.8945 189.74C86.0145 189.367 85.2412 188.853 84.5745 188.2C83.9212 187.533 83.4079 186.76 83.0345 185.88C82.6745 184.987 82.4945 184.027 82.4945 183ZM84.0145 183C84.0145 184.36 84.2545 185.553 84.7345 186.58C85.2145 187.593 85.8879 188.387 86.7545 188.96C87.6212 189.52 88.6279 189.8 89.7745 189.8C90.9212 189.8 91.9279 189.52 92.7945 188.96C93.6612 188.387 94.3345 187.587 94.8145 186.56C95.2945 185.533 95.5345 184.347 95.5345 183C95.5345 181.653 95.2945 180.473 94.8145 179.46C94.3345 178.433 93.6612 177.633 92.7945 177.06C91.9279 176.487 90.9212 176.2 89.7745 176.2C88.6279 176.2 87.6212 176.487 86.7545 177.06C85.9012 177.62 85.2279 178.413 84.7345 179.44C84.2545 180.453 84.0145 181.64 84.0145 183ZM100.948 190L101.448 175.72H101.688L111.748 187.88H111.868L111.428 176H112.788L112.288 190.28H112.048L101.988 178.12H101.868L102.308 190H100.948ZM117.694 176H119.054V189.6C119.307 189.6 119.707 189.56 120.254 189.48L123.574 188.98V190H117.694V176ZM126.913 190V176H128.273V190H126.913ZM133.175 190L133.675 175.72H133.915L143.975 187.88H144.095L143.655 176H145.015L144.515 190.28H144.275L134.215 178.12H134.095L134.535 190H133.175ZM149.92 190V176H156.02V176.98L152.52 176.52C151.907 176.44 151.494 176.4 151.28 176.4V182.5C151.454 182.5 151.867 182.48 152.52 182.44L155.8 182.24V183.16L152.52 182.96C151.867 182.92 151.454 182.9 151.28 182.9V189.6C151.52 189.6 151.94 189.56 152.54 189.48L156.08 189.02V190H149.92ZM164.663 183C164.663 181.973 164.843 181.02 165.203 180.14C165.576 179.247 166.089 178.473 166.743 177.82C167.409 177.153 168.183 176.64 169.063 176.28C169.956 175.907 170.916 175.72 171.943 175.72C172.969 175.72 173.923 175.907 174.803 176.28C175.696 176.64 176.469 177.153 177.123 177.82C177.789 178.473 178.303 179.247 178.663 180.14C179.036 181.02 179.223 181.973 179.223 183C179.223 184.027 179.036 184.987 178.663 185.88C178.303 186.76 177.789 187.533 177.123 188.2C176.469 188.853 175.696 189.367 174.803 189.74C173.923 190.1 172.969 190.28 171.943 190.28C170.916 190.28 169.956 190.1 169.063 189.74C168.183 189.367 167.409 188.853 166.743 188.2C166.089 187.533 165.576 186.76 165.203 185.88C164.843 184.987 164.663 184.027 164.663 183ZM166.183 183C166.183 184.36 166.423 185.553 166.903 186.58C167.383 187.593 168.056 188.387 168.923 188.96C169.789 189.52 170.796 189.8 171.943 189.8C173.089 189.8 174.096 189.52 174.963 188.96C175.829 188.387 176.503 187.587 176.983 186.56C177.463 185.533 177.703 184.347 177.703 183C177.703 181.653 177.463 180.473 176.983 179.46C176.503 178.433 175.829 177.633 174.963 177.06C174.096 176.487 173.089 176.2 171.943 176.2C170.796 176.2 169.789 176.487 168.923 177.06C168.069 177.62 167.396 178.413 166.903 179.44C166.423 180.453 166.183 181.64 166.183 183ZM183.416 176H186.096C187.51 176 188.603 176.3 189.376 176.9C190.163 177.487 190.556 178.313 190.556 179.38C190.556 180.207 190.31 180.893 189.816 181.44C189.336 181.987 188.636 182.353 187.716 182.54V182.66C188.596 182.833 189.316 183.247 189.876 183.9C190.436 184.553 190.856 185.36 191.136 186.32C191.39 187.2 191.636 187.887 191.876 188.38C192.13 188.86 192.403 189.207 192.696 189.42C193.003 189.633 193.363 189.787 193.776 189.88V190H192.956C192.37 190 191.883 189.893 191.496 189.68C191.123 189.467 190.803 189.107 190.536 188.6C190.27 188.093 190.016 187.393 189.776 186.5C189.39 185.127 188.876 184.153 188.236 183.58C187.596 183.007 186.816 182.72 185.896 182.72H185.776V182.36H185.896C188.043 182.36 189.116 181.373 189.116 179.4C189.116 177.453 188.11 176.48 186.096 176.48H184.776V190H183.416V176ZM196.248 190V176H200.648C202.195 176 203.542 176.293 204.688 176.88C205.835 177.467 206.728 178.287 207.368 179.34C208.008 180.38 208.328 181.6 208.328 183C208.328 184.4 208.008 185.627 207.368 186.68C206.728 187.72 205.835 188.533 204.688 189.12C203.542 189.707 202.195 190 200.648 190H196.248ZM200.648 176.48H197.608V189.52H200.648C202.582 189.52 204.088 188.947 205.168 187.8C206.262 186.653 206.808 185.053 206.808 183C206.808 180.947 206.262 179.347 205.168 178.2C204.088 177.053 202.582 176.48 200.648 176.48ZM212.538 190V176H218.638V176.98L215.138 176.52C214.524 176.44 214.111 176.4 213.898 176.4V182.5C214.071 182.5 214.484 182.48 215.138 182.44L218.418 182.24V183.16L215.138 182.96C214.484 182.92 214.071 182.9 213.898 182.9V189.6C214.138 189.6 214.558 189.56 215.158 189.48L218.698 189.02V190H212.538ZM222.889 176H225.569C226.982 176 228.076 176.3 228.849 176.9C229.636 177.487 230.029 178.313 230.029 179.38C230.029 180.207 229.782 180.893 229.289 181.44C228.809 181.987 228.109 182.353 227.189 182.54V182.66C228.069 182.833 228.789 183.247 229.349 183.9C229.909 184.553 230.329 185.36 230.609 186.32C230.862 187.2 231.109 187.887 231.349 188.38C231.602 188.86 231.876 189.207 232.169 189.42C232.476 189.633 232.836 189.787 233.249 189.88V190H232.429C231.842 190 231.356 189.893 230.969 189.68C230.596 189.467 230.276 189.107 230.009 188.6C229.742 188.093 229.489 187.393 229.249 186.5C228.862 185.127 228.349 184.153 227.709 183.58C227.069 183.007 226.289 182.72 225.369 182.72H225.249V182.36H225.369C227.516 182.36 228.589 181.373 228.589 179.4C228.589 177.453 227.582 176.48 225.569 176.48H224.249V190H222.889V176ZM235.721 190V176H237.081V190H235.721ZM241.984 190L242.484 175.72H242.724L252.784 187.88H252.904L252.464 176H253.824L253.324 190.28H253.084L243.024 178.12H242.904L243.344 190H241.984ZM265.709 183.36V182.88H270.769V188.32C270.156 188.933 269.402 189.413 268.509 189.76C267.629 190.107 266.642 190.28 265.549 190.28C264.429 190.28 263.396 190.1 262.449 189.74C261.502 189.367 260.676 188.853 259.969 188.2C259.262 187.533 258.709 186.76 258.309 185.88C257.922 185 257.729 184.04 257.729 183C257.729 181.96 257.922 181 258.309 180.12C258.709 179.24 259.262 178.473 259.969 177.82C260.676 177.153 261.502 176.64 262.449 176.28C263.396 175.907 264.429 175.72 265.549 175.72C266.029 175.72 266.549 175.753 267.109 175.82C267.682 175.887 268.229 175.98 268.749 176.1C269.269 176.207 269.709 176.34 270.069 176.5L269.969 177.62H269.849C269.316 177.153 268.676 176.8 267.929 176.56C267.182 176.32 266.389 176.2 265.549 176.2C264.296 176.2 263.196 176.487 262.249 177.06C261.302 177.62 260.562 178.413 260.029 179.44C259.509 180.453 259.249 181.64 259.249 183C259.249 184.36 259.509 185.553 260.029 186.58C260.562 187.593 261.302 188.387 262.249 188.96C263.196 189.52 264.296 189.8 265.549 189.8C266.322 189.8 267.036 189.693 267.689 189.48C268.356 189.267 268.929 188.96 269.409 188.56V183.36H265.709ZM289.8 190L287.92 187.96C287.373 188.773 286.78 189.367 286.14 189.74C285.513 190.1 284.767 190.28 283.9 190.28C283.033 190.28 282.273 190.127 281.62 189.82C280.967 189.5 280.46 189.06 280.1 188.5C279.74 187.927 279.56 187.267 279.56 186.52C279.56 185.6 279.833 184.787 280.38 184.08C280.94 183.36 281.74 182.793 282.78 182.38L282.62 182.2C282.007 181.533 281.567 180.933 281.3 180.4C281.033 179.853 280.9 179.293 280.9 178.72C280.9 177.813 281.187 177.087 281.76 176.54C282.333 175.993 283.087 175.72 284.02 175.72C284.927 175.72 285.653 175.973 286.2 176.48C286.76 176.973 287.04 177.633 287.04 178.46C287.04 179.207 286.793 179.9 286.3 180.54C285.82 181.18 285.167 181.713 284.34 182.14L288.26 186.4L289.66 182.68H291.02L288.58 186.74L291.58 190H289.8ZM283.52 181.26L284.06 181.84C285.207 181.08 285.78 180 285.78 178.6C285.78 177.84 285.62 177.253 285.3 176.84C284.993 176.413 284.567 176.2 284.02 176.2C283.473 176.2 283.013 176.407 282.64 176.82C282.28 177.22 282.1 177.753 282.1 178.42C282.1 178.873 282.213 179.327 282.44 179.78C282.667 180.22 283.027 180.713 283.52 181.26ZM280.86 186.36C280.86 187.387 281.16 188.22 281.76 188.86C282.373 189.487 283.167 189.8 284.14 189.8C285.473 189.8 286.627 189.067 287.6 187.6L283.08 182.68C281.6 183.467 280.86 184.693 280.86 186.36ZM79.725 209V195H84.125C85.6717 195 87.0183 195.293 88.165 195.88C89.3117 196.467 90.205 197.287 90.845 198.34C91.485 199.38 91.805 200.6 91.805 202C91.805 203.4 91.485 204.627 90.845 205.68C90.205 206.72 89.3117 207.533 88.165 208.12C87.0183 208.707 85.6717 209 84.125 209H79.725ZM84.125 195.48H81.085V208.52H84.125C86.0583 208.52 87.565 207.947 88.645 206.8C89.7383 205.653 90.285 204.053 90.285 202C90.285 199.947 89.7383 198.347 88.645 197.2C87.565 196.053 86.0583 195.48 84.125 195.48ZM96.0141 209V195H102.114V195.98L98.6141 195.52C98.0007 195.44 97.5874 195.4 97.3741 195.4V201.5C97.5474 201.5 97.9607 201.48 98.6141 201.44L101.894 201.24V202.16L98.6141 201.96C97.9607 201.92 97.5474 201.9 97.3741 201.9V208.6C97.6141 208.6 98.0341 208.56 98.6341 208.48L102.174 208.02V209H96.0141ZM106.366 195H107.726V208.6C107.979 208.6 108.379 208.56 108.926 208.48L112.246 207.98V209H106.366V195ZM115.584 209V195H116.944V209H115.584ZM120.187 195H121.687L127.147 207.44H127.267L131.847 195H133.347L126.987 209.28H126.547L120.187 195ZM136.463 209V195H142.563V195.98L139.063 195.52C138.45 195.44 138.037 195.4 137.823 195.4V201.5C137.997 201.5 138.41 201.48 139.063 201.44L142.343 201.24V202.16L139.063 201.96C138.41 201.92 137.997 201.9 137.823 201.9V208.6C138.063 208.6 138.483 208.56 139.083 208.48L142.623 208.02V209H136.463ZM146.815 195H149.495C150.908 195 152.002 195.3 152.775 195.9C153.562 196.487 153.955 197.313 153.955 198.38C153.955 199.207 153.708 199.893 153.215 200.44C152.735 200.987 152.035 201.353 151.115 201.54V201.66C151.995 201.833 152.715 202.247 153.275 202.9C153.835 203.553 154.255 204.36 154.535 205.32C154.788 206.2 155.035 206.887 155.275 207.38C155.528 207.86 155.802 208.207 156.095 208.42C156.402 208.633 156.762 208.787 157.175 208.88V209H156.355C155.768 209 155.282 208.893 154.895 208.68C154.522 208.467 154.202 208.107 153.935 207.6C153.668 207.093 153.415 206.393 153.175 205.5C152.788 204.127 152.275 203.153 151.635 202.58C150.995 202.007 150.215 201.72 149.295 201.72H149.175V201.36H149.295C151.442 201.36 152.515 200.373 152.515 198.4C152.515 196.453 151.508 195.48 149.495 195.48H148.175V209H146.815V195ZM161.846 209V203.08L156.886 195H158.406L162.866 202.32H162.986L166.546 195H168.066L163.286 202.8V209H161.846ZM174.62 195H176.08L180.98 207.24H181.1L184.3 199.32L182.56 195H184.02L188.9 207.2H189.02L193.06 195H194.52L188.76 209.28H188.32L184.58 199.98L180.82 209.28H180.38L174.62 195ZM196.44 202C196.44 200.973 196.62 200.02 196.98 199.14C197.353 198.247 197.867 197.473 198.52 196.82C199.187 196.153 199.96 195.64 200.84 195.28C201.733 194.907 202.693 194.72 203.72 194.72C204.747 194.72 205.7 194.907 206.58 195.28C207.473 195.64 208.247 196.153 208.9 196.82C209.567 197.473 210.08 198.247 210.44 199.14C210.813 200.02 211 200.973 211 202C211 203.027 210.813 203.987 210.44 204.88C210.08 205.76 209.567 206.533 208.9 207.2C208.247 207.853 207.473 208.367 206.58 208.74C205.7 209.1 204.747 209.28 203.72 209.28C202.693 209.28 201.733 209.1 200.84 208.74C199.96 208.367 199.187 207.853 198.52 207.2C197.867 206.533 197.353 205.76 196.98 204.88C196.62 203.987 196.44 203.027 196.44 202ZM197.96 202C197.96 203.36 198.2 204.553 198.68 205.58C199.16 206.593 199.833 207.387 200.7 207.96C201.567 208.52 202.573 208.8 203.72 208.8C204.867 208.8 205.873 208.52 206.74 207.96C207.607 207.387 208.28 206.587 208.76 205.56C209.24 204.533 209.48 203.347 209.48 202C209.48 200.653 209.24 199.473 208.76 198.46C208.28 197.433 207.607 196.633 206.74 196.06C205.873 195.487 204.867 195.2 203.72 195.2C202.573 195.2 201.567 195.487 200.7 196.06C199.847 196.62 199.173 197.413 198.68 198.44C198.2 199.453 197.96 200.64 197.96 202ZM215.194 195H217.874C219.287 195 220.38 195.3 221.154 195.9C221.94 196.487 222.334 197.313 222.334 198.38C222.334 199.207 222.087 199.893 221.594 200.44C221.114 200.987 220.414 201.353 219.494 201.54V201.66C220.374 201.833 221.094 202.247 221.654 202.9C222.214 203.553 222.634 204.36 222.914 205.32C223.167 206.2 223.414 206.887 223.654 207.38C223.907 207.86 224.18 208.207 224.474 208.42C224.78 208.633 225.14 208.787 225.554 208.88V209H224.734C224.147 209 223.66 208.893 223.274 208.68C222.9 208.467 222.58 208.107 222.314 207.6C222.047 207.093 221.794 206.393 221.554 205.5C221.167 204.127 220.654 203.153 220.014 202.58C219.374 202.007 218.594 201.72 217.674 201.72H217.554V201.36H217.674C219.82 201.36 220.894 200.373 220.894 198.4C220.894 196.453 219.887 195.48 217.874 195.48H216.554V209H215.194V195ZM236.666 209L230.106 201.82L236.186 195H237.906L231.326 201.26L238.466 209H236.666ZM228.026 209V195H229.386V209H228.026ZM241.463 209V195H247.343V195.98L244.023 195.52C243.423 195.44 243.023 195.4 242.823 195.4V201.66C243.037 201.66 243.45 201.64 244.063 201.6L247.123 201.4V202.32L244.063 202.12C243.45 202.08 243.037 202.06 242.823 202.06V209H241.463ZM251.248 195H252.608V208.6C252.862 208.6 253.262 208.56 253.808 208.48L257.128 207.98V209H251.248V195ZM258.862 202C258.862 200.973 259.042 200.02 259.402 199.14C259.775 198.247 260.288 197.473 260.942 196.82C261.608 196.153 262.382 195.64 263.262 195.28C264.155 194.907 265.115 194.72 266.142 194.72C267.168 194.72 268.122 194.907 269.002 195.28C269.895 195.64 270.668 196.153 271.322 196.82C271.988 197.473 272.502 198.247 272.862 199.14C273.235 200.02 273.422 200.973 273.422 202C273.422 203.027 273.235 203.987 272.862 204.88C272.502 205.76 271.988 206.533 271.322 207.2C270.668 207.853 269.895 208.367 269.002 208.74C268.122 209.1 267.168 209.28 266.142 209.28C265.115 209.28 264.155 209.1 263.262 208.74C262.382 208.367 261.608 207.853 260.942 207.2C260.288 206.533 259.775 205.76 259.402 204.88C259.042 203.987 258.862 203.027 258.862 202ZM260.382 202C260.382 203.36 260.622 204.553 261.102 205.58C261.582 206.593 262.255 207.387 263.122 207.96C263.988 208.52 264.995 208.8 266.142 208.8C267.288 208.8 268.295 208.52 269.162 207.96C270.028 207.387 270.702 206.587 271.182 205.56C271.662 204.533 271.902 203.347 271.902 202C271.902 200.653 271.662 199.473 271.182 198.46C270.702 197.433 270.028 196.633 269.162 196.06C268.295 195.487 267.288 195.2 266.142 195.2C264.995 195.2 263.988 195.487 263.122 196.06C262.268 196.62 261.595 197.413 261.102 198.44C260.622 199.453 260.382 200.64 260.382 202ZM275.46 195H276.92L281.82 207.24H281.94L285.14 199.32L283.4 195H284.86L289.74 207.2H289.86L293.9 195H295.36L289.6 209.28H289.16L285.42 199.98L281.66 209.28H281.22L275.46 195Z" fill="white"/>
<path d="M87.6584 285.796L87.5744 286.65C87.313 286.762 86.9957 286.86 86.6224 286.944C86.249 287.028 85.871 287.089 85.4884 287.126C85.1057 287.173 84.765 287.196 84.4664 287.196C83.7104 287.196 83.0104 287.07 82.3664 286.818C81.7224 286.557 81.1577 286.197 80.6724 285.74C80.1964 285.283 79.823 284.746 79.5524 284.13C79.2817 283.505 79.1464 282.828 79.1464 282.1C79.1464 281.372 79.2817 280.7 79.5524 280.084C79.823 279.459 80.1964 278.917 80.6724 278.46C81.1577 278.003 81.7224 277.648 82.3664 277.396C83.0104 277.135 83.7104 277.004 84.4664 277.004C84.7744 277.004 85.1197 277.027 85.5024 277.074C85.885 277.121 86.2584 277.186 86.6224 277.27C86.9864 277.345 87.2944 277.433 87.5464 277.536L87.4764 278.32H87.3924C87.047 278.003 86.613 277.76 86.0904 277.592C85.5677 277.424 85.0264 277.34 84.4664 277.34C83.6264 277.34 82.8844 277.541 82.2404 277.942C81.6057 278.334 81.1064 278.889 80.7424 279.608C80.3877 280.317 80.2104 281.148 80.2104 282.1C80.2104 283.061 80.3877 283.897 80.7424 284.606C81.1064 285.315 81.6057 285.871 82.2404 286.272C82.875 286.664 83.617 286.86 84.4664 286.86C85.101 286.86 85.689 286.757 86.2304 286.552C86.781 286.347 87.229 286.095 87.5744 285.796H87.6584ZM89.4823 282.1C89.4823 281.381 89.6083 280.714 89.8603 280.098C90.1216 279.473 90.481 278.931 90.9383 278.474C91.405 278.007 91.9463 277.648 92.5623 277.396C93.1876 277.135 93.8596 277.004 94.5783 277.004C95.297 277.004 95.9643 277.135 96.5803 277.396C97.2056 277.648 97.747 278.007 98.2043 278.474C98.671 278.931 99.0303 279.473 99.2823 280.098C99.5436 280.714 99.6743 281.381 99.6743 282.1C99.6743 282.819 99.5436 283.491 99.2823 284.116C99.0303 284.732 98.671 285.273 98.2043 285.74C97.747 286.197 97.2056 286.557 96.5803 286.818C95.9643 287.07 95.297 287.196 94.5783 287.196C93.8596 287.196 93.1876 287.07 92.5623 286.818C91.9463 286.557 91.405 286.197 90.9383 285.74C90.481 285.273 90.1216 284.732 89.8603 284.116C89.6083 283.491 89.4823 282.819 89.4823 282.1ZM90.5463 282.1C90.5463 283.052 90.7143 283.887 91.0503 284.606C91.3863 285.315 91.8576 285.871 92.4643 286.272C93.071 286.664 93.7756 286.86 94.5783 286.86C95.381 286.86 96.0856 286.664 96.6923 286.272C97.299 285.871 97.7703 285.311 98.1063 284.592C98.4423 283.873 98.6103 283.043 98.6103 282.1C98.6103 281.157 98.4423 280.331 98.1063 279.622C97.7703 278.903 97.299 278.343 96.6923 277.942C96.0856 277.541 95.381 277.34 94.5783 277.34C93.7756 277.34 93.071 277.541 92.4643 277.942C91.867 278.334 91.3956 278.889 91.0503 279.608C90.7143 280.317 90.5463 281.148 90.5463 282.1ZM102.4 287L102.75 277.004H102.918L109.96 285.516H110.044L109.736 277.2H110.688L110.338 287.196H110.17L103.128 278.684H103.044L103.352 287H102.4ZM121.934 285.796L121.85 286.65C121.588 286.762 121.271 286.86 120.898 286.944C120.524 287.028 120.146 287.089 119.764 287.126C119.381 287.173 119.04 287.196 118.742 287.196C117.986 287.196 117.286 287.07 116.642 286.818C115.998 286.557 115.433 286.197 114.948 285.74C114.472 285.283 114.098 284.746 113.828 284.13C113.557 283.505 113.422 282.828 113.422 282.1C113.422 281.372 113.557 280.7 113.828 280.084C114.098 279.459 114.472 278.917 114.948 278.46C115.433 278.003 115.998 277.648 116.642 277.396C117.286 277.135 117.986 277.004 118.742 277.004C119.05 277.004 119.395 277.027 119.778 277.074C120.16 277.121 120.534 277.186 120.898 277.27C121.262 277.345 121.57 277.433 121.822 277.536L121.752 278.32H121.668C121.322 278.003 120.888 277.76 120.366 277.592C119.843 277.424 119.302 277.34 118.742 277.34C117.902 277.34 117.16 277.541 116.516 277.942C115.881 278.334 115.382 278.889 115.018 279.608C114.663 280.317 114.486 281.148 114.486 282.1C114.486 283.061 114.663 283.897 115.018 284.606C115.382 285.315 115.881 285.871 116.516 286.272C117.15 286.664 117.892 286.86 118.742 286.86C119.376 286.86 119.964 286.757 120.506 286.552C121.056 286.347 121.504 286.095 121.85 285.796H121.934ZM124.731 287V277.2H129.001V277.886L126.551 277.564C126.122 277.508 125.832 277.48 125.683 277.48V281.75C125.804 281.75 126.094 281.736 126.551 281.708L128.847 281.568V282.212L126.551 282.072C126.094 282.044 125.804 282.03 125.683 282.03V286.72C125.851 286.72 126.145 286.692 126.565 286.636L129.043 286.314V287H124.731ZM131.977 287V277.2H133.727C134.857 277.2 135.734 277.443 136.359 277.928C136.985 278.404 137.297 279.071 137.297 279.93C137.297 280.789 136.985 281.461 136.359 281.946C135.734 282.422 134.857 282.66 133.727 282.66H132.929V287H131.977ZM133.727 277.536H132.929V282.324H133.727C135.435 282.324 136.289 281.526 136.289 279.93C136.289 278.334 135.435 277.536 133.727 277.536ZM142.202 287V277.48C142.062 277.48 141.772 277.508 141.334 277.564L138.59 277.914V277.2H146.766V277.914L144.022 277.564C143.583 277.508 143.294 277.48 143.154 277.48V287H142.202ZM152.813 287V277.2H154.563C155.692 277.2 156.57 277.443 157.195 277.928C157.82 278.404 158.133 279.071 158.133 279.93C158.133 280.789 157.82 281.461 157.195 281.946C156.57 282.422 155.692 282.66 154.563 282.66H153.765V287H152.813ZM154.563 277.536H153.765V282.324H154.563C156.271 282.324 157.125 281.526 157.125 279.93C157.125 278.334 156.271 277.536 154.563 277.536ZM160.798 277.2H162.674C163.663 277.2 164.428 277.41 164.97 277.83C165.52 278.241 165.796 278.819 165.796 279.566C165.796 280.145 165.623 280.625 165.278 281.008C164.942 281.391 164.452 281.647 163.808 281.778V281.862C164.424 281.983 164.928 282.273 165.32 282.73C165.712 283.187 166.006 283.752 166.202 284.424C166.379 285.04 166.552 285.521 166.72 285.866C166.897 286.202 167.088 286.445 167.294 286.594C167.508 286.743 167.76 286.851 168.05 286.916V287H167.476C167.065 287 166.724 286.925 166.454 286.776C166.192 286.627 165.968 286.375 165.782 286.02C165.595 285.665 165.418 285.175 165.25 284.55C164.979 283.589 164.62 282.907 164.172 282.506C163.724 282.105 163.178 281.904 162.534 281.904H162.45V281.652H162.534C164.036 281.652 164.788 280.961 164.788 279.58C164.788 278.217 164.083 277.536 162.674 277.536H161.75V287H160.798V277.2ZM168.807 282.1C168.807 281.381 168.933 280.714 169.185 280.098C169.446 279.473 169.805 278.931 170.263 278.474C170.729 278.007 171.271 277.648 171.887 277.396C172.512 277.135 173.184 277.004 173.903 277.004C174.621 277.004 175.289 277.135 175.905 277.396C176.53 277.648 177.071 278.007 177.529 278.474C177.995 278.931 178.355 279.473 178.607 280.098C178.868 280.714 178.999 281.381 178.999 282.1C178.999 282.819 178.868 283.491 178.607 284.116C178.355 284.732 177.995 285.273 177.529 285.74C177.071 286.197 176.53 286.557 175.905 286.818C175.289 287.07 174.621 287.196 173.903 287.196C173.184 287.196 172.512 287.07 171.887 286.818C171.271 286.557 170.729 286.197 170.263 285.74C169.805 285.273 169.446 284.732 169.185 284.116C168.933 283.491 168.807 282.819 168.807 282.1ZM169.871 282.1C169.871 283.052 170.039 283.887 170.375 284.606C170.711 285.315 171.182 285.871 171.789 286.272C172.395 286.664 173.1 286.86 173.903 286.86C174.705 286.86 175.41 286.664 176.017 286.272C176.623 285.871 177.095 285.311 177.431 284.592C177.767 283.873 177.935 283.043 177.935 282.1C177.935 281.157 177.767 280.331 177.431 279.622C177.095 278.903 176.623 278.343 176.017 277.942C175.41 277.541 174.705 277.34 173.903 277.34C173.1 277.34 172.395 277.541 171.789 277.942C171.191 278.334 170.72 278.889 170.375 279.608C170.039 280.317 169.871 281.148 169.871 282.1ZM181.934 286.132V277.2H182.886V286.048C182.886 287.224 182.723 288.139 182.396 288.792C182.07 289.445 181.57 289.921 180.898 290.22L180.856 290.15C181.23 289.889 181.5 289.445 181.668 288.82C181.846 288.204 181.934 287.308 181.934 286.132ZM186.528 287V277.2H190.798V277.886L188.348 277.564C187.919 277.508 187.629 277.48 187.48 277.48V281.75C187.601 281.75 187.891 281.736 188.348 281.708L190.644 281.568V282.212L188.348 282.072C187.891 282.044 187.601 282.03 187.48 282.03V286.72C187.648 286.72 187.942 286.692 188.362 286.636L190.84 286.314V287H186.528ZM201.586 285.796L201.502 286.65C201.241 286.762 200.923 286.86 200.55 286.944C200.177 287.028 199.799 287.089 199.416 287.126C199.033 287.173 198.693 287.196 198.394 287.196C197.638 287.196 196.938 287.07 196.294 286.818C195.65 286.557 195.085 286.197 194.6 285.74C194.124 285.283 193.751 284.746 193.48 284.13C193.209 283.505 193.074 282.828 193.074 282.1C193.074 281.372 193.209 280.7 193.48 280.084C193.751 279.459 194.124 278.917 194.6 278.46C195.085 278.003 195.65 277.648 196.294 277.396C196.938 277.135 197.638 277.004 198.394 277.004C198.702 277.004 199.047 277.027 199.43 277.074C199.813 277.121 200.186 277.186 200.55 277.27C200.914 277.345 201.222 277.433 201.474 277.536L201.404 278.32H201.32C200.975 278.003 200.541 277.76 200.018 277.592C199.495 277.424 198.954 277.34 198.394 277.34C197.554 277.34 196.812 277.541 196.168 277.942C195.533 278.334 195.034 278.889 194.67 279.608C194.315 280.317 194.138 281.148 194.138 282.1C194.138 283.061 194.315 283.897 194.67 284.606C195.034 285.315 195.533 285.871 196.168 286.272C196.803 286.664 197.545 286.86 198.394 286.86C199.029 286.86 199.617 286.757 200.158 286.552C200.709 286.347 201.157 286.095 201.502 285.796H201.586ZM206.623 287V277.48C206.483 277.48 206.194 277.508 205.755 277.564L203.011 277.914V277.2H211.187V277.914L208.443 277.564C208.005 277.508 207.715 277.48 207.575 277.48V287H206.623ZM217.235 287V277.2H219.181C220.189 277.2 220.973 277.41 221.533 277.83C222.093 278.25 222.373 278.833 222.373 279.58C222.373 280.131 222.21 280.602 221.883 280.994C221.556 281.377 221.099 281.638 220.511 281.778V281.862C221.314 281.965 221.939 282.245 222.387 282.702C222.844 283.15 223.073 283.719 223.073 284.41C223.073 285.222 222.76 285.857 222.135 286.314C221.51 286.771 220.632 287 219.503 287H217.235ZM219.195 277.536H218.187V281.736H219.181C220.656 281.736 221.393 281.036 221.393 279.636C221.393 278.236 220.66 277.536 219.195 277.536ZM219.503 282.072H218.187V286.664H219.503C221.211 286.664 222.065 285.899 222.065 284.368C222.065 282.837 221.211 282.072 219.503 282.072ZM227.442 287V282.856L223.97 277.2H225.034L228.156 282.324H228.24L230.732 277.2H231.796L228.45 282.66V287H227.442ZM237.757 287V277.2H238.709V281.736H244.589V277.2H245.541V287H244.589V282.072H238.709V287H237.757ZM249.186 287V277.2H253.456V277.886L251.006 277.564C250.577 277.508 250.288 277.48 250.138 277.48V281.75C250.26 281.75 250.549 281.736 251.006 281.708L253.302 281.568V282.212L251.006 282.072C250.549 282.044 250.26 282.03 250.138 282.03V286.72C250.306 286.72 250.6 286.692 251.02 286.636L253.498 286.314V287H249.186ZM261.318 282.352V282.016H264.86V285.824C264.431 286.253 263.904 286.589 263.278 286.832C262.662 287.075 261.972 287.196 261.206 287.196C260.422 287.196 259.699 287.07 259.036 286.818C258.374 286.557 257.795 286.197 257.3 285.74C256.806 285.273 256.418 284.732 256.138 284.116C255.868 283.5 255.732 282.828 255.732 282.1C255.732 281.372 255.868 280.7 256.138 280.084C256.418 279.468 256.806 278.931 257.3 278.474C257.795 278.007 258.374 277.648 259.036 277.396C259.699 277.135 260.422 277.004 261.206 277.004C261.542 277.004 261.906 277.027 262.298 277.074C262.7 277.121 263.082 277.186 263.446 277.27C263.81 277.345 264.118 277.438 264.37 277.55L264.3 278.334H264.216C263.843 278.007 263.395 277.76 262.872 277.592C262.35 277.424 261.794 277.34 261.206 277.34C260.329 277.34 259.559 277.541 258.896 277.942C258.234 278.334 257.716 278.889 257.342 279.608C256.978 280.317 256.796 281.148 256.796 282.1C256.796 283.052 256.978 283.887 257.342 284.606C257.716 285.315 258.234 285.871 258.896 286.272C259.559 286.664 260.329 286.86 261.206 286.86C261.748 286.86 262.247 286.785 262.704 286.636C263.171 286.487 263.572 286.272 263.908 285.992V282.352H261.318ZM267.381 282.1C267.381 281.381 267.507 280.714 267.759 280.098C268.02 279.473 268.379 278.931 268.837 278.474C269.303 278.007 269.845 277.648 270.461 277.396C271.086 277.135 271.758 277.004 272.477 277.004C273.195 277.004 273.863 277.135 274.479 277.396C275.104 277.648 275.645 278.007 276.103 278.474C276.569 278.931 276.929 279.473 277.181 280.098C277.442 280.714 277.573 281.381 277.573 282.1C277.573 282.819 277.442 283.491 277.181 284.116C276.929 284.732 276.569 285.273 276.103 285.74C275.645 286.197 275.104 286.557 274.479 286.818C273.863 287.07 273.195 287.196 272.477 287.196C271.758 287.196 271.086 287.07 270.461 286.818C269.845 286.557 269.303 286.197 268.837 285.74C268.379 285.273 268.02 284.732 267.759 284.116C267.507 283.491 267.381 282.819 267.381 282.1ZM268.445 282.1C268.445 283.052 268.613 283.887 268.949 284.606C269.285 285.315 269.756 285.871 270.363 286.272C270.969 286.664 271.674 286.86 272.477 286.86C273.279 286.86 273.984 286.664 274.591 286.272C275.197 285.871 275.669 285.311 276.005 284.592C276.341 283.873 276.509 283.043 276.509 282.1C276.509 281.157 276.341 280.331 276.005 279.622C275.669 278.903 275.197 278.343 274.591 277.942C273.984 277.541 273.279 277.34 272.477 277.34C271.674 277.34 270.969 277.541 270.363 277.942C269.765 278.334 269.294 278.889 268.949 279.608C268.613 280.317 268.445 281.148 268.445 282.1ZM280.508 277.2H281.46V286.72C281.638 286.72 281.918 286.692 282.3 286.636L284.624 286.286V287H280.508V277.2ZM293.192 287H285.772V286.72L292.016 277.48C291.866 277.48 291.526 277.499 290.994 277.536L286.136 277.886V277.2H293.136V277.48L286.892 286.72C287.05 286.72 287.391 286.701 287.914 286.664L293.192 286.286V287Z" fill="#FFFEFE"/>
</svg>
