<svg width="378" height="321" viewBox="0 0 378 321" fill="none" xmlns="http://www.w3.org/2000/svg">
<rect x="3" width="371" height="321" fill="black"/>
<path d="M44.2441 104.127H60.416V124.635H58.3359C53.2969 124.635 49.6836 123.766 47.4961 122.027C45.3281 120.289 44.2441 117.33 44.2441 113.15V104.127ZM38.3848 144C35.2207 144 32.4082 142.828 29.9473 140.484C27.7793 138.414 26.0801 135.66 24.8496 132.223C23.7168 129.059 23.1504 125.924 23.1504 122.818C23.1504 118.15 24.3027 114 26.6074 110.367C28.248 107.789 30.4062 105.973 33.082 104.918C34.4492 104.391 35.9727 104.127 37.6523 104.127H39.9082V144H38.3848ZM44.2441 136.354H58.8926V137.174C58.8926 138.99 58.2383 140.523 56.9297 141.773C55.3281 143.258 53.0527 144 50.1035 144H44.2441V136.354ZM89.0977 104.127H91.3828C98.6289 104.127 103.414 107.359 105.738 113.824C106.676 116.48 107.145 119.537 107.145 122.994C107.145 128.814 106.021 133.609 103.775 137.379C101.119 141.793 96.9883 144 91.3828 144H89.0977V104.127ZM82.0371 144C74.8301 144 70.0547 140.348 67.7109 133.043C66.7539 130.074 66.2754 126.725 66.2754 122.994C66.2754 115.396 68.3848 110.035 72.6035 106.91C75.084 105.055 78.2285 104.127 82.0371 104.127H84.3223V144H82.0371ZM157.711 104.098H160.348C167.535 104.098 171.832 106.539 173.238 111.422C173.688 113.004 173.912 114.83 173.912 116.9V144H157.711V104.098ZM135.973 104.098H152.262V144H135.973V104.098ZM114.176 104.098H130.465V144H114.176V104.098ZM202.33 104.127H204.498C210.299 104.127 214.635 105.523 217.506 108.316C220.143 110.875 221.461 114.498 221.461 119.186C221.461 123.346 220.094 126.695 217.359 129.234C214.449 131.93 210.436 133.277 205.318 133.277H202.33V104.127ZM181.295 104.127H197.057V143.941H181.295V104.127ZM249.029 104.127H251.666C258.854 104.127 263.141 106.559 264.527 111.422C264.996 113.023 265.23 114.859 265.23 116.93V144H249.029V104.127ZM227.408 116.93C227.408 112.613 228.395 109.449 230.367 107.438C232.535 105.23 236.07 104.127 240.973 104.127H243.609V144H227.408V116.93ZM293.795 104.127H296.432C303.619 104.127 307.906 106.559 309.293 111.422C309.762 113.023 309.996 114.859 309.996 116.93V144H293.795V104.127ZM272.525 104.127H288.287V144H272.525V104.127ZM354.879 145.084C354.879 154.322 350.24 158.941 340.963 158.941H339.146V104.127H354.879V145.084ZM317.555 104.127H333.756V144H331.119C323.932 144 319.645 141.559 318.258 136.676C317.789 135.094 317.555 133.268 317.555 131.197V104.127Z" fill="white"/>
<path d="M53.9123 188.28L53.7923 189.5C53.419 189.66 52.9657 189.8 52.4323 189.92C51.899 190.04 51.359 190.127 50.8123 190.18C50.2657 190.247 49.779 190.28 49.3523 190.28C48.2723 190.28 47.2723 190.1 46.3523 189.74C45.4323 189.367 44.6257 188.853 43.9323 188.2C43.2523 187.547 42.719 186.78 42.3323 185.9C41.9457 185.007 41.7523 184.04 41.7523 183C41.7523 181.96 41.9457 181 42.3323 180.12C42.719 179.227 43.2523 178.453 43.9323 177.8C44.6257 177.147 45.4323 176.64 46.3523 176.28C47.2723 175.907 48.2723 175.72 49.3523 175.72C49.7923 175.72 50.2857 175.753 50.8323 175.82C51.379 175.887 51.9123 175.98 52.4323 176.1C52.9523 176.207 53.3923 176.333 53.7523 176.48L53.6523 177.6H53.5323C53.039 177.147 52.419 176.8 51.6723 176.56C50.9257 176.32 50.1523 176.2 49.3523 176.2C48.1523 176.2 47.0923 176.487 46.1723 177.06C45.2657 177.62 44.5523 178.413 44.0323 179.44C43.5257 180.453 43.2723 181.64 43.2723 183C43.2723 184.373 43.5257 185.567 44.0323 186.58C44.5523 187.593 45.2657 188.387 46.1723 188.96C47.079 189.52 48.139 189.8 49.3523 189.8C50.259 189.8 51.099 189.653 51.8723 189.36C52.659 189.067 53.299 188.707 53.7923 188.28H53.9123ZM56.518 183C56.518 181.973 56.698 181.02 57.058 180.14C57.4313 179.247 57.9446 178.473 58.598 177.82C59.2646 177.153 60.038 176.64 60.918 176.28C61.8113 175.907 62.7713 175.72 63.798 175.72C64.8246 175.72 65.778 175.907 66.658 176.28C67.5513 176.64 68.3246 177.153 68.978 177.82C69.6446 178.473 70.158 179.247 70.518 180.14C70.8913 181.02 71.078 181.973 71.078 183C71.078 184.027 70.8913 184.987 70.518 185.88C70.158 186.76 69.6446 187.533 68.978 188.2C68.3246 188.853 67.5513 189.367 66.658 189.74C65.778 190.1 64.8246 190.28 63.798 190.28C62.7713 190.28 61.8113 190.1 60.918 189.74C60.038 189.367 59.2646 188.853 58.598 188.2C57.9446 187.533 57.4313 186.76 57.058 185.88C56.698 184.987 56.518 184.027 56.518 183ZM58.038 183C58.038 184.36 58.278 185.553 58.758 186.58C59.238 187.593 59.9113 188.387 60.778 188.96C61.6446 189.52 62.6513 189.8 63.798 189.8C64.9446 189.8 65.9513 189.52 66.818 188.96C67.6846 188.387 68.358 187.587 68.838 186.56C69.318 185.533 69.558 184.347 69.558 183C69.558 181.653 69.318 180.473 68.838 179.46C68.358 178.433 67.6846 177.633 66.818 177.06C65.9513 176.487 64.9446 176.2 63.798 176.2C62.6513 176.2 61.6446 176.487 60.778 177.06C59.9246 177.62 59.2513 178.413 58.758 179.44C58.278 180.453 58.038 181.64 58.038 183ZM75.2719 176H77.9519C79.3652 176 80.4585 176.3 81.2319 176.9C82.0185 177.487 82.4119 178.313 82.4119 179.38C82.4119 180.207 82.1652 180.893 81.6719 181.44C81.1919 181.987 80.4919 182.353 79.5719 182.54V182.66C80.4519 182.833 81.1719 183.247 81.7319 183.9C82.2919 184.553 82.7119 185.36 82.9919 186.32C83.2452 187.2 83.4919 187.887 83.7319 188.38C83.9852 188.86 84.2585 189.207 84.5519 189.42C84.8585 189.633 85.2185 189.787 85.6319 189.88V190H84.8119C84.2252 190 83.7385 189.893 83.3519 189.68C82.9785 189.467 82.6585 189.107 82.3919 188.6C82.1252 188.093 81.8719 187.393 81.6319 186.5C81.2452 185.127 80.7319 184.153 80.0919 183.58C79.4519 183.007 78.6719 182.72 77.7519 182.72H77.6319V182.36H77.7519C79.8985 182.36 80.9719 181.373 80.9719 179.4C80.9719 177.453 79.9652 176.48 77.9519 176.48H76.6319V190H75.2719V176ZM88.1039 190V176H90.6039C92.2172 176 93.4706 176.347 94.3639 177.04C95.2572 177.72 95.7039 178.673 95.7039 179.9C95.7039 181.127 95.2572 182.087 94.3639 182.78C93.4706 183.46 92.2172 183.8 90.6039 183.8H89.4639V190H88.1039ZM90.6039 176.48H89.4639V183.32H90.6039C93.0439 183.32 94.2639 182.18 94.2639 179.9C94.2639 177.62 93.0439 176.48 90.6039 176.48ZM98.5102 183C98.5102 181.973 98.6902 181.02 99.0502 180.14C99.4235 179.247 99.9368 178.473 100.59 177.82C101.257 177.153 102.03 176.64 102.91 176.28C103.803 175.907 104.763 175.72 105.79 175.72C106.817 175.72 107.77 175.907 108.65 176.28C109.543 176.64 110.317 177.153 110.97 177.82C111.637 178.473 112.15 179.247 112.51 180.14C112.883 181.02 113.07 181.973 113.07 183C113.07 184.027 112.883 184.987 112.51 185.88C112.15 186.76 111.637 187.533 110.97 188.2C110.317 188.853 109.543 189.367 108.65 189.74C107.77 190.1 106.817 190.28 105.79 190.28C104.763 190.28 103.803 190.1 102.91 189.74C102.03 189.367 101.257 188.853 100.59 188.2C99.9368 187.533 99.4235 186.76 99.0502 185.88C98.6902 184.987 98.5102 184.027 98.5102 183ZM100.03 183C100.03 184.36 100.27 185.553 100.75 186.58C101.23 187.593 101.903 188.387 102.77 188.96C103.637 189.52 104.643 189.8 105.79 189.8C106.937 189.8 107.943 189.52 108.81 188.96C109.677 188.387 110.35 187.587 110.83 186.56C111.31 185.533 111.55 184.347 111.55 183C111.55 181.653 111.31 180.473 110.83 179.46C110.35 178.433 109.677 177.633 108.81 177.06C107.943 176.487 106.937 176.2 105.79 176.2C104.643 176.2 103.637 176.487 102.77 177.06C101.917 177.62 101.243 178.413 100.75 179.44C100.27 180.453 100.03 181.64 100.03 183ZM117.264 176H119.944C121.357 176 122.451 176.3 123.224 176.9C124.011 177.487 124.404 178.313 124.404 179.38C124.404 180.207 124.157 180.893 123.664 181.44C123.184 181.987 122.484 182.353 121.564 182.54V182.66C122.444 182.833 123.164 183.247 123.724 183.9C124.284 184.553 124.704 185.36 124.984 186.32C125.237 187.2 125.484 187.887 125.724 188.38C125.977 188.86 126.251 189.207 126.544 189.42C126.851 189.633 127.211 189.787 127.624 189.88V190H126.804C126.217 190 125.731 189.893 125.344 189.68C124.971 189.467 124.651 189.107 124.384 188.6C124.117 188.093 123.864 187.393 123.624 186.5C123.237 185.127 122.724 184.153 122.084 183.58C121.444 183.007 120.664 182.72 119.744 182.72H119.624V182.36H119.744C121.891 182.36 122.964 181.373 122.964 179.4C122.964 177.453 121.957 176.48 119.944 176.48H118.624V190H117.264V176ZM128.622 190L134.002 176H135.242L140.622 190H139.162L136.682 183.44H132.142L130.082 190H128.622ZM134.142 177.04L132.282 182.96H136.502L134.262 177.04H134.142ZM145.874 190V176.4C145.674 176.4 145.261 176.44 144.634 176.52L140.714 177.02V176H152.394V177.02L148.474 176.52C147.848 176.44 147.434 176.4 147.234 176.4V190H145.874ZM155.643 190V176H161.743V176.98L158.243 176.52C157.63 176.44 157.216 176.4 157.003 176.4V182.5C157.176 182.5 157.59 182.48 158.243 182.44L161.523 182.24V183.16L158.243 182.96C157.59 182.92 157.176 182.9 157.003 182.9V189.6C157.243 189.6 157.663 189.56 158.263 189.48L161.803 189.02V190H155.643ZM171.385 190V176H173.885C175.498 176 176.752 176.347 177.645 177.04C178.538 177.72 178.985 178.673 178.985 179.9C178.985 181.127 178.538 182.087 177.645 182.78C176.752 183.46 175.498 183.8 173.885 183.8H172.745V190H171.385ZM173.885 176.48H172.745V183.32H173.885C176.325 183.32 177.545 182.18 177.545 179.9C177.545 177.62 176.325 176.48 173.885 176.48ZM182.791 176H185.471C186.885 176 187.978 176.3 188.751 176.9C189.538 177.487 189.931 178.313 189.931 179.38C189.931 180.207 189.685 180.893 189.191 181.44C188.711 181.987 188.011 182.353 187.091 182.54V182.66C187.971 182.833 188.691 183.247 189.251 183.9C189.811 184.553 190.231 185.36 190.511 186.32C190.765 187.2 191.011 187.887 191.251 188.38C191.505 188.86 191.778 189.207 192.071 189.42C192.378 189.633 192.738 189.787 193.151 189.88V190H192.331C191.745 190 191.258 189.893 190.871 189.68C190.498 189.467 190.178 189.107 189.911 188.6C189.645 188.093 189.391 187.393 189.151 186.5C188.765 185.127 188.251 184.153 187.611 183.58C186.971 183.007 186.191 182.72 185.271 182.72H185.151V182.36H185.271C187.418 182.36 188.491 181.373 188.491 179.4C188.491 177.453 187.485 176.48 185.471 176.48H184.151V190H182.791V176ZM195.623 190V176H201.723V176.98L198.223 176.52C197.61 176.44 197.197 176.4 196.983 176.4V182.5C197.157 182.5 197.57 182.48 198.223 182.44L201.503 182.24V183.16L198.223 182.96C197.57 182.92 197.157 182.9 196.983 182.9V189.6C197.223 189.6 197.643 189.56 198.243 189.48L201.783 189.02V190H195.623ZM204.755 189.56L204.875 188.36H204.995C205.515 188.813 206.102 189.167 206.755 189.42C207.408 189.673 208.055 189.8 208.695 189.8C209.602 189.8 210.335 189.553 210.895 189.06C211.455 188.553 211.735 187.88 211.735 187.04C211.735 186.573 211.628 186.14 211.415 185.74C211.215 185.34 210.875 184.933 210.395 184.52C209.928 184.107 209.282 183.66 208.455 183.18C207.882 182.847 207.335 182.5 206.815 182.14C206.295 181.767 205.868 181.34 205.535 180.86C205.202 180.367 205.035 179.78 205.035 179.1C205.035 178.087 205.402 177.273 206.135 176.66C206.868 176.033 207.835 175.72 209.035 175.72C209.568 175.72 210.142 175.78 210.755 175.9C211.368 176.007 211.842 176.147 212.175 176.32L212.075 177.44H211.955C211.195 176.613 210.222 176.2 209.035 176.2C208.182 176.2 207.495 176.42 206.975 176.86C206.455 177.287 206.195 177.867 206.195 178.6C206.195 179.147 206.335 179.62 206.615 180.02C206.908 180.407 207.282 180.76 207.735 181.08C208.188 181.387 208.675 181.687 209.195 181.98C209.795 182.327 210.375 182.693 210.935 183.08C211.508 183.467 211.975 183.933 212.335 184.48C212.708 185.013 212.895 185.687 212.895 186.5C212.895 187.247 212.722 187.907 212.375 188.48C212.028 189.04 211.535 189.48 210.895 189.8C210.268 190.12 209.535 190.28 208.695 190.28C208.162 190.28 207.535 190.213 206.815 190.08C206.095 189.947 205.408 189.773 204.755 189.56ZM216.834 190V176H222.934V176.98L219.434 176.52C218.821 176.44 218.408 176.4 218.194 176.4V182.5C218.368 182.5 218.781 182.48 219.434 182.44L222.714 182.24V183.16L219.434 182.96C218.781 182.92 218.368 182.9 218.194 182.9V189.6C218.434 189.6 218.854 189.56 219.454 189.48L222.994 189.02V190H216.834ZM226.886 190L227.386 175.72H227.626L237.686 187.88H237.806L237.366 176H238.726L238.226 190.28H237.986L227.926 178.12H227.806L228.246 190H226.886ZM246.831 190V176.4C246.631 176.4 246.218 176.44 245.591 176.52L241.671 177.02V176H253.351V177.02L249.431 176.52C248.805 176.44 248.391 176.4 248.191 176.4V190H246.831ZM253.329 190L258.709 176H259.949L265.329 190H263.869L261.389 183.44H256.849L254.789 190H253.329ZM258.849 177.04L256.989 182.96H261.209L258.969 177.04H258.849ZM270.581 190V176.4C270.381 176.4 269.968 176.44 269.341 176.52L265.421 177.02V176H277.101V177.02L273.181 176.52C272.555 176.44 272.141 176.4 271.941 176.4V190H270.581ZM280.35 190V176H281.71V190H280.35ZM285.913 183C285.913 181.973 286.093 181.02 286.453 180.14C286.826 179.247 287.339 178.473 287.993 177.82C288.659 177.153 289.433 176.64 290.313 176.28C291.206 175.907 292.166 175.72 293.193 175.72C294.219 175.72 295.173 175.907 296.053 176.28C296.946 176.64 297.719 177.153 298.373 177.82C299.039 178.473 299.553 179.247 299.913 180.14C300.286 181.02 300.473 181.973 300.473 183C300.473 184.027 300.286 184.987 299.913 185.88C299.553 186.76 299.039 187.533 298.373 188.2C297.719 188.853 296.946 189.367 296.053 189.74C295.173 190.1 294.219 190.28 293.193 190.28C292.166 190.28 291.206 190.1 290.313 189.74C289.433 189.367 288.659 188.853 287.993 188.2C287.339 187.533 286.826 186.76 286.453 185.88C286.093 184.987 285.913 184.027 285.913 183ZM287.433 183C287.433 184.36 287.673 185.553 288.153 186.58C288.633 187.593 289.306 188.387 290.173 188.96C291.039 189.52 292.046 189.8 293.193 189.8C294.339 189.8 295.346 189.52 296.213 188.96C297.079 188.387 297.753 187.587 298.233 186.56C298.713 185.533 298.953 184.347 298.953 183C298.953 181.653 298.713 180.473 298.233 179.46C297.753 178.433 297.079 177.633 296.213 177.06C295.346 176.487 294.339 176.2 293.193 176.2C292.046 176.2 291.039 176.487 290.173 177.06C289.319 177.62 288.646 178.413 288.153 179.44C287.673 180.453 287.433 181.64 287.433 183ZM304.366 190L304.866 175.72H305.106L315.166 187.88H315.286L314.846 176H316.206L315.706 190.28H315.466L305.406 178.12H305.286L305.726 190H304.366ZM335.542 190L333.662 187.96C333.116 188.773 332.522 189.367 331.882 189.74C331.256 190.1 330.509 190.28 329.642 190.28C328.776 190.28 328.016 190.127 327.362 189.82C326.709 189.5 326.202 189.06 325.842 188.5C325.482 187.927 325.302 187.267 325.302 186.52C325.302 185.6 325.576 184.787 326.122 184.08C326.682 183.36 327.482 182.793 328.522 182.38L328.362 182.2C327.749 181.533 327.309 180.933 327.042 180.4C326.776 179.853 326.642 179.293 326.642 178.72C326.642 177.813 326.929 177.087 327.502 176.54C328.076 175.993 328.829 175.72 329.762 175.72C330.669 175.72 331.396 175.973 331.942 176.48C332.502 176.973 332.782 177.633 332.782 178.46C332.782 179.207 332.536 179.9 332.042 180.54C331.562 181.18 330.909 181.713 330.082 182.14L334.002 186.4L335.402 182.68H336.762L334.322 186.74L337.322 190H335.542ZM329.262 181.26L329.802 181.84C330.949 181.08 331.522 180 331.522 178.6C331.522 177.84 331.362 177.253 331.042 176.84C330.736 176.413 330.309 176.2 329.762 176.2C329.216 176.2 328.756 176.407 328.382 176.82C328.022 177.22 327.842 177.753 327.842 178.42C327.842 178.873 327.956 179.327 328.182 179.78C328.409 180.22 328.769 180.713 329.262 181.26ZM326.602 186.36C326.602 187.387 326.902 188.22 327.502 188.86C328.116 189.487 328.909 189.8 329.882 189.8C331.216 189.8 332.369 189.067 333.342 187.6L328.822 182.68C327.342 183.467 326.602 184.693 326.602 186.36ZM78.0941 195H79.4541V208.6C79.7075 208.6 80.1075 208.56 80.6541 208.48L83.9741 207.98V209H78.0941V195ZM87.3129 209V195H93.4129V195.98L89.9129 195.52C89.2996 195.44 88.8862 195.4 88.6729 195.4V201.5C88.8462 201.5 89.2596 201.48 89.9129 201.44L93.1929 201.24V202.16L89.9129 201.96C89.2596 201.92 88.8462 201.9 88.6729 201.9V208.6C88.9129 208.6 89.3329 208.56 89.9329 208.48L93.4729 208.02V209H87.3129ZM95.5845 209L100.964 195H102.204L107.584 209H106.124L103.644 202.44H99.1045L97.0445 209H95.5845ZM101.104 196.04L99.2445 201.96H103.464L101.224 196.04H101.104ZM110.829 209V195H115.229C116.775 195 118.122 195.293 119.269 195.88C120.415 196.467 121.309 197.287 121.949 198.34C122.589 199.38 122.909 200.6 122.909 202C122.909 203.4 122.589 204.627 121.949 205.68C121.309 206.72 120.415 207.533 119.269 208.12C118.122 208.707 116.775 209 115.229 209H110.829ZM115.229 195.48H112.189V208.52H115.229C117.162 208.52 118.669 207.947 119.749 206.8C120.842 205.653 121.389 204.053 121.389 202C121.389 199.947 120.842 198.347 119.749 197.2C118.669 196.053 117.162 195.48 115.229 195.48ZM143.668 207.28L143.548 208.5C143.175 208.66 142.722 208.8 142.188 208.92C141.655 209.04 141.115 209.127 140.568 209.18C140.022 209.247 139.535 209.28 139.108 209.28C138.028 209.28 137.028 209.1 136.108 208.74C135.188 208.367 134.382 207.853 133.688 207.2C133.008 206.547 132.475 205.78 132.088 204.9C131.702 204.007 131.508 203.04 131.508 202C131.508 200.96 131.702 200 132.088 199.12C132.475 198.227 133.008 197.453 133.688 196.8C134.382 196.147 135.188 195.64 136.108 195.28C137.028 194.907 138.028 194.72 139.108 194.72C139.548 194.72 140.042 194.753 140.588 194.82C141.135 194.887 141.668 194.98 142.188 195.1C142.708 195.207 143.148 195.333 143.508 195.48L143.408 196.6H143.288C142.795 196.147 142.175 195.8 141.428 195.56C140.682 195.32 139.908 195.2 139.108 195.2C137.908 195.2 136.848 195.487 135.928 196.06C135.022 196.62 134.308 197.413 133.788 198.44C133.282 199.453 133.028 200.64 133.028 202C133.028 203.373 133.282 204.567 133.788 205.58C134.308 206.593 135.022 207.387 135.928 207.96C136.835 208.52 137.895 208.8 139.108 208.8C140.015 208.8 140.855 208.653 141.628 208.36C142.415 208.067 143.055 207.707 143.548 207.28H143.668ZM145.584 209L150.964 195H152.204L157.584 209H156.124L153.644 202.44H149.104L147.044 209H145.584ZM151.104 196.04L149.244 201.96H153.464L151.224 196.04H151.104ZM160.829 209V195H163.329C164.942 195 166.195 195.347 167.089 196.04C167.982 196.72 168.429 197.673 168.429 198.9C168.429 200.127 167.982 201.087 167.089 201.78C166.195 202.46 164.942 202.8 163.329 202.8H162.189V209H160.829ZM163.329 195.48H162.189V202.32H163.329C165.769 202.32 166.989 201.18 166.989 198.9C166.989 196.62 165.769 195.48 163.329 195.48ZM175.435 209V195.4C175.235 195.4 174.821 195.44 174.195 195.52L170.275 196.02V195H181.955V196.02L178.035 195.52C177.408 195.44 176.995 195.4 176.795 195.4V209H175.435ZM185.004 195H186.364V203.44C186.364 205.053 186.757 206.313 187.544 207.22C188.344 208.113 189.464 208.56 190.904 208.56C191.81 208.56 192.597 208.387 193.264 208.04C193.944 207.68 194.464 207.187 194.824 206.56C195.197 205.933 195.37 205.213 195.344 204.4L195.004 195H196.364L196.024 204.4C195.97 206 195.49 207.213 194.584 208.04C193.69 208.867 192.41 209.28 190.744 209.28C188.944 209.28 187.537 208.76 186.524 207.72C185.51 206.667 185.004 205.227 185.004 203.4V195ZM201.161 195H203.841C205.254 195 206.347 195.3 207.121 195.9C207.907 196.487 208.301 197.313 208.301 198.38C208.301 199.207 208.054 199.893 207.561 200.44C207.081 200.987 206.381 201.353 205.461 201.54V201.66C206.341 201.833 207.061 202.247 207.621 202.9C208.181 203.553 208.601 204.36 208.881 205.32C209.134 206.2 209.381 206.887 209.621 207.38C209.874 207.86 210.147 208.207 210.441 208.42C210.747 208.633 211.107 208.787 211.521 208.88V209H210.701C210.114 209 209.627 208.893 209.241 208.68C208.867 208.467 208.547 208.107 208.281 207.6C208.014 207.093 207.761 206.393 207.521 205.5C207.134 204.127 206.621 203.153 205.981 202.58C205.341 202.007 204.561 201.72 203.641 201.72H203.521V201.36H203.641C205.787 201.36 206.861 200.373 206.861 198.4C206.861 196.453 205.854 195.48 203.841 195.48H202.521V209H201.161V195ZM213.993 209V195H220.093V195.98L216.593 195.52C215.979 195.44 215.566 195.4 215.353 195.4V201.5C215.526 201.5 215.939 201.48 216.593 201.44L219.873 201.24V202.16L216.593 201.96C215.939 201.92 215.526 201.9 215.353 201.9V208.6C215.593 208.6 216.013 208.56 216.613 208.48L220.153 208.02V209H213.993ZM228.515 208.56L228.635 207.36H228.755C229.275 207.813 229.861 208.167 230.515 208.42C231.168 208.673 231.815 208.8 232.455 208.8C233.361 208.8 234.095 208.553 234.655 208.06C235.215 207.553 235.495 206.88 235.495 206.04C235.495 205.573 235.388 205.14 235.175 204.74C234.975 204.34 234.635 203.933 234.155 203.52C233.688 203.107 233.041 202.66 232.215 202.18C231.641 201.847 231.095 201.5 230.575 201.14C230.055 200.767 229.628 200.34 229.295 199.86C228.961 199.367 228.795 198.78 228.795 198.1C228.795 197.087 229.161 196.273 229.895 195.66C230.628 195.033 231.595 194.72 232.795 194.72C233.328 194.72 233.901 194.78 234.515 194.9C235.128 195.007 235.601 195.147 235.935 195.32L235.835 196.44H235.715C234.955 195.613 233.981 195.2 232.795 195.2C231.941 195.2 231.255 195.42 230.735 195.86C230.215 196.287 229.955 196.867 229.955 197.6C229.955 198.147 230.095 198.62 230.375 199.02C230.668 199.407 231.041 199.76 231.495 200.08C231.948 200.387 232.435 200.687 232.955 200.98C233.555 201.327 234.135 201.693 234.695 202.08C235.268 202.467 235.735 202.933 236.095 203.48C236.468 204.013 236.655 204.687 236.655 205.5C236.655 206.247 236.481 206.907 236.135 207.48C235.788 208.04 235.295 208.48 234.655 208.8C234.028 209.12 233.295 209.28 232.455 209.28C231.921 209.28 231.295 209.213 230.575 209.08C229.855 208.947 229.168 208.773 228.515 208.56ZM243.594 209V203.08L238.634 195H240.154L244.614 202.32H244.734L248.294 195H249.814L245.034 202.8V209H243.594ZM251.718 208.56L251.838 207.36H251.958C252.478 207.813 253.065 208.167 253.718 208.42C254.371 208.673 255.018 208.8 255.658 208.8C256.565 208.8 257.298 208.553 257.858 208.06C258.418 207.553 258.698 206.88 258.698 206.04C258.698 205.573 258.591 205.14 258.378 204.74C258.178 204.34 257.838 203.933 257.358 203.52C256.891 203.107 256.245 202.66 255.418 202.18C254.845 201.847 254.298 201.5 253.778 201.14C253.258 200.767 252.831 200.34 252.498 199.86C252.165 199.367 251.998 198.78 251.998 198.1C251.998 197.087 252.365 196.273 253.098 195.66C253.831 195.033 254.798 194.72 255.998 194.72C256.531 194.72 257.105 194.78 257.718 194.9C258.331 195.007 258.805 195.147 259.138 195.32L259.038 196.44H258.918C258.158 195.613 257.185 195.2 255.998 195.2C255.145 195.2 254.458 195.42 253.938 195.86C253.418 196.287 253.158 196.867 253.158 197.6C253.158 198.147 253.298 198.62 253.578 199.02C253.871 199.407 254.245 199.76 254.698 200.08C255.151 200.387 255.638 200.687 256.158 200.98C256.758 201.327 257.338 201.693 257.898 202.08C258.471 202.467 258.938 202.933 259.298 203.48C259.671 204.013 259.858 204.687 259.858 205.5C259.858 206.247 259.685 206.907 259.338 207.48C258.991 208.04 258.498 208.48 257.858 208.8C257.231 209.12 256.498 209.28 255.658 209.28C255.125 209.28 254.498 209.213 253.778 209.08C253.058 208.947 252.371 208.773 251.718 208.56ZM266.607 209V195.4C266.407 195.4 265.993 195.44 265.367 195.52L261.447 196.02V195H273.127V196.02L269.207 195.52C268.58 195.44 268.167 195.4 267.967 195.4V209H266.607ZM276.375 209V195H282.475V195.98L278.975 195.52C278.362 195.44 277.949 195.4 277.735 195.4V201.5C277.909 201.5 278.322 201.48 278.975 201.44L282.255 201.24V202.16L278.975 201.96C278.322 201.92 277.909 201.9 277.735 201.9V208.6C277.975 208.6 278.395 208.56 278.995 208.48L282.535 208.02V209H276.375ZM299.907 195V209H298.547V196.16H298.427L293.587 205.44H292.967L287.467 197.26H287.347L287.787 209H286.427L286.927 194.72H287.327L293.627 204.08H293.747L298.467 195H299.907Z" fill="white"/>
<path d="M90.6584 285.796L90.5744 286.65C90.313 286.762 89.9957 286.86 89.6224 286.944C89.249 287.028 88.871 287.089 88.4884 287.126C88.1057 287.173 87.765 287.196 87.4664 287.196C86.7104 287.196 86.0104 287.07 85.3664 286.818C84.7224 286.557 84.1577 286.197 83.6724 285.74C83.1964 285.283 82.823 284.746 82.5524 284.13C82.2817 283.505 82.1464 282.828 82.1464 282.1C82.1464 281.372 82.2817 280.7 82.5524 280.084C82.823 279.459 83.1964 278.917 83.6724 278.46C84.1577 278.003 84.7224 277.648 85.3664 277.396C86.0104 277.135 86.7104 277.004 87.4664 277.004C87.7744 277.004 88.1197 277.027 88.5024 277.074C88.885 277.121 89.2584 277.186 89.6224 277.27C89.9864 277.345 90.2944 277.433 90.5464 277.536L90.4764 278.32H90.3924C90.047 278.003 89.613 277.76 89.0904 277.592C88.5677 277.424 88.0264 277.34 87.4664 277.34C86.6264 277.34 85.8844 277.541 85.2404 277.942C84.6057 278.334 84.1064 278.889 83.7424 279.608C83.3877 280.317 83.2104 281.148 83.2104 282.1C83.2104 283.061 83.3877 283.897 83.7424 284.606C84.1064 285.315 84.6057 285.871 85.2404 286.272C85.875 286.664 86.617 286.86 87.4664 286.86C88.101 286.86 88.689 286.757 89.2304 286.552C89.781 286.347 90.229 286.095 90.5744 285.796H90.6584ZM92.4823 282.1C92.4823 281.381 92.6083 280.714 92.8603 280.098C93.1216 279.473 93.481 278.931 93.9383 278.474C94.405 278.007 94.9463 277.648 95.5623 277.396C96.1876 277.135 96.8596 277.004 97.5783 277.004C98.297 277.004 98.9643 277.135 99.5803 277.396C100.206 277.648 100.747 278.007 101.204 278.474C101.671 278.931 102.03 279.473 102.282 280.098C102.544 280.714 102.674 281.381 102.674 282.1C102.674 282.819 102.544 283.491 102.282 284.116C102.03 284.732 101.671 285.273 101.204 285.74C100.747 286.197 100.206 286.557 99.5803 286.818C98.9643 287.07 98.297 287.196 97.5783 287.196C96.8596 287.196 96.1876 287.07 95.5623 286.818C94.9463 286.557 94.405 286.197 93.9383 285.74C93.481 285.273 93.1216 284.732 92.8603 284.116C92.6083 283.491 92.4823 282.819 92.4823 282.1ZM93.5463 282.1C93.5463 283.052 93.7143 283.887 94.0503 284.606C94.3863 285.315 94.8576 285.871 95.4643 286.272C96.071 286.664 96.7756 286.86 97.5783 286.86C98.381 286.86 99.0856 286.664 99.6923 286.272C100.299 285.871 100.77 285.311 101.106 284.592C101.442 283.873 101.61 283.043 101.61 282.1C101.61 281.157 101.442 280.331 101.106 279.622C100.77 278.903 100.299 278.343 99.6923 277.942C99.0856 277.541 98.381 277.34 97.5783 277.34C96.7756 277.34 96.071 277.541 95.4643 277.942C94.867 278.334 94.3956 278.889 94.0503 279.608C93.7143 280.317 93.5463 281.148 93.5463 282.1ZM105.4 287L105.75 277.004H105.918L112.96 285.516H113.044L112.736 277.2H113.688L113.338 287.196H113.17L106.128 278.684H106.044L106.352 287H105.4ZM124.934 285.796L124.85 286.65C124.588 286.762 124.271 286.86 123.898 286.944C123.524 287.028 123.146 287.089 122.764 287.126C122.381 287.173 122.04 287.196 121.742 287.196C120.986 287.196 120.286 287.07 119.642 286.818C118.998 286.557 118.433 286.197 117.948 285.74C117.472 285.283 117.098 284.746 116.828 284.13C116.557 283.505 116.422 282.828 116.422 282.1C116.422 281.372 116.557 280.7 116.828 280.084C117.098 279.459 117.472 278.917 117.948 278.46C118.433 278.003 118.998 277.648 119.642 277.396C120.286 277.135 120.986 277.004 121.742 277.004C122.05 277.004 122.395 277.027 122.778 277.074C123.16 277.121 123.534 277.186 123.898 277.27C124.262 277.345 124.57 277.433 124.822 277.536L124.752 278.32H124.668C124.322 278.003 123.888 277.76 123.366 277.592C122.843 277.424 122.302 277.34 121.742 277.34C120.902 277.34 120.16 277.541 119.516 277.942C118.881 278.334 118.382 278.889 118.018 279.608C117.663 280.317 117.486 281.148 117.486 282.1C117.486 283.061 117.663 283.897 118.018 284.606C118.382 285.315 118.881 285.871 119.516 286.272C120.15 286.664 120.892 286.86 121.742 286.86C122.376 286.86 122.964 286.757 123.506 286.552C124.056 286.347 124.504 286.095 124.85 285.796H124.934ZM127.731 287V277.2H132.001V277.886L129.551 277.564C129.122 277.508 128.832 277.48 128.683 277.48V281.75C128.804 281.75 129.094 281.736 129.551 281.708L131.847 281.568V282.212L129.551 282.072C129.094 282.044 128.804 282.03 128.683 282.03V286.72C128.851 286.72 129.145 286.692 129.565 286.636L132.043 286.314V287H127.731ZM134.977 287V277.2H136.727C137.857 277.2 138.734 277.443 139.359 277.928C139.985 278.404 140.297 279.071 140.297 279.93C140.297 280.789 139.985 281.461 139.359 281.946C138.734 282.422 137.857 282.66 136.727 282.66H135.929V287H134.977ZM136.727 277.536H135.929V282.324H136.727C138.435 282.324 139.289 281.526 139.289 279.93C139.289 278.334 138.435 277.536 136.727 277.536ZM145.202 287V277.48C145.062 277.48 144.772 277.508 144.334 277.564L141.59 277.914V277.2H149.766V277.914L147.022 277.564C146.583 277.508 146.294 277.48 146.154 277.48V287H145.202ZM155.813 287V277.2H157.563C158.692 277.2 159.57 277.443 160.195 277.928C160.82 278.404 161.133 279.071 161.133 279.93C161.133 280.789 160.82 281.461 160.195 281.946C159.57 282.422 158.692 282.66 157.563 282.66H156.765V287H155.813ZM157.563 277.536H156.765V282.324H157.563C159.271 282.324 160.125 281.526 160.125 279.93C160.125 278.334 159.271 277.536 157.563 277.536ZM163.798 277.2H165.674C166.663 277.2 167.428 277.41 167.97 277.83C168.52 278.241 168.796 278.819 168.796 279.566C168.796 280.145 168.623 280.625 168.278 281.008C167.942 281.391 167.452 281.647 166.808 281.778V281.862C167.424 281.983 167.928 282.273 168.32 282.73C168.712 283.187 169.006 283.752 169.202 284.424C169.379 285.04 169.552 285.521 169.72 285.866C169.897 286.202 170.088 286.445 170.294 286.594C170.508 286.743 170.76 286.851 171.05 286.916V287H170.476C170.065 287 169.724 286.925 169.454 286.776C169.192 286.627 168.968 286.375 168.782 286.02C168.595 285.665 168.418 285.175 168.25 284.55C167.979 283.589 167.62 282.907 167.172 282.506C166.724 282.105 166.178 281.904 165.534 281.904H165.45V281.652H165.534C167.036 281.652 167.788 280.961 167.788 279.58C167.788 278.217 167.083 277.536 165.674 277.536H164.75V287H163.798V277.2ZM171.807 282.1C171.807 281.381 171.933 280.714 172.185 280.098C172.446 279.473 172.805 278.931 173.263 278.474C173.729 278.007 174.271 277.648 174.887 277.396C175.512 277.135 176.184 277.004 176.903 277.004C177.621 277.004 178.289 277.135 178.905 277.396C179.53 277.648 180.071 278.007 180.529 278.474C180.995 278.931 181.355 279.473 181.607 280.098C181.868 280.714 181.999 281.381 181.999 282.1C181.999 282.819 181.868 283.491 181.607 284.116C181.355 284.732 180.995 285.273 180.529 285.74C180.071 286.197 179.53 286.557 178.905 286.818C178.289 287.07 177.621 287.196 176.903 287.196C176.184 287.196 175.512 287.07 174.887 286.818C174.271 286.557 173.729 286.197 173.263 285.74C172.805 285.273 172.446 284.732 172.185 284.116C171.933 283.491 171.807 282.819 171.807 282.1ZM172.871 282.1C172.871 283.052 173.039 283.887 173.375 284.606C173.711 285.315 174.182 285.871 174.789 286.272C175.395 286.664 176.1 286.86 176.903 286.86C177.705 286.86 178.41 286.664 179.017 286.272C179.623 285.871 180.095 285.311 180.431 284.592C180.767 283.873 180.935 283.043 180.935 282.1C180.935 281.157 180.767 280.331 180.431 279.622C180.095 278.903 179.623 278.343 179.017 277.942C178.41 277.541 177.705 277.34 176.903 277.34C176.1 277.34 175.395 277.541 174.789 277.942C174.191 278.334 173.72 278.889 173.375 279.608C173.039 280.317 172.871 281.148 172.871 282.1ZM184.934 286.132V277.2H185.886V286.048C185.886 287.224 185.723 288.139 185.396 288.792C185.07 289.445 184.57 289.921 183.898 290.22L183.856 290.15C184.23 289.889 184.5 289.445 184.668 288.82C184.846 288.204 184.934 287.308 184.934 286.132ZM189.528 287V277.2H193.798V277.886L191.348 277.564C190.919 277.508 190.629 277.48 190.48 277.48V281.75C190.601 281.75 190.891 281.736 191.348 281.708L193.644 281.568V282.212L191.348 282.072C190.891 282.044 190.601 282.03 190.48 282.03V286.72C190.648 286.72 190.942 286.692 191.362 286.636L193.84 286.314V287H189.528ZM204.586 285.796L204.502 286.65C204.241 286.762 203.923 286.86 203.55 286.944C203.177 287.028 202.799 287.089 202.416 287.126C202.033 287.173 201.693 287.196 201.394 287.196C200.638 287.196 199.938 287.07 199.294 286.818C198.65 286.557 198.085 286.197 197.6 285.74C197.124 285.283 196.751 284.746 196.48 284.13C196.209 283.505 196.074 282.828 196.074 282.1C196.074 281.372 196.209 280.7 196.48 280.084C196.751 279.459 197.124 278.917 197.6 278.46C198.085 278.003 198.65 277.648 199.294 277.396C199.938 277.135 200.638 277.004 201.394 277.004C201.702 277.004 202.047 277.027 202.43 277.074C202.813 277.121 203.186 277.186 203.55 277.27C203.914 277.345 204.222 277.433 204.474 277.536L204.404 278.32H204.32C203.975 278.003 203.541 277.76 203.018 277.592C202.495 277.424 201.954 277.34 201.394 277.34C200.554 277.34 199.812 277.541 199.168 277.942C198.533 278.334 198.034 278.889 197.67 279.608C197.315 280.317 197.138 281.148 197.138 282.1C197.138 283.061 197.315 283.897 197.67 284.606C198.034 285.315 198.533 285.871 199.168 286.272C199.803 286.664 200.545 286.86 201.394 286.86C202.029 286.86 202.617 286.757 203.158 286.552C203.709 286.347 204.157 286.095 204.502 285.796H204.586ZM209.623 287V277.48C209.483 277.48 209.194 277.508 208.755 277.564L206.011 277.914V277.2H214.187V277.914L211.443 277.564C211.005 277.508 210.715 277.48 210.575 277.48V287H209.623ZM220.235 287V277.2H222.181C223.189 277.2 223.973 277.41 224.533 277.83C225.093 278.25 225.373 278.833 225.373 279.58C225.373 280.131 225.21 280.602 224.883 280.994C224.556 281.377 224.099 281.638 223.511 281.778V281.862C224.314 281.965 224.939 282.245 225.387 282.702C225.844 283.15 226.073 283.719 226.073 284.41C226.073 285.222 225.76 285.857 225.135 286.314C224.51 286.771 223.632 287 222.503 287H220.235ZM222.195 277.536H221.187V281.736H222.181C223.656 281.736 224.393 281.036 224.393 279.636C224.393 278.236 223.66 277.536 222.195 277.536ZM222.503 282.072H221.187V286.664H222.503C224.211 286.664 225.065 285.899 225.065 284.368C225.065 282.837 224.211 282.072 222.503 282.072ZM230.442 287V282.856L226.97 277.2H228.034L231.156 282.324H231.24L233.732 277.2H234.796L231.45 282.66V287H230.442ZM240.757 287V277.2H241.709V281.736H247.589V277.2H248.541V287H247.589V282.072H241.709V287H240.757ZM252.186 287V277.2H256.456V277.886L254.006 277.564C253.577 277.508 253.288 277.48 253.138 277.48V281.75C253.26 281.75 253.549 281.736 254.006 281.708L256.302 281.568V282.212L254.006 282.072C253.549 282.044 253.26 282.03 253.138 282.03V286.72C253.306 286.72 253.6 286.692 254.02 286.636L256.498 286.314V287H252.186ZM264.318 282.352V282.016H267.86V285.824C267.431 286.253 266.904 286.589 266.278 286.832C265.662 287.075 264.972 287.196 264.206 287.196C263.422 287.196 262.699 287.07 262.036 286.818C261.374 286.557 260.795 286.197 260.3 285.74C259.806 285.273 259.418 284.732 259.138 284.116C258.868 283.5 258.732 282.828 258.732 282.1C258.732 281.372 258.868 280.7 259.138 280.084C259.418 279.468 259.806 278.931 260.3 278.474C260.795 278.007 261.374 277.648 262.036 277.396C262.699 277.135 263.422 277.004 264.206 277.004C264.542 277.004 264.906 277.027 265.298 277.074C265.7 277.121 266.082 277.186 266.446 277.27C266.81 277.345 267.118 277.438 267.37 277.55L267.3 278.334H267.216C266.843 278.007 266.395 277.76 265.872 277.592C265.35 277.424 264.794 277.34 264.206 277.34C263.329 277.34 262.559 277.541 261.896 277.942C261.234 278.334 260.716 278.889 260.342 279.608C259.978 280.317 259.796 281.148 259.796 282.1C259.796 283.052 259.978 283.887 260.342 284.606C260.716 285.315 261.234 285.871 261.896 286.272C262.559 286.664 263.329 286.86 264.206 286.86C264.748 286.86 265.247 286.785 265.704 286.636C266.171 286.487 266.572 286.272 266.908 285.992V282.352H264.318ZM270.381 282.1C270.381 281.381 270.507 280.714 270.759 280.098C271.02 279.473 271.379 278.931 271.837 278.474C272.303 278.007 272.845 277.648 273.461 277.396C274.086 277.135 274.758 277.004 275.477 277.004C276.195 277.004 276.863 277.135 277.479 277.396C278.104 277.648 278.645 278.007 279.103 278.474C279.569 278.931 279.929 279.473 280.181 280.098C280.442 280.714 280.573 281.381 280.573 282.1C280.573 282.819 280.442 283.491 280.181 284.116C279.929 284.732 279.569 285.273 279.103 285.74C278.645 286.197 278.104 286.557 277.479 286.818C276.863 287.07 276.195 287.196 275.477 287.196C274.758 287.196 274.086 287.07 273.461 286.818C272.845 286.557 272.303 286.197 271.837 285.74C271.379 285.273 271.02 284.732 270.759 284.116C270.507 283.491 270.381 282.819 270.381 282.1ZM271.445 282.1C271.445 283.052 271.613 283.887 271.949 284.606C272.285 285.315 272.756 285.871 273.363 286.272C273.969 286.664 274.674 286.86 275.477 286.86C276.279 286.86 276.984 286.664 277.591 286.272C278.197 285.871 278.669 285.311 279.005 284.592C279.341 283.873 279.509 283.043 279.509 282.1C279.509 281.157 279.341 280.331 279.005 279.622C278.669 278.903 278.197 278.343 277.591 277.942C276.984 277.541 276.279 277.34 275.477 277.34C274.674 277.34 273.969 277.541 273.363 277.942C272.765 278.334 272.294 278.889 271.949 279.608C271.613 280.317 271.445 281.148 271.445 282.1ZM283.508 277.2H284.46V286.72C284.638 286.72 284.918 286.692 285.3 286.636L287.624 286.286V287H283.508V277.2ZM296.192 287H288.772V286.72L295.016 277.48C294.866 277.48 294.526 277.499 293.994 277.536L289.136 277.886V277.2H296.136V277.48L289.892 286.72C290.05 286.72 290.391 286.701 290.914 286.664L296.192 286.286V287Z" fill="#FFFEFE"/>
</svg>
